G75*
G70*
%OFA0B0*%
%FSLAX24Y24*%
%IPPOS*%
%LPD*%
%AMOC8*
5,1,8,0,0,1.08239X$1,22.5*
%
%ADD10C,0.0000*%
%ADD11C,0.0080*%
D10*
X000181Y000282D02*
X000181Y017782D01*
X031674Y017782D01*
X031674Y000282D01*
X000181Y000282D01*
X000676Y004680D02*
X000678Y004724D01*
X000684Y004768D01*
X000694Y004811D01*
X000707Y004853D01*
X000725Y004893D01*
X000746Y004932D01*
X000770Y004969D01*
X000797Y005004D01*
X000828Y005036D01*
X000861Y005065D01*
X000897Y005091D01*
X000935Y005113D01*
X000975Y005132D01*
X001016Y005148D01*
X001059Y005160D01*
X001102Y005168D01*
X001146Y005172D01*
X001190Y005172D01*
X001234Y005168D01*
X001277Y005160D01*
X001320Y005148D01*
X001361Y005132D01*
X001401Y005113D01*
X001439Y005091D01*
X001475Y005065D01*
X001508Y005036D01*
X001539Y005004D01*
X001566Y004969D01*
X001590Y004932D01*
X001611Y004893D01*
X001629Y004853D01*
X001642Y004811D01*
X001652Y004768D01*
X001658Y004724D01*
X001660Y004680D01*
X001658Y004636D01*
X001652Y004592D01*
X001642Y004549D01*
X001629Y004507D01*
X001611Y004467D01*
X001590Y004428D01*
X001566Y004391D01*
X001539Y004356D01*
X001508Y004324D01*
X001475Y004295D01*
X001439Y004269D01*
X001401Y004247D01*
X001361Y004228D01*
X001320Y004212D01*
X001277Y004200D01*
X001234Y004192D01*
X001190Y004188D01*
X001146Y004188D01*
X001102Y004192D01*
X001059Y004200D01*
X001016Y004212D01*
X000975Y004228D01*
X000935Y004247D01*
X000897Y004269D01*
X000861Y004295D01*
X000828Y004324D01*
X000797Y004356D01*
X000770Y004391D01*
X000746Y004428D01*
X000725Y004467D01*
X000707Y004507D01*
X000694Y004549D01*
X000684Y004592D01*
X000678Y004636D01*
X000676Y004680D01*
X000676Y016885D02*
X000678Y016929D01*
X000684Y016973D01*
X000694Y017016D01*
X000707Y017058D01*
X000725Y017098D01*
X000746Y017137D01*
X000770Y017174D01*
X000797Y017209D01*
X000828Y017241D01*
X000861Y017270D01*
X000897Y017296D01*
X000935Y017318D01*
X000975Y017337D01*
X001016Y017353D01*
X001059Y017365D01*
X001102Y017373D01*
X001146Y017377D01*
X001190Y017377D01*
X001234Y017373D01*
X001277Y017365D01*
X001320Y017353D01*
X001361Y017337D01*
X001401Y017318D01*
X001439Y017296D01*
X001475Y017270D01*
X001508Y017241D01*
X001539Y017209D01*
X001566Y017174D01*
X001590Y017137D01*
X001611Y017098D01*
X001629Y017058D01*
X001642Y017016D01*
X001652Y016973D01*
X001658Y016929D01*
X001660Y016885D01*
X001658Y016841D01*
X001652Y016797D01*
X001642Y016754D01*
X001629Y016712D01*
X001611Y016672D01*
X001590Y016633D01*
X001566Y016596D01*
X001539Y016561D01*
X001508Y016529D01*
X001475Y016500D01*
X001439Y016474D01*
X001401Y016452D01*
X001361Y016433D01*
X001320Y016417D01*
X001277Y016405D01*
X001234Y016397D01*
X001190Y016393D01*
X001146Y016393D01*
X001102Y016397D01*
X001059Y016405D01*
X001016Y016417D01*
X000975Y016433D01*
X000935Y016452D01*
X000897Y016474D01*
X000861Y016500D01*
X000828Y016529D01*
X000797Y016561D01*
X000770Y016596D01*
X000746Y016633D01*
X000725Y016672D01*
X000707Y016712D01*
X000694Y016754D01*
X000684Y016797D01*
X000678Y016841D01*
X000676Y016885D01*
X030203Y016885D02*
X030205Y016929D01*
X030211Y016973D01*
X030221Y017016D01*
X030234Y017058D01*
X030252Y017098D01*
X030273Y017137D01*
X030297Y017174D01*
X030324Y017209D01*
X030355Y017241D01*
X030388Y017270D01*
X030424Y017296D01*
X030462Y017318D01*
X030502Y017337D01*
X030543Y017353D01*
X030586Y017365D01*
X030629Y017373D01*
X030673Y017377D01*
X030717Y017377D01*
X030761Y017373D01*
X030804Y017365D01*
X030847Y017353D01*
X030888Y017337D01*
X030928Y017318D01*
X030966Y017296D01*
X031002Y017270D01*
X031035Y017241D01*
X031066Y017209D01*
X031093Y017174D01*
X031117Y017137D01*
X031138Y017098D01*
X031156Y017058D01*
X031169Y017016D01*
X031179Y016973D01*
X031185Y016929D01*
X031187Y016885D01*
X031185Y016841D01*
X031179Y016797D01*
X031169Y016754D01*
X031156Y016712D01*
X031138Y016672D01*
X031117Y016633D01*
X031093Y016596D01*
X031066Y016561D01*
X031035Y016529D01*
X031002Y016500D01*
X030966Y016474D01*
X030928Y016452D01*
X030888Y016433D01*
X030847Y016417D01*
X030804Y016405D01*
X030761Y016397D01*
X030717Y016393D01*
X030673Y016393D01*
X030629Y016397D01*
X030586Y016405D01*
X030543Y016417D01*
X030502Y016433D01*
X030462Y016452D01*
X030424Y016474D01*
X030388Y016500D01*
X030355Y016529D01*
X030324Y016561D01*
X030297Y016596D01*
X030273Y016633D01*
X030252Y016672D01*
X030234Y016712D01*
X030221Y016754D01*
X030211Y016797D01*
X030205Y016841D01*
X030203Y016885D01*
X030203Y004680D02*
X030205Y004724D01*
X030211Y004768D01*
X030221Y004811D01*
X030234Y004853D01*
X030252Y004893D01*
X030273Y004932D01*
X030297Y004969D01*
X030324Y005004D01*
X030355Y005036D01*
X030388Y005065D01*
X030424Y005091D01*
X030462Y005113D01*
X030502Y005132D01*
X030543Y005148D01*
X030586Y005160D01*
X030629Y005168D01*
X030673Y005172D01*
X030717Y005172D01*
X030761Y005168D01*
X030804Y005160D01*
X030847Y005148D01*
X030888Y005132D01*
X030928Y005113D01*
X030966Y005091D01*
X031002Y005065D01*
X031035Y005036D01*
X031066Y005004D01*
X031093Y004969D01*
X031117Y004932D01*
X031138Y004893D01*
X031156Y004853D01*
X031169Y004811D01*
X031179Y004768D01*
X031185Y004724D01*
X031187Y004680D01*
X031185Y004636D01*
X031179Y004592D01*
X031169Y004549D01*
X031156Y004507D01*
X031138Y004467D01*
X031117Y004428D01*
X031093Y004391D01*
X031066Y004356D01*
X031035Y004324D01*
X031002Y004295D01*
X030966Y004269D01*
X030928Y004247D01*
X030888Y004228D01*
X030847Y004212D01*
X030804Y004200D01*
X030761Y004192D01*
X030717Y004188D01*
X030673Y004188D01*
X030629Y004192D01*
X030586Y004200D01*
X030543Y004212D01*
X030502Y004228D01*
X030462Y004247D01*
X030424Y004269D01*
X030388Y004295D01*
X030355Y004324D01*
X030324Y004356D01*
X030297Y004391D01*
X030273Y004428D01*
X030252Y004467D01*
X030234Y004507D01*
X030221Y004549D01*
X030211Y004592D01*
X030205Y004636D01*
X030203Y004680D01*
D11*
X028791Y001563D02*
X029071Y001283D01*
X029141Y001283D01*
X029071Y001102D02*
X028791Y001102D01*
X028721Y001032D01*
X028721Y000822D01*
X029141Y000822D01*
X029141Y001032D01*
X029071Y001102D01*
X028721Y001283D02*
X028721Y001563D01*
X028791Y001563D01*
X028391Y001493D02*
X028321Y001563D01*
X028251Y001563D01*
X028181Y001493D01*
X028181Y001283D01*
X028321Y001283D01*
X028391Y001353D01*
X028391Y001493D01*
X028181Y001283D02*
X028041Y001423D01*
X027971Y001563D01*
X027391Y001493D02*
X027391Y001353D01*
X027321Y001283D01*
X027181Y001283D02*
X027111Y001423D01*
X027111Y001493D01*
X027181Y001563D01*
X027321Y001563D01*
X027391Y001493D01*
X027181Y001283D02*
X026971Y001283D01*
X026971Y001563D01*
X026391Y001493D02*
X025971Y001493D01*
X026181Y001283D01*
X026181Y001563D01*
X026041Y001102D02*
X025971Y001032D01*
X025971Y000822D01*
X026391Y000822D01*
X026391Y001032D01*
X026321Y001102D01*
X026041Y001102D01*
X025391Y001032D02*
X025391Y000822D01*
X024971Y000822D01*
X024971Y001032D01*
X025041Y001102D01*
X025321Y001102D01*
X025391Y001032D01*
X025321Y001283D02*
X025391Y001353D01*
X025391Y001493D01*
X025321Y001563D01*
X025251Y001563D01*
X025181Y001493D01*
X025181Y001423D01*
X025181Y001493D02*
X025111Y001563D01*
X025041Y001563D01*
X024971Y001493D01*
X024971Y001353D01*
X025041Y001283D01*
X024391Y001283D02*
X024391Y001563D01*
X024111Y001563D02*
X024041Y001563D01*
X023971Y001493D01*
X023971Y001353D01*
X024041Y001283D01*
X024041Y001102D02*
X023971Y001032D01*
X023971Y000822D01*
X024391Y000822D01*
X024391Y001032D01*
X024321Y001102D01*
X024041Y001102D01*
X024391Y001283D02*
X024111Y001563D01*
X023391Y001563D02*
X023391Y001283D01*
X023391Y001423D02*
X022971Y001423D01*
X023111Y001283D01*
X023041Y001102D02*
X022971Y001032D01*
X022971Y000822D01*
X023391Y000822D01*
X023391Y001032D01*
X023321Y001102D01*
X023041Y001102D01*
X022391Y001032D02*
X022391Y000822D01*
X021971Y000822D01*
X021971Y001032D01*
X022041Y001102D01*
X022321Y001102D01*
X022391Y001032D01*
X022321Y001283D02*
X022041Y001283D01*
X021971Y001353D01*
X021971Y001493D01*
X022041Y001563D01*
X022321Y001283D01*
X022391Y001353D01*
X022391Y001493D01*
X022321Y001563D01*
X022041Y001563D01*
X026971Y001032D02*
X026971Y000822D01*
X027391Y000822D01*
X027391Y001032D01*
X027321Y001102D01*
X027041Y001102D01*
X026971Y001032D01*
X027971Y001032D02*
X027971Y000822D01*
X028391Y000822D01*
X028391Y001032D01*
X028321Y001102D01*
X028041Y001102D01*
X027971Y001032D01*
X016212Y001642D02*
X016142Y001572D01*
X016002Y001572D01*
X015932Y001642D01*
X016212Y001922D01*
X016212Y001642D01*
X015932Y001642D02*
X015932Y001922D01*
X016002Y001993D01*
X016142Y001993D01*
X016212Y001922D01*
X015752Y001922D02*
X015682Y001993D01*
X015541Y001993D01*
X015471Y001922D01*
X015471Y001642D01*
X015541Y001572D01*
X015682Y001572D01*
X015752Y001642D01*
X014391Y001283D02*
X014321Y001283D01*
X014041Y001563D01*
X013971Y001563D01*
X013971Y001283D01*
X014041Y001102D02*
X013971Y001032D01*
X013971Y000822D01*
X014391Y000822D01*
X014391Y001032D01*
X014321Y001102D01*
X014251Y001102D01*
X014181Y001032D01*
X014181Y000822D01*
X014181Y001032D02*
X014111Y001102D01*
X014041Y001102D01*
X013391Y001032D02*
X013391Y000822D01*
X012971Y000822D01*
X012971Y001032D01*
X013041Y001102D01*
X013111Y001102D01*
X013181Y001032D01*
X013181Y000822D01*
X013181Y001032D02*
X013251Y001102D01*
X013321Y001102D01*
X013391Y001032D01*
X013321Y001283D02*
X013391Y001353D01*
X013391Y001493D01*
X013321Y001563D01*
X013251Y001563D01*
X013181Y001493D01*
X013181Y001283D01*
X013321Y001283D01*
X013181Y001283D02*
X013041Y001423D01*
X012971Y001563D01*
X012391Y001493D02*
X012391Y001353D01*
X012321Y001283D01*
X012181Y001283D02*
X012111Y001423D01*
X012111Y001493D01*
X012181Y001563D01*
X012321Y001563D01*
X012391Y001493D01*
X012181Y001283D02*
X011971Y001283D01*
X011971Y001563D01*
X011391Y001493D02*
X010971Y001493D01*
X011181Y001283D01*
X011181Y001563D01*
X011111Y001102D02*
X011181Y001032D01*
X011181Y000822D01*
X011391Y000822D02*
X010971Y000822D01*
X010971Y001032D01*
X011041Y001102D01*
X011111Y001102D01*
X011181Y001032D02*
X011251Y001102D01*
X011321Y001102D01*
X011391Y001032D01*
X011391Y000822D01*
X011971Y000822D02*
X011971Y001032D01*
X012041Y001102D01*
X012111Y001102D01*
X012181Y001032D01*
X012181Y000822D01*
X012391Y000822D02*
X011971Y000822D01*
X012181Y001032D02*
X012251Y001102D01*
X012321Y001102D01*
X012391Y001032D01*
X012391Y000822D01*
X010391Y000822D02*
X010391Y001032D01*
X010321Y001102D01*
X010251Y001102D01*
X010181Y001032D01*
X010181Y000822D01*
X009971Y000822D02*
X009971Y001032D01*
X010041Y001102D01*
X010111Y001102D01*
X010181Y001032D01*
X010041Y001283D02*
X009971Y001353D01*
X009971Y001493D01*
X010041Y001563D01*
X010111Y001563D01*
X010181Y001493D01*
X010251Y001563D01*
X010321Y001563D01*
X010391Y001493D01*
X010391Y001353D01*
X010321Y001283D01*
X010181Y001423D02*
X010181Y001493D01*
X009391Y001563D02*
X009391Y001283D01*
X009111Y001563D01*
X009041Y001563D01*
X008971Y001493D01*
X008971Y001353D01*
X009041Y001283D01*
X009041Y001102D02*
X009111Y001102D01*
X009181Y001032D01*
X009181Y000822D01*
X008971Y000822D02*
X008971Y001032D01*
X009041Y001102D01*
X009181Y001032D02*
X009251Y001102D01*
X009321Y001102D01*
X009391Y001032D01*
X009391Y000822D01*
X008971Y000822D01*
X008391Y000822D02*
X008391Y001032D01*
X008321Y001102D01*
X008251Y001102D01*
X008181Y001032D01*
X008181Y000822D01*
X007971Y000822D02*
X007971Y001032D01*
X008041Y001102D01*
X008111Y001102D01*
X008181Y001032D01*
X008111Y001283D02*
X007971Y001423D01*
X008391Y001423D01*
X008391Y001283D02*
X008391Y001563D01*
X007391Y001493D02*
X007391Y001353D01*
X007321Y001283D01*
X007041Y001563D01*
X007321Y001563D01*
X007391Y001493D01*
X007321Y001283D02*
X007041Y001283D01*
X006971Y001353D01*
X006971Y001493D01*
X007041Y001563D01*
X007041Y001102D02*
X006971Y001032D01*
X006971Y000822D01*
X007391Y000822D01*
X007391Y001032D01*
X007321Y001102D01*
X007251Y001102D01*
X007181Y001032D01*
X007181Y000822D01*
X007181Y001032D02*
X007111Y001102D01*
X007041Y001102D01*
X007971Y000822D02*
X008391Y000822D01*
X009971Y000822D02*
X010391Y000822D01*
X001641Y001322D02*
X001641Y001462D01*
X001641Y001392D02*
X001221Y001392D01*
X001221Y001322D02*
X001221Y001462D01*
X001291Y001629D02*
X001361Y001629D01*
X001431Y001699D01*
X001431Y001839D01*
X001501Y001909D01*
X001571Y001909D01*
X001641Y001839D01*
X001641Y001699D01*
X001571Y001629D01*
X001291Y001629D02*
X001221Y001699D01*
X001221Y001839D01*
X001291Y001909D01*
X001221Y002089D02*
X001221Y002300D01*
X001291Y002370D01*
X001431Y002370D01*
X001501Y002300D01*
X001501Y002089D01*
X001641Y002089D02*
X001221Y002089D01*
X001391Y006572D02*
X000971Y006572D01*
X001111Y006712D01*
X000971Y006852D01*
X001391Y006852D01*
X001321Y007033D02*
X001041Y007033D01*
X000971Y007103D01*
X000971Y007243D01*
X001041Y007313D01*
X001321Y007313D01*
X001391Y007243D01*
X001391Y007103D01*
X001321Y007033D01*
X001391Y007493D02*
X000971Y007493D01*
X000971Y007703D01*
X001041Y007773D01*
X001321Y007773D01*
X001391Y007703D01*
X001391Y007493D01*
X001971Y007563D02*
X002041Y007493D01*
X002111Y007493D01*
X002181Y007563D01*
X002181Y007703D01*
X002251Y007773D01*
X002321Y007773D01*
X002391Y007703D01*
X002391Y007563D01*
X002321Y007493D01*
X002391Y007313D02*
X002251Y007173D01*
X002251Y007243D02*
X002251Y007033D01*
X002391Y007033D02*
X001971Y007033D01*
X001971Y007243D01*
X002041Y007313D01*
X002181Y007313D01*
X002251Y007243D01*
X002321Y006852D02*
X002041Y006852D01*
X001971Y006782D01*
X001971Y006642D01*
X002041Y006572D01*
X002321Y006572D01*
X002391Y006642D01*
X002391Y006782D01*
X002321Y006852D01*
X001971Y007563D02*
X001971Y007703D01*
X002041Y007773D01*
X002041Y007953D02*
X002321Y007953D01*
X002391Y008023D01*
X002391Y008163D01*
X002321Y008234D01*
X002041Y008234D01*
X001971Y008163D01*
X001971Y008023D01*
X002041Y007953D01*
X001391Y008023D02*
X001391Y008163D01*
X001321Y008234D01*
X000971Y008234D01*
X000971Y008414D02*
X001391Y008414D01*
X001391Y008694D01*
X001391Y008874D02*
X000971Y008874D01*
X000971Y009154D01*
X001181Y009014D02*
X001181Y008874D01*
X001391Y008874D02*
X001391Y009154D01*
X001971Y009154D02*
X001971Y008874D01*
X002391Y008874D01*
X002391Y009154D01*
X002391Y009334D02*
X001971Y009334D01*
X001971Y009544D01*
X002041Y009615D01*
X002181Y009615D01*
X002251Y009544D01*
X002251Y009334D01*
X002251Y009474D02*
X002391Y009615D01*
X002391Y009795D02*
X002391Y009935D01*
X002391Y009865D02*
X001971Y009865D01*
X001971Y009795D02*
X001971Y009935D01*
X002041Y010102D02*
X002321Y010102D01*
X002391Y010172D01*
X002391Y010312D01*
X002321Y010382D01*
X002041Y010382D02*
X001971Y010312D01*
X001971Y010172D01*
X002041Y010102D01*
X001391Y010075D02*
X001111Y010075D01*
X000971Y009935D01*
X001111Y009795D01*
X001391Y009795D01*
X001181Y009795D02*
X001181Y010075D01*
X000971Y010255D02*
X000971Y010535D01*
X000971Y010395D02*
X001391Y010395D01*
X001321Y010715D02*
X001391Y010785D01*
X001391Y010926D01*
X001321Y010996D01*
X001251Y010996D01*
X001181Y010926D01*
X001181Y010856D01*
X001181Y010926D02*
X001111Y010996D01*
X001041Y010996D01*
X000971Y010926D01*
X000971Y010785D01*
X001041Y010715D01*
X001041Y011176D02*
X000971Y011246D01*
X000971Y011386D01*
X001041Y011456D01*
X001111Y011456D01*
X001391Y011176D01*
X001391Y011456D01*
X001181Y011636D02*
X001181Y011916D01*
X000971Y011846D02*
X001181Y011636D01*
X001391Y011846D02*
X000971Y011846D01*
X000971Y012096D02*
X001391Y012096D01*
X001391Y012377D01*
X001321Y012557D02*
X001041Y012557D01*
X000971Y012627D01*
X000971Y012767D01*
X001041Y012837D01*
X000971Y013017D02*
X000971Y013227D01*
X001041Y013297D01*
X001321Y013297D01*
X001391Y013227D01*
X001391Y013017D01*
X000971Y013017D01*
X001321Y012837D02*
X001391Y012767D01*
X001391Y012627D01*
X001321Y012557D01*
X001971Y012614D02*
X001971Y012473D01*
X002041Y012403D01*
X002111Y012684D02*
X002391Y012403D01*
X002391Y012684D01*
X002111Y012684D02*
X002041Y012684D01*
X001971Y012614D01*
X002391Y012223D02*
X002391Y011943D01*
X002391Y012083D02*
X001971Y012083D01*
X002111Y011943D01*
X002041Y011763D02*
X002321Y011483D01*
X002391Y011553D01*
X002391Y011693D01*
X002321Y011763D01*
X002041Y011763D01*
X001971Y011693D01*
X001971Y011553D01*
X002041Y011483D01*
X002321Y011483D01*
X002391Y011303D02*
X002391Y011022D01*
X002111Y011303D01*
X002041Y011303D01*
X001971Y011232D01*
X001971Y011092D01*
X002041Y011022D01*
X002181Y009014D02*
X002181Y008874D01*
X001391Y008023D02*
X001321Y007953D01*
X000971Y007953D01*
X005721Y007953D02*
X006141Y007953D01*
X006141Y008234D01*
X006071Y008414D02*
X005791Y008414D01*
X005721Y008484D01*
X005721Y008624D01*
X005791Y008694D01*
X005931Y008694D02*
X005931Y008554D01*
X005931Y008694D02*
X006071Y008694D01*
X006141Y008624D01*
X006141Y008484D01*
X006071Y008414D01*
X005931Y008093D02*
X005931Y007953D01*
X005721Y007953D02*
X005721Y008234D01*
X005721Y007773D02*
X006141Y007773D01*
X005861Y007633D02*
X005721Y007773D01*
X005861Y007633D02*
X005721Y007493D01*
X006141Y007493D01*
X006141Y007173D02*
X005721Y007173D01*
X005721Y007033D02*
X005721Y007313D01*
X005861Y006852D02*
X006141Y006852D01*
X005931Y006852D02*
X005931Y006572D01*
X005861Y006572D02*
X005721Y006712D01*
X005861Y006852D01*
X005861Y006572D02*
X006141Y006572D01*
X006141Y008874D02*
X005861Y008874D01*
X005721Y009014D01*
X005861Y009154D01*
X006141Y009154D01*
X006071Y009334D02*
X006141Y009404D01*
X006141Y009544D01*
X006071Y009615D01*
X006001Y009615D01*
X005931Y009544D01*
X005931Y009474D01*
X005931Y009544D02*
X005861Y009615D01*
X005791Y009615D01*
X005721Y009544D01*
X005721Y009404D01*
X005791Y009334D01*
X005931Y009154D02*
X005931Y008874D01*
X005791Y009795D02*
X005721Y009865D01*
X005721Y010005D01*
X005791Y010075D01*
X005861Y010075D01*
X006141Y009795D01*
X006141Y010075D01*
X005931Y010255D02*
X005931Y010535D01*
X006001Y010715D02*
X006001Y010926D01*
X005931Y010996D01*
X005791Y010996D01*
X005721Y010926D01*
X005721Y010715D01*
X006141Y010715D01*
X006141Y010465D02*
X005721Y010465D01*
X005931Y010255D01*
X001391Y014078D02*
X001251Y013938D01*
X000971Y013938D01*
X000971Y014218D02*
X001251Y014218D01*
X001391Y014078D01*
X001391Y014398D02*
X001391Y014678D01*
X001391Y014538D02*
X000971Y014538D01*
X001111Y014398D01*
X006971Y015712D02*
X007111Y015852D01*
X007391Y015852D01*
X007321Y016033D02*
X007041Y016313D01*
X007321Y016313D01*
X007391Y016243D01*
X007391Y016103D01*
X007321Y016033D01*
X007041Y016033D01*
X006971Y016103D01*
X006971Y016243D01*
X007041Y016313D01*
X007181Y015852D02*
X007181Y015572D01*
X007111Y015572D02*
X006971Y015712D01*
X007111Y015572D02*
X007391Y015572D01*
X007971Y015712D02*
X008111Y015852D01*
X008391Y015852D01*
X008391Y016033D02*
X008391Y016313D01*
X008391Y016173D02*
X007971Y016173D01*
X008111Y016033D01*
X008181Y015852D02*
X008181Y015572D01*
X008111Y015572D02*
X007971Y015712D01*
X008111Y015572D02*
X008391Y015572D01*
X008971Y015712D02*
X009111Y015852D01*
X009391Y015852D01*
X009391Y016033D02*
X009111Y016313D01*
X009041Y016313D01*
X008971Y016243D01*
X008971Y016103D01*
X009041Y016033D01*
X009181Y015852D02*
X009181Y015572D01*
X009111Y015572D02*
X008971Y015712D01*
X009111Y015572D02*
X009391Y015572D01*
X009971Y015712D02*
X010111Y015852D01*
X010391Y015852D01*
X010321Y016033D02*
X010391Y016103D01*
X010391Y016243D01*
X010321Y016313D01*
X010251Y016313D01*
X010181Y016243D01*
X010181Y016173D01*
X010181Y016243D02*
X010111Y016313D01*
X010041Y016313D01*
X009971Y016243D01*
X009971Y016103D01*
X010041Y016033D01*
X010181Y015852D02*
X010181Y015572D01*
X010111Y015572D02*
X009971Y015712D01*
X010111Y015572D02*
X010391Y015572D01*
X010971Y015712D02*
X011111Y015852D01*
X011391Y015852D01*
X011181Y015852D02*
X011181Y015572D01*
X011111Y015572D02*
X011391Y015572D01*
X011111Y015572D02*
X010971Y015712D01*
X011181Y016033D02*
X011181Y016313D01*
X011391Y016243D02*
X010971Y016243D01*
X011181Y016033D01*
X011971Y016033D02*
X012181Y016033D01*
X012111Y016173D01*
X012111Y016243D01*
X012181Y016313D01*
X012321Y016313D01*
X012391Y016243D01*
X012391Y016103D01*
X012321Y016033D01*
X012391Y015852D02*
X012111Y015852D01*
X011971Y015712D01*
X012111Y015572D01*
X012391Y015572D01*
X012181Y015572D02*
X012181Y015852D01*
X011971Y016033D02*
X011971Y016313D01*
X012971Y016313D02*
X013041Y016173D01*
X013181Y016033D01*
X013181Y016243D01*
X013251Y016313D01*
X013321Y016313D01*
X013391Y016243D01*
X013391Y016103D01*
X013321Y016033D01*
X013181Y016033D01*
X013181Y015852D02*
X013181Y015572D01*
X013111Y015572D02*
X012971Y015712D01*
X013111Y015852D01*
X013391Y015852D01*
X013971Y015712D02*
X014111Y015852D01*
X014391Y015852D01*
X014391Y016033D02*
X014321Y016033D01*
X014041Y016313D01*
X013971Y016313D01*
X013971Y016033D01*
X014181Y015852D02*
X014181Y015572D01*
X014111Y015572D02*
X013971Y015712D01*
X014111Y015572D02*
X014391Y015572D01*
X013391Y015572D02*
X013111Y015572D01*
X009391Y016033D02*
X009391Y016313D01*
X026971Y016339D02*
X027391Y016620D01*
X026971Y016620D01*
X026971Y016339D02*
X027391Y016339D01*
X027391Y016173D02*
X027391Y016033D01*
X027391Y016103D02*
X026971Y016103D01*
X026971Y016033D02*
X026971Y016173D01*
X026971Y015852D02*
X027251Y015852D01*
X027391Y015712D01*
X027251Y015572D01*
X026971Y015572D01*
X027971Y015572D02*
X028181Y015572D01*
X028111Y015712D01*
X028111Y015782D01*
X028181Y015852D01*
X028321Y015852D01*
X028391Y015782D01*
X028391Y015642D01*
X028321Y015572D01*
X027971Y015572D02*
X027971Y015852D01*
X028971Y015782D02*
X029041Y015852D01*
X029321Y015572D01*
X029391Y015642D01*
X029391Y015782D01*
X029321Y015852D01*
X029041Y015852D01*
X028971Y015782D02*
X028971Y015642D01*
X029041Y015572D01*
X029321Y015572D01*
M02*
