G75*
G70*
%OFA0B0*%
%FSLAX24Y24*%
%IPPOS*%
%LPD*%
%AMOC8*
5,1,8,0,0,1.08239X$1,22.5*
%
%ADD10C,0.0600*%
%ADD11C,0.1064*%
%ADD12C,0.0740*%
%ADD13C,0.0600*%
%ADD14C,0.0680*%
%ADD15R,0.0552X0.0552*%
%ADD16R,0.0710X0.0592*%
%ADD17R,0.0680X0.0680*%
%ADD18OC8,0.0680*%
%ADD19OC8,0.0710*%
%ADD20C,0.0710*%
%ADD21R,0.0671X0.0867*%
%ADD22R,0.1576X0.0867*%
%ADD23R,0.0592X0.0671*%
%ADD24C,0.0555*%
%ADD25C,0.0480*%
D10*
X007181Y005522D02*
X007181Y006042D01*
X008181Y006042D02*
X008181Y005522D01*
X009181Y005522D02*
X009181Y006042D01*
X010181Y006042D02*
X010181Y005522D01*
X011181Y005522D02*
X011181Y006042D01*
X012181Y006042D02*
X012181Y005522D01*
X013181Y005522D02*
X013181Y006042D01*
X014181Y006042D02*
X014181Y005522D01*
X015181Y005522D02*
X015181Y006042D01*
X016181Y006042D02*
X016181Y005522D01*
X017181Y005522D02*
X017181Y006042D01*
X018181Y006042D02*
X018181Y005522D01*
X019181Y005522D02*
X019181Y006042D01*
X020181Y006042D02*
X020181Y005522D01*
X021181Y005522D02*
X021181Y006042D01*
X022181Y006042D02*
X022181Y005522D01*
X023181Y005522D02*
X023181Y006042D01*
X024181Y006042D02*
X024181Y005522D01*
X025181Y005522D02*
X025181Y006042D01*
X026181Y006042D02*
X026181Y005522D01*
X026181Y011522D02*
X026181Y012042D01*
X025181Y012042D02*
X025181Y011522D01*
X024181Y011522D02*
X024181Y012042D01*
X023181Y012042D02*
X023181Y011522D01*
X022181Y011522D02*
X022181Y012042D01*
X021181Y012042D02*
X021181Y011522D01*
X020181Y011522D02*
X020181Y012042D01*
X019181Y012042D02*
X019181Y011522D01*
X018181Y011522D02*
X018181Y012042D01*
X017181Y012042D02*
X017181Y011522D01*
X016181Y011522D02*
X016181Y012042D01*
X015181Y012042D02*
X015181Y011522D01*
X014181Y011522D02*
X014181Y012042D01*
X013181Y012042D02*
X013181Y011522D01*
X012181Y011522D02*
X012181Y012042D01*
X011181Y012042D02*
X011181Y011522D01*
X010181Y011522D02*
X010181Y012042D01*
X009181Y012042D02*
X009181Y011522D01*
X008181Y011522D02*
X008181Y012042D01*
X007181Y012042D02*
X007181Y011522D01*
X023181Y014272D02*
X023181Y014792D01*
X024181Y014792D02*
X024181Y014272D01*
X025181Y014272D02*
X025181Y014792D01*
D11*
X030695Y016885D03*
X030695Y004680D03*
X001168Y004680D03*
X001168Y016885D03*
D12*
X003333Y016885D03*
X004333Y016885D03*
X005333Y016885D03*
X006333Y016885D03*
X007333Y016885D03*
X008333Y016885D03*
X009333Y016885D03*
X010333Y016885D03*
X011333Y016885D03*
X012333Y016885D03*
X013333Y016885D03*
X014333Y016885D03*
X015333Y016885D03*
X016333Y016885D03*
X017333Y016885D03*
X018333Y016885D03*
D13*
X018231Y002282D03*
X020131Y002282D03*
D14*
X022181Y002232D02*
X022181Y002832D01*
X023181Y002832D02*
X023181Y002232D01*
X024181Y002232D02*
X024181Y002832D01*
X025181Y002832D02*
X025181Y002232D01*
X026181Y002232D02*
X026181Y002832D01*
X027181Y002832D02*
X027181Y002232D01*
X028181Y002232D02*
X028181Y002832D01*
X029181Y002832D02*
X029181Y002232D01*
X014181Y002232D02*
X014181Y002832D01*
X013181Y002832D02*
X013181Y002232D01*
X012181Y002232D02*
X012181Y002832D01*
X011181Y002832D02*
X011181Y002232D01*
X010181Y002232D02*
X010181Y002832D01*
X009181Y002832D02*
X009181Y002232D01*
X008181Y002232D02*
X008181Y002832D01*
X007181Y002832D02*
X007181Y002232D01*
X007181Y014232D02*
X007181Y014832D01*
X008181Y014832D02*
X008181Y014232D01*
X009181Y014232D02*
X009181Y014832D01*
X010181Y014832D02*
X010181Y014232D01*
X011181Y014232D02*
X011181Y014832D01*
X012181Y014832D02*
X012181Y014232D01*
X013181Y014232D02*
X013181Y014832D01*
X014181Y014832D02*
X014181Y014232D01*
X027181Y014232D02*
X027181Y014832D01*
X028181Y014832D02*
X028181Y014232D01*
X029181Y014232D02*
X029181Y014832D01*
D15*
X016345Y002532D03*
X015518Y002532D03*
D16*
X014181Y003908D03*
X013181Y003908D03*
X012181Y003908D03*
X012181Y004656D03*
X013181Y004656D03*
X014181Y004656D03*
X012181Y006908D03*
X012181Y007656D03*
X025181Y009908D03*
X025181Y010656D03*
D17*
X004681Y002532D03*
D18*
X002681Y001532D03*
X003681Y001532D03*
X004681Y001532D03*
X003681Y002532D03*
X002681Y002532D03*
D19*
X029181Y016532D03*
D20*
X028181Y016532D03*
D21*
X028526Y009772D03*
X029431Y009772D03*
X030337Y009772D03*
D22*
X029431Y007292D03*
D23*
X029307Y011032D03*
X030055Y011032D03*
D24*
X029839Y011763D03*
X028670Y008148D03*
X017933Y004322D03*
X029626Y001558D03*
D25*
X030264Y001133D03*
X025693Y009211D03*
X026756Y011125D03*
X021760Y009849D03*
X017721Y013251D03*
X018784Y016121D03*
X007516Y010381D03*
X007197Y009849D03*
X006878Y009318D03*
X004965Y005491D03*
X003796Y005066D03*
X004221Y013995D03*
X005709Y014845D03*
X005177Y015164D03*
X006240Y015483D03*
M02*
