%
M48
M72
T01C0.0240
T02C0.0315
T03C0.0320
T04C0.0394
T05C0.0400
T06C0.0984
%
T01
X3796Y5066
X4965Y5491
X6878Y9318
X7197Y9849
X7516Y10381
X4221Y13995
X5709Y14845
X5177Y15164
X6240Y15483
X17721Y13251
X18784Y16121
X26756Y11125
X25693Y9211
X21760Y9849
X30264Y1133
T02
X29626Y1558
X28670Y8148
X29839Y11763
X17933Y4322
T03
X18181Y5782
X19181Y5782
X20181Y5782
X21181Y5782
X22181Y5782
X23181Y5782
X24181Y5782
X25181Y5782
X26181Y5782
X20131Y2282
X18231Y2282
X17181Y5782
X16181Y5782
X15181Y5782
X14181Y5782
X13181Y5782
X12181Y5782
X11181Y5782
X10181Y5782
X9181Y5782
X8181Y5782
X7181Y5782
X7181Y11782
X8181Y11782
X9181Y11782
X10181Y11782
X11181Y11782
X12181Y11782
X13181Y11782
X14181Y11782
X15181Y11782
X16181Y11782
X17181Y11782
X18181Y11782
X19181Y11782
X20181Y11782
X21181Y11782
X22181Y11782
X23181Y11782
X24181Y11782
X25181Y11782
X26181Y11782
X25181Y14532
X24181Y14532
X23181Y14532
X28181Y16532
X29181Y16532
T04
X18333Y16885
X17333Y16885
X16333Y16885
X15333Y16885
X14333Y16885
X13333Y16885
X12333Y16885
X11333Y16885
X10333Y16885
X9333Y16885
X8333Y16885
X7333Y16885
X6333Y16885
X5333Y16885
X4333Y16885
X3333Y16885
T05
X2681Y1532
X3681Y1532
X4681Y1532
X4681Y2532
X3681Y2532
X2681Y2532
X7181Y2532
X8181Y2532
X9181Y2532
X10181Y2532
X11181Y2532
X12181Y2532
X13181Y2532
X14181Y2532
X22181Y2532
X23181Y2532
X24181Y2532
X25181Y2532
X26181Y2532
X27181Y2532
X28181Y2532
X29181Y2532
X29181Y14532
X28181Y14532
X27181Y14532
X14181Y14532
X13181Y14532
X12181Y14532
X11181Y14532
X10181Y14532
X9181Y14532
X8181Y14532
X7181Y14532
T06
X1168Y16885
X1168Y4680
X30695Y4680
X30695Y16885
M30
