G75*
G70*
%OFA0B0*%
%FSLAX24Y24*%
%IPPOS*%
%LPD*%
%AMOC8*
5,1,8,0,0,1.08239X$1,22.5*
%
%ADD10C,0.0520*%
%ADD11C,0.0660*%
%ADD12C,0.0520*%
%ADD13C,0.0600*%
%ADD14R,0.0472X0.0472*%
%ADD15R,0.0630X0.0512*%
%ADD16R,0.0600X0.0600*%
%ADD17OC8,0.0600*%
%ADD18OC8,0.0630*%
%ADD19C,0.0630*%
%ADD20R,0.0591X0.0787*%
%ADD21R,0.1496X0.0787*%
%ADD22R,0.0512X0.0591*%
%ADD23C,0.0315*%
%ADD24C,0.0475*%
%ADD25C,0.0157*%
%ADD26C,0.0400*%
%ADD27C,0.0160*%
D10*
X007181Y005522D02*
X007181Y006042D01*
X008181Y006042D02*
X008181Y005522D01*
X009181Y005522D02*
X009181Y006042D01*
X010181Y006042D02*
X010181Y005522D01*
X011181Y005522D02*
X011181Y006042D01*
X012181Y006042D02*
X012181Y005522D01*
X013181Y005522D02*
X013181Y006042D01*
X014181Y006042D02*
X014181Y005522D01*
X015181Y005522D02*
X015181Y006042D01*
X016181Y006042D02*
X016181Y005522D01*
X017181Y005522D02*
X017181Y006042D01*
X018181Y006042D02*
X018181Y005522D01*
X019181Y005522D02*
X019181Y006042D01*
X020181Y006042D02*
X020181Y005522D01*
X021181Y005522D02*
X021181Y006042D01*
X022181Y006042D02*
X022181Y005522D01*
X023181Y005522D02*
X023181Y006042D01*
X024181Y006042D02*
X024181Y005522D01*
X025181Y005522D02*
X025181Y006042D01*
X026181Y006042D02*
X026181Y005522D01*
X026181Y011522D02*
X026181Y012042D01*
X025181Y012042D02*
X025181Y011522D01*
X024181Y011522D02*
X024181Y012042D01*
X023181Y012042D02*
X023181Y011522D01*
X022181Y011522D02*
X022181Y012042D01*
X021181Y012042D02*
X021181Y011522D01*
X020181Y011522D02*
X020181Y012042D01*
X019181Y012042D02*
X019181Y011522D01*
X018181Y011522D02*
X018181Y012042D01*
X017181Y012042D02*
X017181Y011522D01*
X016181Y011522D02*
X016181Y012042D01*
X015181Y012042D02*
X015181Y011522D01*
X014181Y011522D02*
X014181Y012042D01*
X013181Y012042D02*
X013181Y011522D01*
X012181Y011522D02*
X012181Y012042D01*
X011181Y012042D02*
X011181Y011522D01*
X010181Y011522D02*
X010181Y012042D01*
X009181Y012042D02*
X009181Y011522D01*
X008181Y011522D02*
X008181Y012042D01*
X007181Y012042D02*
X007181Y011522D01*
X023181Y014272D02*
X023181Y014792D01*
X024181Y014792D02*
X024181Y014272D01*
X025181Y014272D02*
X025181Y014792D01*
D11*
X018333Y016885D03*
X017333Y016885D03*
X016333Y016885D03*
X015333Y016885D03*
X014333Y016885D03*
X013333Y016885D03*
X012333Y016885D03*
X011333Y016885D03*
X010333Y016885D03*
X009333Y016885D03*
X008333Y016885D03*
X007333Y016885D03*
X006333Y016885D03*
X005333Y016885D03*
X004333Y016885D03*
X003333Y016885D03*
D12*
X018231Y002282D03*
X020131Y002282D03*
D13*
X022181Y002232D02*
X022181Y002832D01*
X023181Y002832D02*
X023181Y002232D01*
X024181Y002232D02*
X024181Y002832D01*
X025181Y002832D02*
X025181Y002232D01*
X026181Y002232D02*
X026181Y002832D01*
X027181Y002832D02*
X027181Y002232D01*
X028181Y002232D02*
X028181Y002832D01*
X029181Y002832D02*
X029181Y002232D01*
X014181Y002232D02*
X014181Y002832D01*
X013181Y002832D02*
X013181Y002232D01*
X012181Y002232D02*
X012181Y002832D01*
X011181Y002832D02*
X011181Y002232D01*
X010181Y002232D02*
X010181Y002832D01*
X009181Y002832D02*
X009181Y002232D01*
X008181Y002232D02*
X008181Y002832D01*
X007181Y002832D02*
X007181Y002232D01*
X007181Y014232D02*
X007181Y014832D01*
X008181Y014832D02*
X008181Y014232D01*
X009181Y014232D02*
X009181Y014832D01*
X010181Y014832D02*
X010181Y014232D01*
X011181Y014232D02*
X011181Y014832D01*
X012181Y014832D02*
X012181Y014232D01*
X013181Y014232D02*
X013181Y014832D01*
X014181Y014832D02*
X014181Y014232D01*
X027181Y014232D02*
X027181Y014832D01*
X028181Y014832D02*
X028181Y014232D01*
X029181Y014232D02*
X029181Y014832D01*
D14*
X016345Y002532D03*
X015518Y002532D03*
D15*
X014181Y003908D03*
X013181Y003908D03*
X012181Y003908D03*
X012181Y004656D03*
X013181Y004656D03*
X014181Y004656D03*
X012181Y006908D03*
X012181Y007656D03*
X025181Y009908D03*
X025181Y010656D03*
D16*
X004681Y002532D03*
D17*
X003681Y002532D03*
X002681Y002532D03*
X002681Y001532D03*
X003681Y001532D03*
X004681Y001532D03*
D18*
X029181Y016532D03*
D19*
X028181Y016532D03*
D20*
X028526Y009772D03*
X029431Y009772D03*
X030337Y009772D03*
D21*
X029431Y007292D03*
D22*
X029307Y011032D03*
X030055Y011032D03*
D23*
X029945Y011125D01*
X029945Y011656D01*
X029839Y011763D01*
X029201Y011125D02*
X029307Y011032D01*
X029307Y011018D01*
X029414Y010912D01*
X029414Y009849D01*
X029431Y009772D01*
X029520Y009637D01*
X029520Y008148D01*
X028670Y008148D01*
X029520Y008148D02*
X029520Y007298D01*
X029431Y007292D01*
X028032Y005810D02*
X028032Y009211D01*
X028457Y009637D01*
X028526Y009772D01*
X028457Y009849D01*
X028244Y010062D01*
X028244Y014526D01*
X028181Y014532D01*
X028244Y014633D01*
X028244Y016440D01*
X028181Y016532D01*
X029181Y016532D02*
X029201Y016440D01*
X029201Y014633D01*
X029181Y014532D01*
X029201Y014420D01*
X029201Y011125D01*
X030055Y011032D02*
X030158Y011018D01*
X030264Y010912D01*
X030264Y009849D01*
X030337Y009772D01*
X028032Y005810D02*
X029839Y004003D01*
X029839Y001770D01*
X029626Y001558D01*
X017933Y004322D02*
X017189Y005066D01*
X017189Y005703D01*
X017181Y005782D01*
X017189Y005916D01*
X016551Y006554D01*
X016551Y011444D01*
X016233Y011763D01*
X016181Y011782D01*
X016126Y011869D01*
X016126Y013889D01*
X014744Y015270D01*
X014744Y015589D01*
X013575Y015589D01*
X012406Y016759D01*
X012333Y016885D01*
X012300Y016865D01*
X011449Y016865D01*
X011333Y016885D01*
X011237Y016865D01*
X010492Y016865D01*
X010333Y016885D01*
X010280Y016865D01*
X009429Y016865D01*
X009333Y016885D01*
X003333Y016885D02*
X003264Y016865D01*
X003264Y005278D01*
X001989Y004003D01*
X001989Y002196D01*
X002626Y001558D01*
X002681Y001532D01*
D24*
X017933Y004322D03*
X028670Y008148D03*
X029839Y011763D03*
X029626Y001558D03*
D25*
X030264Y001133D02*
X030264Y001026D01*
X017933Y001026D01*
X016445Y002514D01*
X016345Y002532D01*
X015807Y002833D02*
X015807Y005385D01*
X016126Y005703D01*
X016181Y005782D01*
X014213Y005703D02*
X014213Y004747D01*
X014181Y004656D01*
X013256Y004747D02*
X013181Y004656D01*
X013256Y004747D02*
X013256Y005703D01*
X013181Y005782D01*
X012193Y005810D02*
X012181Y005782D01*
X012193Y005703D01*
X012193Y004747D01*
X012181Y004656D01*
X012181Y003908D02*
X012193Y003896D01*
X012193Y002621D01*
X012181Y002532D01*
X011237Y002621D02*
X011181Y002532D01*
X011237Y002621D02*
X011237Y005703D01*
X011181Y005782D01*
X012193Y005810D02*
X012193Y006873D01*
X012181Y006908D01*
X012087Y007617D02*
X012181Y007656D01*
X012087Y007617D02*
X005496Y007617D01*
X005496Y001451D01*
X004965Y000920D01*
X003689Y000920D01*
X003689Y001451D01*
X003681Y001532D01*
X003681Y002532D02*
X003689Y002621D01*
X003689Y004959D01*
X003796Y005066D01*
X004752Y005278D02*
X004752Y002621D01*
X004681Y002532D01*
X007181Y002532D02*
X007197Y002621D01*
X007197Y005703D01*
X007181Y005782D01*
X008154Y005703D02*
X008181Y005782D01*
X008154Y005703D02*
X008154Y002621D01*
X008181Y002532D01*
X009181Y002532D02*
X009217Y002621D01*
X009217Y005703D01*
X009181Y005782D01*
X010174Y005703D02*
X010181Y005782D01*
X010174Y005703D02*
X010174Y002621D01*
X010181Y002532D01*
X013181Y002532D02*
X013256Y002621D01*
X013256Y003896D01*
X013181Y003908D01*
X014181Y003908D02*
X014213Y003896D01*
X014213Y002621D01*
X014181Y002532D01*
X015518Y002532D02*
X015595Y002621D01*
X015807Y002833D01*
X014213Y005703D02*
X014181Y005782D01*
X020181Y005782D02*
X020272Y005703D01*
X020591Y005385D01*
X020591Y004109D01*
X022079Y002621D01*
X022181Y002532D01*
X023142Y002621D02*
X023181Y002532D01*
X023142Y002621D02*
X023142Y003790D01*
X021229Y005703D01*
X021181Y005782D01*
X022181Y005782D02*
X022185Y005703D01*
X024099Y003790D01*
X024099Y002621D01*
X024181Y002532D01*
X025162Y003684D02*
X026118Y002727D01*
X026118Y002621D01*
X026181Y002532D01*
X027181Y002532D02*
X027181Y002727D01*
X025587Y004322D01*
X025587Y005385D01*
X025268Y005703D01*
X025181Y005782D01*
X026181Y005782D02*
X026225Y005703D01*
X028138Y003790D01*
X028138Y002621D01*
X028181Y002532D01*
X029095Y002621D02*
X029181Y002532D01*
X029095Y002621D02*
X029095Y003896D01*
X026225Y006766D01*
X026225Y011763D01*
X026181Y011782D01*
X026756Y011125D02*
X026756Y012613D01*
X025055Y012613D01*
X023567Y014101D01*
X023567Y014207D01*
X023248Y014526D01*
X023181Y014532D01*
X018784Y016121D02*
X018784Y012188D01*
X019103Y011869D01*
X019181Y011782D01*
X018252Y011869D02*
X018181Y011782D01*
X018252Y011869D02*
X018252Y014951D01*
X016339Y016865D01*
X016333Y016885D01*
X014426Y016865D02*
X014426Y016546D01*
X017721Y013251D01*
X014213Y014526D02*
X014213Y011869D01*
X014181Y011782D01*
X013181Y011782D02*
X013150Y011869D01*
X013150Y014526D01*
X013181Y014532D01*
X012193Y014526D02*
X012181Y014532D01*
X012193Y014526D02*
X012193Y011869D01*
X012181Y011782D01*
X011237Y011869D02*
X011181Y011782D01*
X011237Y011869D02*
X011237Y014526D01*
X011181Y014532D01*
X010181Y014532D02*
X010174Y014526D01*
X010174Y011869D01*
X010181Y011782D01*
X009217Y011869D02*
X009181Y011782D01*
X009217Y011869D02*
X009217Y014526D01*
X009181Y014532D01*
X008181Y014532D02*
X008154Y014526D01*
X008154Y011869D01*
X008181Y011782D01*
X007197Y011869D02*
X007181Y011782D01*
X007197Y011869D02*
X007197Y014526D01*
X007181Y014532D01*
X006559Y015058D02*
X008260Y016759D01*
X008260Y016865D01*
X008333Y016885D01*
X006333Y016885D02*
X006240Y016865D01*
X006240Y015483D01*
X006559Y015058D02*
X006559Y011337D01*
X007516Y010381D01*
X007197Y009849D02*
X005177Y011869D01*
X005177Y015164D01*
X005709Y014845D02*
X005709Y016546D01*
X005390Y016865D01*
X005333Y016885D01*
X004333Y016885D02*
X004327Y016865D01*
X004327Y014101D01*
X004221Y013995D01*
X004327Y013995D01*
X004327Y011869D01*
X006878Y009318D01*
X004965Y005491D02*
X004752Y005278D01*
X014181Y014532D02*
X014213Y014526D01*
X014426Y016865D02*
X014333Y016885D01*
X021760Y011444D02*
X022079Y011763D01*
X022181Y011782D01*
X021760Y011444D02*
X021760Y009849D01*
X025181Y009908D02*
X025268Y009849D01*
X025268Y009637D01*
X025693Y009211D01*
X025181Y010656D02*
X025268Y010700D01*
X025268Y011763D01*
X025181Y011782D01*
X024181Y005782D02*
X024205Y005703D01*
X025162Y004747D01*
X025162Y003684D01*
D26*
X030264Y001133D03*
X025693Y009211D03*
X026756Y011125D03*
X021760Y009849D03*
X017721Y013251D03*
X018784Y016121D03*
X007516Y010381D03*
X007197Y009849D03*
X006878Y009318D03*
X004965Y005491D03*
X003796Y005066D03*
X004221Y013995D03*
X005709Y014845D03*
X005177Y015164D03*
X006240Y015483D03*
D27*
X003242Y000762D02*
X000661Y000762D01*
X000661Y003837D01*
X000974Y003708D01*
X001361Y003708D01*
X001436Y003739D01*
X001436Y002086D01*
X001520Y001883D01*
X001676Y001727D01*
X001986Y001416D01*
X001986Y001244D01*
X002394Y000837D01*
X002969Y000837D01*
X003181Y001049D01*
X003216Y001015D01*
X003216Y000826D01*
X003242Y000762D01*
X003216Y000916D02*
X003048Y000916D01*
X002314Y000916D02*
X000661Y000916D01*
X000661Y001075D02*
X002156Y001075D01*
X001997Y001233D02*
X000661Y001233D01*
X000661Y001392D02*
X001986Y001392D01*
X001852Y001551D02*
X000661Y001551D01*
X000661Y001709D02*
X001694Y001709D01*
X001535Y001868D02*
X000661Y001868D01*
X000661Y002026D02*
X001461Y002026D01*
X001436Y002185D02*
X000661Y002185D01*
X000661Y002343D02*
X001436Y002343D01*
X001436Y002502D02*
X000661Y002502D01*
X000661Y002660D02*
X001436Y002660D01*
X001436Y002819D02*
X000661Y002819D01*
X000661Y002977D02*
X001436Y002977D01*
X001436Y003136D02*
X000661Y003136D01*
X000661Y003295D02*
X001436Y003295D01*
X001436Y003453D02*
X000661Y003453D01*
X000661Y003612D02*
X001436Y003612D01*
X000824Y003770D02*
X000661Y003770D01*
X002541Y003774D02*
X002541Y003227D01*
X002969Y003227D01*
X003181Y003015D01*
X003216Y003049D01*
X003216Y004449D01*
X002541Y003774D01*
X002541Y003770D02*
X003216Y003770D01*
X003216Y003612D02*
X002541Y003612D01*
X002541Y003453D02*
X003216Y003453D01*
X003216Y003295D02*
X002541Y003295D01*
X003060Y003136D02*
X003216Y003136D01*
X004163Y003169D02*
X004163Y004592D01*
X004279Y004707D01*
X004279Y003217D01*
X004163Y003169D01*
X004163Y003295D02*
X004279Y003295D01*
X004279Y003453D02*
X004163Y003453D01*
X004163Y003612D02*
X004279Y003612D01*
X004279Y003770D02*
X004163Y003770D01*
X004163Y003929D02*
X004279Y003929D01*
X004279Y004087D02*
X004163Y004087D01*
X004163Y004246D02*
X004279Y004246D01*
X004279Y004404D02*
X004163Y004404D01*
X004163Y004563D02*
X004279Y004563D01*
X003216Y004404D02*
X003171Y004404D01*
X003216Y004246D02*
X003013Y004246D01*
X002854Y004087D02*
X003216Y004087D01*
X003216Y003929D02*
X002696Y003929D01*
X002122Y004917D02*
X002712Y005507D01*
X002712Y016490D01*
X002608Y016740D01*
X002608Y017029D01*
X002718Y017295D01*
X002725Y017302D01*
X002047Y017302D01*
X002140Y017078D01*
X002140Y016691D01*
X001992Y016334D01*
X001718Y016060D01*
X001361Y015912D01*
X000974Y015912D01*
X000661Y016042D01*
X000661Y005522D01*
X000974Y005652D01*
X001361Y005652D01*
X001718Y005504D01*
X001992Y005230D01*
X002122Y004917D01*
X002071Y005039D02*
X002243Y005039D01*
X002402Y005197D02*
X002006Y005197D01*
X001867Y005356D02*
X002560Y005356D01*
X002712Y005514D02*
X001694Y005514D01*
X002712Y005673D02*
X000661Y005673D01*
X000661Y005831D02*
X002712Y005831D01*
X002712Y005990D02*
X000661Y005990D01*
X000661Y006148D02*
X002712Y006148D01*
X002712Y006307D02*
X000661Y006307D01*
X000661Y006465D02*
X002712Y006465D01*
X002712Y006624D02*
X000661Y006624D01*
X000661Y006782D02*
X002712Y006782D01*
X002712Y006941D02*
X000661Y006941D01*
X000661Y007100D02*
X002712Y007100D01*
X002712Y007258D02*
X000661Y007258D01*
X000661Y007417D02*
X002712Y007417D01*
X002712Y007575D02*
X000661Y007575D01*
X000661Y007734D02*
X002712Y007734D01*
X002712Y007892D02*
X000661Y007892D01*
X000661Y008051D02*
X002712Y008051D01*
X002712Y008209D02*
X000661Y008209D01*
X000661Y008368D02*
X002712Y008368D01*
X002712Y008526D02*
X000661Y008526D01*
X000661Y008685D02*
X002712Y008685D01*
X002712Y008844D02*
X000661Y008844D01*
X000661Y009002D02*
X002712Y009002D01*
X002712Y009161D02*
X000661Y009161D01*
X000661Y009319D02*
X002712Y009319D01*
X002712Y009478D02*
X000661Y009478D01*
X000661Y009636D02*
X002712Y009636D01*
X002712Y009795D02*
X000661Y009795D01*
X000661Y009953D02*
X002712Y009953D01*
X002712Y010112D02*
X000661Y010112D01*
X000661Y010270D02*
X002712Y010270D01*
X002712Y010429D02*
X000661Y010429D01*
X000661Y010588D02*
X002712Y010588D01*
X002712Y010746D02*
X000661Y010746D01*
X000661Y010905D02*
X002712Y010905D01*
X002712Y011063D02*
X000661Y011063D01*
X000661Y011222D02*
X002712Y011222D01*
X002712Y011380D02*
X000661Y011380D01*
X000661Y011539D02*
X002712Y011539D01*
X002712Y011697D02*
X000661Y011697D01*
X000661Y011856D02*
X002712Y011856D01*
X002712Y012014D02*
X000661Y012014D01*
X000661Y012173D02*
X002712Y012173D01*
X002712Y012331D02*
X000661Y012331D01*
X000661Y012490D02*
X002712Y012490D01*
X002712Y012649D02*
X000661Y012649D01*
X000661Y012807D02*
X002712Y012807D01*
X002712Y012966D02*
X000661Y012966D01*
X000661Y013124D02*
X002712Y013124D01*
X002712Y013283D02*
X000661Y013283D01*
X000661Y013441D02*
X002712Y013441D01*
X002712Y013600D02*
X000661Y013600D01*
X000661Y013758D02*
X002712Y013758D01*
X002712Y013917D02*
X000661Y013917D01*
X000661Y014075D02*
X002712Y014075D01*
X002712Y014234D02*
X000661Y014234D01*
X000661Y014393D02*
X002712Y014393D01*
X002712Y014551D02*
X000661Y014551D01*
X000661Y014710D02*
X002712Y014710D01*
X002712Y014868D02*
X000661Y014868D01*
X000661Y015027D02*
X002712Y015027D01*
X002712Y015185D02*
X000661Y015185D01*
X000661Y015344D02*
X002712Y015344D01*
X002712Y015502D02*
X000661Y015502D01*
X000661Y015661D02*
X002712Y015661D01*
X002712Y015819D02*
X000661Y015819D01*
X000661Y015978D02*
X000816Y015978D01*
X001519Y015978D02*
X002712Y015978D01*
X002712Y016137D02*
X001794Y016137D01*
X001953Y016295D02*
X002712Y016295D01*
X002712Y016454D02*
X002041Y016454D01*
X002107Y016612D02*
X002661Y016612D01*
X002608Y016771D02*
X002140Y016771D01*
X002140Y016929D02*
X002608Y016929D01*
X002632Y017088D02*
X002136Y017088D01*
X002070Y017246D02*
X002698Y017246D01*
X003816Y016343D02*
X003833Y016359D01*
X003853Y016339D01*
X003853Y014469D01*
X003816Y014432D01*
X003816Y016343D01*
X003816Y016295D02*
X003853Y016295D01*
X003853Y016137D02*
X003816Y016137D01*
X003816Y015978D02*
X003853Y015978D01*
X003853Y015819D02*
X003816Y015819D01*
X003816Y015661D02*
X003853Y015661D01*
X003853Y015502D02*
X003816Y015502D01*
X003816Y015344D02*
X003853Y015344D01*
X003853Y015185D02*
X003816Y015185D01*
X003816Y015027D02*
X003853Y015027D01*
X003853Y014868D02*
X003816Y014868D01*
X003816Y014710D02*
X003853Y014710D01*
X003853Y014551D02*
X003816Y014551D01*
X003816Y013558D02*
X003853Y013521D01*
X003853Y011775D01*
X003926Y011600D01*
X004059Y011467D01*
X006283Y009243D01*
X006283Y009199D01*
X006374Y008981D01*
X006541Y008813D01*
X006760Y008723D01*
X006997Y008723D01*
X007215Y008813D01*
X007383Y008981D01*
X007473Y009199D01*
X007473Y009320D01*
X007534Y009345D01*
X007701Y009512D01*
X007792Y009731D01*
X007792Y009851D01*
X007853Y009876D01*
X008020Y010044D01*
X008111Y010262D01*
X008111Y010499D01*
X008020Y010718D01*
X007853Y010885D01*
X007634Y010976D01*
X007591Y010976D01*
X007576Y010991D01*
X007681Y011096D01*
X007810Y010967D01*
X008051Y010867D01*
X008312Y010867D01*
X008552Y010967D01*
X008681Y011096D01*
X008810Y010967D01*
X009051Y010867D01*
X009312Y010867D01*
X009552Y010967D01*
X009681Y011096D01*
X009810Y010967D01*
X010051Y010867D01*
X010312Y010867D01*
X010552Y010967D01*
X010681Y011096D01*
X010810Y010967D01*
X011051Y010867D01*
X011312Y010867D01*
X011552Y010967D01*
X011681Y011096D01*
X011810Y010967D01*
X012051Y010867D01*
X012312Y010867D01*
X012552Y010967D01*
X012681Y011096D01*
X012810Y010967D01*
X013051Y010867D01*
X013312Y010867D01*
X013552Y010967D01*
X013681Y011096D01*
X013810Y010967D01*
X014051Y010867D01*
X014312Y010867D01*
X014552Y010967D01*
X014681Y011096D01*
X014810Y010967D01*
X015051Y010867D01*
X015312Y010867D01*
X015552Y010967D01*
X015681Y011096D01*
X015810Y010967D01*
X015999Y010889D01*
X015999Y006676D01*
X015810Y006597D01*
X015681Y006468D01*
X015552Y006597D01*
X015312Y006697D01*
X015051Y006697D01*
X014810Y006597D01*
X014681Y006468D01*
X014552Y006597D01*
X014312Y006697D01*
X014051Y006697D01*
X013810Y006597D01*
X013681Y006468D01*
X013552Y006597D01*
X013312Y006697D01*
X013051Y006697D01*
X012891Y006631D01*
X012891Y007243D01*
X012875Y007282D01*
X012891Y007322D01*
X012891Y007991D01*
X012831Y008136D01*
X012720Y008247D01*
X012575Y008307D01*
X011788Y008307D01*
X011643Y008247D01*
X011532Y008136D01*
X011513Y008091D01*
X005591Y008091D01*
X005402Y008091D01*
X005228Y008018D01*
X005095Y007885D01*
X005023Y007711D01*
X005023Y006086D01*
X004846Y006086D01*
X004628Y005995D01*
X004461Y005828D01*
X004370Y005609D01*
X004370Y005566D01*
X004351Y005547D01*
X004294Y005409D01*
X004133Y005570D01*
X003914Y005661D01*
X003816Y005661D01*
X003816Y013558D01*
X003816Y013441D02*
X003853Y013441D01*
X003853Y013283D02*
X003816Y013283D01*
X003816Y013124D02*
X003853Y013124D01*
X003853Y012966D02*
X003816Y012966D01*
X003816Y012807D02*
X003853Y012807D01*
X003853Y012649D02*
X003816Y012649D01*
X003816Y012490D02*
X003853Y012490D01*
X003853Y012331D02*
X003816Y012331D01*
X003816Y012173D02*
X003853Y012173D01*
X003853Y012014D02*
X003816Y012014D01*
X003816Y011856D02*
X003853Y011856D01*
X003885Y011697D02*
X003816Y011697D01*
X003816Y011539D02*
X003987Y011539D01*
X004146Y011380D02*
X003816Y011380D01*
X003816Y011222D02*
X004304Y011222D01*
X004463Y011063D02*
X003816Y011063D01*
X003816Y010905D02*
X004621Y010905D01*
X004780Y010746D02*
X003816Y010746D01*
X003816Y010588D02*
X004938Y010588D01*
X005097Y010429D02*
X003816Y010429D01*
X003816Y010270D02*
X005256Y010270D01*
X005414Y010112D02*
X003816Y010112D01*
X003816Y009953D02*
X005573Y009953D01*
X005731Y009795D02*
X003816Y009795D01*
X003816Y009636D02*
X005890Y009636D01*
X006048Y009478D02*
X003816Y009478D01*
X003816Y009319D02*
X006207Y009319D01*
X006299Y009161D02*
X003816Y009161D01*
X003816Y009002D02*
X006365Y009002D01*
X006511Y008844D02*
X003816Y008844D01*
X003816Y008685D02*
X015999Y008685D01*
X015999Y008526D02*
X003816Y008526D01*
X003816Y008368D02*
X015999Y008368D01*
X015999Y008209D02*
X012758Y008209D01*
X012866Y008051D02*
X015999Y008051D01*
X015999Y007892D02*
X012891Y007892D01*
X012891Y007734D02*
X015999Y007734D01*
X015999Y007575D02*
X012891Y007575D01*
X012891Y007417D02*
X015999Y007417D01*
X015999Y007258D02*
X012885Y007258D01*
X012891Y007100D02*
X015999Y007100D01*
X015999Y006941D02*
X012891Y006941D01*
X012891Y006782D02*
X015999Y006782D01*
X015874Y006624D02*
X015488Y006624D01*
X014874Y006624D02*
X014488Y006624D01*
X013874Y006624D02*
X013488Y006624D01*
X011471Y006631D02*
X011312Y006697D01*
X011051Y006697D01*
X010810Y006597D01*
X010681Y006468D01*
X010552Y006597D01*
X010312Y006697D01*
X010051Y006697D01*
X009810Y006597D01*
X009681Y006468D01*
X009552Y006597D01*
X009312Y006697D01*
X009051Y006697D01*
X008810Y006597D01*
X008681Y006468D01*
X008552Y006597D01*
X008312Y006697D01*
X008051Y006697D01*
X007810Y006597D01*
X007681Y006468D01*
X007552Y006597D01*
X007312Y006697D01*
X007051Y006697D01*
X006810Y006597D01*
X006626Y006413D01*
X006526Y006172D01*
X006526Y005392D01*
X006626Y005151D01*
X006723Y005054D01*
X006723Y003357D01*
X006592Y003226D01*
X006486Y002970D01*
X006486Y002094D01*
X006592Y001839D01*
X006788Y001643D01*
X007043Y001537D01*
X007320Y001537D01*
X007575Y001643D01*
X007681Y001749D01*
X007788Y001643D01*
X008043Y001537D01*
X008320Y001537D01*
X008575Y001643D01*
X008681Y001749D01*
X008788Y001643D01*
X009043Y001537D01*
X009320Y001537D01*
X009575Y001643D01*
X009681Y001749D01*
X009788Y001643D01*
X010043Y001537D01*
X010320Y001537D01*
X010575Y001643D01*
X010681Y001749D01*
X010788Y001643D01*
X011043Y001537D01*
X011320Y001537D01*
X011575Y001643D01*
X011681Y001749D01*
X011788Y001643D01*
X012043Y001537D01*
X012320Y001537D01*
X012575Y001643D01*
X012681Y001749D01*
X012788Y001643D01*
X013043Y001537D01*
X013320Y001537D01*
X013575Y001643D01*
X013681Y001749D01*
X013788Y001643D01*
X014043Y001537D01*
X014320Y001537D01*
X014575Y001643D01*
X014771Y001839D01*
X014876Y002094D01*
X014876Y002970D01*
X014771Y003226D01*
X014691Y003305D01*
X014720Y003317D01*
X014831Y003429D01*
X014891Y003574D01*
X014891Y004243D01*
X014875Y004282D01*
X014891Y004322D01*
X014891Y004933D01*
X015051Y004867D01*
X015312Y004867D01*
X015334Y004876D01*
X015334Y003163D01*
X015203Y003163D01*
X015058Y003103D01*
X014947Y002992D01*
X014887Y002847D01*
X014887Y002217D01*
X014947Y002072D01*
X015058Y001961D01*
X015203Y001901D01*
X015833Y001901D01*
X015931Y001942D01*
X016030Y001901D01*
X016389Y001901D01*
X017528Y000762D01*
X005477Y000762D01*
X005898Y001183D01*
X005970Y001357D01*
X005970Y001546D01*
X005970Y007143D01*
X011471Y007143D01*
X011471Y006631D01*
X011471Y006782D02*
X005970Y006782D01*
X005970Y006624D02*
X006874Y006624D01*
X006678Y006465D02*
X005970Y006465D01*
X005970Y006307D02*
X006582Y006307D01*
X006526Y006148D02*
X005970Y006148D01*
X005970Y005990D02*
X006526Y005990D01*
X006526Y005831D02*
X005970Y005831D01*
X005970Y005673D02*
X006526Y005673D01*
X006526Y005514D02*
X005970Y005514D01*
X005970Y005356D02*
X006541Y005356D01*
X006607Y005197D02*
X005970Y005197D01*
X005970Y005039D02*
X006723Y005039D01*
X006723Y004880D02*
X005970Y004880D01*
X005970Y004721D02*
X006723Y004721D01*
X006723Y004563D02*
X005970Y004563D01*
X005970Y004404D02*
X006723Y004404D01*
X006723Y004246D02*
X005970Y004246D01*
X005970Y004087D02*
X006723Y004087D01*
X006723Y003929D02*
X005970Y003929D01*
X005970Y003770D02*
X006723Y003770D01*
X006723Y003612D02*
X005970Y003612D01*
X005970Y003453D02*
X006723Y003453D01*
X006661Y003295D02*
X005970Y003295D01*
X005970Y003136D02*
X006555Y003136D01*
X006489Y002977D02*
X005970Y002977D01*
X005970Y002819D02*
X006486Y002819D01*
X006486Y002660D02*
X005970Y002660D01*
X005970Y002502D02*
X006486Y002502D01*
X006486Y002343D02*
X005970Y002343D01*
X005970Y002185D02*
X006486Y002185D01*
X006514Y002026D02*
X005970Y002026D01*
X005970Y001868D02*
X006580Y001868D01*
X006722Y001709D02*
X005970Y001709D01*
X005970Y001551D02*
X007011Y001551D01*
X007352Y001551D02*
X008011Y001551D01*
X007722Y001709D02*
X007641Y001709D01*
X008352Y001551D02*
X009011Y001551D01*
X008722Y001709D02*
X008641Y001709D01*
X009352Y001551D02*
X010011Y001551D01*
X009722Y001709D02*
X009641Y001709D01*
X010352Y001551D02*
X011011Y001551D01*
X010722Y001709D02*
X010641Y001709D01*
X011352Y001551D02*
X012011Y001551D01*
X011722Y001709D02*
X011641Y001709D01*
X012352Y001551D02*
X013011Y001551D01*
X012722Y001709D02*
X012641Y001709D01*
X013352Y001551D02*
X014011Y001551D01*
X013722Y001709D02*
X013641Y001709D01*
X014352Y001551D02*
X016739Y001551D01*
X016581Y001709D02*
X014641Y001709D01*
X014783Y001868D02*
X016422Y001868D01*
X016898Y001392D02*
X005970Y001392D01*
X005919Y001233D02*
X017056Y001233D01*
X017215Y001075D02*
X005790Y001075D01*
X005631Y000916D02*
X017373Y000916D01*
X017992Y001637D02*
X018130Y001500D01*
X028994Y001500D01*
X028994Y001558D01*
X028788Y001643D01*
X028681Y001749D01*
X028575Y001643D01*
X028320Y001537D01*
X028043Y001537D01*
X027788Y001643D01*
X027681Y001749D01*
X027575Y001643D01*
X027320Y001537D01*
X027043Y001537D01*
X026788Y001643D01*
X026681Y001749D01*
X026575Y001643D01*
X026320Y001537D01*
X026043Y001537D01*
X025788Y001643D01*
X025681Y001749D01*
X025575Y001643D01*
X025320Y001537D01*
X025043Y001537D01*
X024788Y001643D01*
X024681Y001749D01*
X024575Y001643D01*
X024320Y001537D01*
X024043Y001537D01*
X023788Y001643D01*
X023681Y001749D01*
X023575Y001643D01*
X023320Y001537D01*
X023043Y001537D01*
X022788Y001643D01*
X022681Y001749D01*
X022575Y001643D01*
X022320Y001537D01*
X022043Y001537D01*
X021788Y001643D01*
X021592Y001839D01*
X021486Y002094D01*
X021486Y002543D01*
X020189Y003841D01*
X020117Y004015D01*
X020117Y004203D01*
X020117Y004867D01*
X020051Y004867D01*
X019810Y004967D01*
X019743Y005035D01*
X019655Y004947D01*
X019510Y004887D01*
X019360Y004887D01*
X019312Y004867D01*
X019051Y004867D01*
X019003Y004887D01*
X018360Y004887D01*
X018312Y004867D01*
X018269Y004867D01*
X018292Y004858D01*
X018470Y004680D01*
X018566Y004447D01*
X018566Y004196D01*
X018470Y003963D01*
X018292Y003785D01*
X018059Y003689D01*
X017808Y003689D01*
X017575Y003785D01*
X017397Y003963D01*
X017317Y004156D01*
X016876Y004597D01*
X016721Y004753D01*
X016637Y004956D01*
X016637Y005051D01*
X016552Y004967D01*
X016312Y004867D01*
X016281Y004867D01*
X016281Y003163D01*
X016660Y003163D01*
X016805Y003103D01*
X016916Y002992D01*
X016976Y002847D01*
X016976Y002654D01*
X017286Y002343D01*
X017286Y002343D01*
X017286Y002611D01*
X017347Y002756D01*
X017458Y002867D01*
X017603Y002927D01*
X018077Y002927D01*
X018101Y002937D01*
X018362Y002937D01*
X018386Y002927D01*
X019977Y002927D01*
X020001Y002937D01*
X020262Y002937D01*
X020502Y002837D01*
X020687Y002653D01*
X020786Y002412D01*
X020786Y002152D01*
X020687Y001911D01*
X020502Y001727D01*
X020262Y001627D01*
X020001Y001627D01*
X019977Y001637D01*
X018386Y001637D01*
X018362Y001627D01*
X018101Y001627D01*
X018077Y001637D01*
X017992Y001637D01*
X018079Y001551D02*
X022011Y001551D01*
X021722Y001709D02*
X020459Y001709D01*
X020643Y001868D02*
X021580Y001868D01*
X021514Y002026D02*
X020734Y002026D01*
X020786Y002185D02*
X021486Y002185D01*
X021486Y002343D02*
X020786Y002343D01*
X020749Y002502D02*
X021486Y002502D01*
X021370Y002660D02*
X020679Y002660D01*
X020521Y002819D02*
X021211Y002819D01*
X021052Y002977D02*
X016922Y002977D01*
X016976Y002819D02*
X017410Y002819D01*
X017307Y002660D02*
X016976Y002660D01*
X017128Y002502D02*
X017286Y002502D01*
X016726Y003136D02*
X020894Y003136D01*
X020735Y003295D02*
X016281Y003295D01*
X016281Y003453D02*
X020577Y003453D01*
X020418Y003612D02*
X016281Y003612D01*
X016281Y003770D02*
X017612Y003770D01*
X017432Y003929D02*
X016281Y003929D01*
X016281Y004087D02*
X017346Y004087D01*
X017228Y004246D02*
X016281Y004246D01*
X016281Y004404D02*
X017069Y004404D01*
X016911Y004563D02*
X016281Y004563D01*
X016281Y004721D02*
X016752Y004721D01*
X016668Y004880D02*
X016342Y004880D01*
X016624Y005039D02*
X016637Y005039D01*
X015334Y004721D02*
X014891Y004721D01*
X014891Y004563D02*
X015334Y004563D01*
X015334Y004404D02*
X014891Y004404D01*
X014890Y004246D02*
X015334Y004246D01*
X015334Y004087D02*
X014891Y004087D01*
X014891Y003929D02*
X015334Y003929D01*
X015334Y003770D02*
X014891Y003770D01*
X014891Y003612D02*
X015334Y003612D01*
X015334Y003453D02*
X014841Y003453D01*
X014702Y003295D02*
X015334Y003295D01*
X015137Y003136D02*
X014808Y003136D01*
X014873Y002977D02*
X014941Y002977D01*
X014887Y002819D02*
X014876Y002819D01*
X014876Y002660D02*
X014887Y002660D01*
X014876Y002502D02*
X014887Y002502D01*
X014876Y002343D02*
X014887Y002343D01*
X014876Y002185D02*
X014900Y002185D01*
X014848Y002026D02*
X014993Y002026D01*
X018255Y003770D02*
X020260Y003770D01*
X020153Y003929D02*
X018435Y003929D01*
X018521Y004087D02*
X020117Y004087D01*
X020117Y004246D02*
X018566Y004246D01*
X018566Y004404D02*
X020117Y004404D01*
X020117Y004563D02*
X018518Y004563D01*
X018428Y004721D02*
X020117Y004721D01*
X020020Y004880D02*
X019342Y004880D01*
X019020Y004880D02*
X018342Y004880D01*
X017620Y006530D02*
X017552Y006597D01*
X017312Y006697D01*
X017189Y006697D01*
X017104Y006783D01*
X017104Y010867D01*
X017312Y010867D01*
X017552Y010967D01*
X017681Y011096D01*
X017810Y010967D01*
X018051Y010867D01*
X018312Y010867D01*
X018552Y010967D01*
X018681Y011096D01*
X018810Y010967D01*
X019051Y010867D01*
X019312Y010867D01*
X019552Y010967D01*
X019681Y011096D01*
X019810Y010967D01*
X020051Y010867D01*
X020312Y010867D01*
X020552Y010967D01*
X020681Y011096D01*
X020810Y010967D01*
X021051Y010867D01*
X021286Y010867D01*
X021286Y010217D01*
X021256Y010186D01*
X021165Y009967D01*
X021165Y009731D01*
X021256Y009512D01*
X021423Y009345D01*
X021642Y009254D01*
X021879Y009254D01*
X022097Y009345D01*
X022264Y009512D01*
X022355Y009731D01*
X022355Y009967D01*
X022264Y010186D01*
X022234Y010217D01*
X022234Y010867D01*
X022312Y010867D01*
X022552Y010967D01*
X022681Y011096D01*
X022810Y010967D01*
X023051Y010867D01*
X023312Y010867D01*
X023552Y010967D01*
X023681Y011096D01*
X023810Y010967D01*
X024051Y010867D01*
X024312Y010867D01*
X024471Y010933D01*
X024471Y010322D01*
X024488Y010282D01*
X024471Y010243D01*
X024471Y009574D01*
X024532Y009429D01*
X024643Y009317D01*
X024788Y009257D01*
X024977Y009257D01*
X025000Y009235D01*
X025098Y009136D01*
X025098Y009093D01*
X025189Y008874D01*
X025356Y008707D01*
X025575Y008616D01*
X025751Y008616D01*
X025751Y006861D01*
X025751Y006672D01*
X025790Y006577D01*
X025681Y006468D01*
X025552Y006597D01*
X025312Y006697D01*
X025051Y006697D01*
X024810Y006597D01*
X024681Y006468D01*
X024552Y006597D01*
X024312Y006697D01*
X024051Y006697D01*
X023810Y006597D01*
X023681Y006468D01*
X023552Y006597D01*
X023312Y006697D01*
X023051Y006697D01*
X022810Y006597D01*
X022681Y006468D01*
X022552Y006597D01*
X022312Y006697D01*
X022051Y006697D01*
X021810Y006597D01*
X021681Y006468D01*
X021552Y006597D01*
X021312Y006697D01*
X021051Y006697D01*
X020810Y006597D01*
X020681Y006468D01*
X020552Y006597D01*
X020312Y006697D01*
X020051Y006697D01*
X019810Y006597D01*
X019743Y006530D01*
X019655Y006617D01*
X019510Y006677D01*
X019360Y006677D01*
X019312Y006697D01*
X019051Y006697D01*
X019003Y006677D01*
X018360Y006677D01*
X018312Y006697D01*
X018051Y006697D01*
X018003Y006677D01*
X017853Y006677D01*
X017708Y006617D01*
X017620Y006530D01*
X017724Y006624D02*
X017488Y006624D01*
X017104Y006782D02*
X025751Y006782D01*
X025751Y006941D02*
X017104Y006941D01*
X017104Y007100D02*
X025751Y007100D01*
X025751Y007258D02*
X017104Y007258D01*
X017104Y007417D02*
X025751Y007417D01*
X025751Y007575D02*
X017104Y007575D01*
X017104Y007734D02*
X025751Y007734D01*
X025751Y007892D02*
X017104Y007892D01*
X017104Y008051D02*
X025751Y008051D01*
X025751Y008209D02*
X017104Y008209D01*
X017104Y008368D02*
X025751Y008368D01*
X025751Y008526D02*
X017104Y008526D01*
X017104Y008685D02*
X025409Y008685D01*
X025220Y008844D02*
X017104Y008844D01*
X017104Y009002D02*
X025136Y009002D01*
X025074Y009161D02*
X017104Y009161D01*
X017104Y009319D02*
X021485Y009319D01*
X021290Y009478D02*
X017104Y009478D01*
X017104Y009636D02*
X021204Y009636D01*
X021165Y009795D02*
X017104Y009795D01*
X017104Y009953D02*
X021165Y009953D01*
X021225Y010112D02*
X017104Y010112D01*
X017104Y010270D02*
X021286Y010270D01*
X021286Y010429D02*
X017104Y010429D01*
X017104Y010588D02*
X021286Y010588D01*
X021286Y010746D02*
X017104Y010746D01*
X017402Y010905D02*
X017961Y010905D01*
X017714Y011063D02*
X017649Y011063D01*
X018402Y010905D02*
X018961Y010905D01*
X018714Y011063D02*
X018649Y011063D01*
X019402Y010905D02*
X019961Y010905D01*
X019714Y011063D02*
X019649Y011063D01*
X020402Y010905D02*
X020961Y010905D01*
X020714Y011063D02*
X020649Y011063D01*
X022234Y010746D02*
X024471Y010746D01*
X024471Y010588D02*
X022234Y010588D01*
X022234Y010429D02*
X024471Y010429D01*
X024483Y010270D02*
X022234Y010270D01*
X022295Y010112D02*
X024471Y010112D01*
X024471Y009953D02*
X022355Y009953D01*
X022355Y009795D02*
X024471Y009795D01*
X024471Y009636D02*
X022316Y009636D01*
X022230Y009478D02*
X024511Y009478D01*
X024641Y009319D02*
X022035Y009319D01*
X022402Y010905D02*
X022961Y010905D01*
X022714Y011063D02*
X022649Y011063D01*
X023402Y010905D02*
X023961Y010905D01*
X023714Y011063D02*
X023649Y011063D01*
X024402Y010905D02*
X024471Y010905D01*
X026698Y010530D02*
X026698Y006963D01*
X027479Y006182D01*
X027479Y009101D01*
X027479Y009321D01*
X027563Y009524D01*
X027782Y009743D01*
X027776Y009749D01*
X027692Y009952D01*
X027692Y013739D01*
X027681Y013749D01*
X027575Y013643D01*
X027320Y013537D01*
X027043Y013537D01*
X026788Y013643D01*
X026592Y013839D01*
X026486Y014094D01*
X026486Y014970D01*
X026592Y015226D01*
X026788Y015421D01*
X027043Y015527D01*
X027320Y015527D01*
X027575Y015421D01*
X027681Y015315D01*
X027692Y015326D01*
X027692Y016018D01*
X027580Y016130D01*
X027471Y016391D01*
X027471Y016673D01*
X027580Y016934D01*
X027779Y017134D01*
X028040Y017242D01*
X028323Y017242D01*
X028584Y017134D01*
X028681Y017036D01*
X028887Y017242D01*
X029475Y017242D01*
X029723Y016994D01*
X029723Y017078D01*
X029816Y017302D01*
X018941Y017302D01*
X018948Y017295D01*
X019058Y017029D01*
X019058Y016740D01*
X019026Y016664D01*
X019121Y016625D01*
X019288Y016458D01*
X019379Y016239D01*
X019379Y016002D01*
X019288Y015784D01*
X019257Y015753D01*
X019257Y012697D01*
X019312Y012697D01*
X019552Y012597D01*
X019681Y012468D01*
X019810Y012597D01*
X020051Y012697D01*
X020312Y012697D01*
X020552Y012597D01*
X020681Y012468D01*
X020810Y012597D01*
X021051Y012697D01*
X021312Y012697D01*
X021552Y012597D01*
X021681Y012468D01*
X021810Y012597D01*
X022051Y012697D01*
X022312Y012697D01*
X022552Y012597D01*
X022681Y012468D01*
X022810Y012597D01*
X023051Y012697D01*
X023312Y012697D01*
X023552Y012597D01*
X023681Y012468D01*
X023810Y012597D01*
X024051Y012697D01*
X024301Y012697D01*
X023361Y013638D01*
X023312Y013617D01*
X023051Y013617D01*
X022810Y013717D01*
X022626Y013901D01*
X022526Y014142D01*
X022526Y014922D01*
X022626Y015163D01*
X022810Y015347D01*
X023051Y015447D01*
X023312Y015447D01*
X023552Y015347D01*
X023681Y015218D01*
X023810Y015347D01*
X024051Y015447D01*
X024312Y015447D01*
X024552Y015347D01*
X024681Y015218D01*
X024810Y015347D01*
X025051Y015447D01*
X025312Y015447D01*
X025552Y015347D01*
X025737Y015163D01*
X025836Y014922D01*
X025836Y014142D01*
X025737Y013901D01*
X025552Y013717D01*
X025312Y013617D01*
X025051Y013617D01*
X024810Y013717D01*
X024681Y013846D01*
X024587Y013751D01*
X025252Y013087D01*
X026662Y013087D01*
X026850Y013087D01*
X027025Y013014D01*
X027158Y012881D01*
X027230Y012707D01*
X027230Y011492D01*
X027261Y011462D01*
X027351Y011243D01*
X027351Y011006D01*
X027261Y010788D01*
X027093Y010620D01*
X026875Y010530D01*
X026698Y010530D01*
X026698Y010429D02*
X027692Y010429D01*
X027692Y010588D02*
X027014Y010588D01*
X027219Y010746D02*
X027692Y010746D01*
X027692Y010905D02*
X027309Y010905D01*
X027351Y011063D02*
X027692Y011063D01*
X027692Y011222D02*
X027351Y011222D01*
X027294Y011380D02*
X027692Y011380D01*
X027692Y011539D02*
X027230Y011539D01*
X027230Y011697D02*
X027692Y011697D01*
X027692Y011856D02*
X027230Y011856D01*
X027230Y012014D02*
X027692Y012014D01*
X027692Y012173D02*
X027230Y012173D01*
X027230Y012331D02*
X027692Y012331D01*
X027692Y012490D02*
X027230Y012490D01*
X027230Y012649D02*
X027692Y012649D01*
X027692Y012807D02*
X027188Y012807D01*
X027073Y012966D02*
X027692Y012966D01*
X027692Y013124D02*
X025214Y013124D01*
X025055Y013283D02*
X027692Y013283D01*
X027692Y013441D02*
X024897Y013441D01*
X024738Y013600D02*
X026892Y013600D01*
X026672Y013758D02*
X025594Y013758D01*
X025743Y013917D02*
X026560Y013917D01*
X026494Y014075D02*
X025809Y014075D01*
X025836Y014234D02*
X026486Y014234D01*
X026486Y014393D02*
X025836Y014393D01*
X025836Y014551D02*
X026486Y014551D01*
X026486Y014710D02*
X025836Y014710D01*
X025836Y014868D02*
X026486Y014868D01*
X026510Y015027D02*
X025793Y015027D01*
X025715Y015185D02*
X026575Y015185D01*
X026710Y015344D02*
X025556Y015344D01*
X024807Y015344D02*
X024556Y015344D01*
X023807Y015344D02*
X023556Y015344D01*
X022807Y015344D02*
X019257Y015344D01*
X019257Y015502D02*
X026983Y015502D01*
X027379Y015502D02*
X027692Y015502D01*
X027692Y015344D02*
X027653Y015344D01*
X027692Y015661D02*
X019257Y015661D01*
X019303Y015819D02*
X027692Y015819D01*
X027692Y015978D02*
X019369Y015978D01*
X019379Y016137D02*
X027577Y016137D01*
X027511Y016295D02*
X019356Y016295D01*
X019290Y016454D02*
X027471Y016454D01*
X027471Y016612D02*
X019134Y016612D01*
X019058Y016771D02*
X027512Y016771D01*
X027577Y016929D02*
X019058Y016929D01*
X019034Y017088D02*
X027733Y017088D01*
X028630Y017088D02*
X028733Y017088D01*
X029630Y017088D02*
X029727Y017088D01*
X029793Y017246D02*
X018968Y017246D01*
X017922Y016270D02*
X017833Y016359D01*
X017744Y016270D01*
X017645Y016229D01*
X018310Y015564D01*
X018310Y015753D01*
X018279Y015784D01*
X018189Y016002D01*
X018189Y016160D01*
X018189Y016160D01*
X017922Y016270D01*
X017897Y016295D02*
X017769Y016295D01*
X017737Y016137D02*
X018189Y016137D01*
X018199Y015978D02*
X017896Y015978D01*
X018054Y015819D02*
X018265Y015819D01*
X018310Y015661D02*
X018213Y015661D01*
X017349Y015185D02*
X016456Y015185D01*
X016615Y015027D02*
X017507Y015027D01*
X017666Y014868D02*
X016773Y014868D01*
X016932Y014710D02*
X017779Y014710D01*
X017779Y014755D02*
X017779Y013863D01*
X015480Y016161D01*
X015744Y016270D01*
X015833Y016359D01*
X015922Y016270D01*
X016189Y016160D01*
X016374Y016160D01*
X017779Y014755D01*
X017779Y014551D02*
X017090Y014551D01*
X017249Y014393D02*
X017779Y014393D01*
X017779Y014234D02*
X017407Y014234D01*
X017566Y014075D02*
X017779Y014075D01*
X017779Y013917D02*
X017724Y013917D01*
X017126Y013176D02*
X016679Y013623D01*
X016679Y012471D01*
X016681Y012468D01*
X016810Y012597D01*
X017051Y012697D01*
X017312Y012697D01*
X017552Y012597D01*
X017681Y012468D01*
X017779Y012566D01*
X017779Y012656D01*
X017602Y012656D01*
X017384Y012746D01*
X017216Y012914D01*
X017126Y013132D01*
X017126Y013176D01*
X017129Y013124D02*
X016679Y013124D01*
X016679Y012966D02*
X017195Y012966D01*
X017323Y012807D02*
X016679Y012807D01*
X016679Y012649D02*
X016934Y012649D01*
X016703Y012490D02*
X016679Y012490D01*
X017429Y012649D02*
X017779Y012649D01*
X017703Y012490D02*
X017660Y012490D01*
X017019Y013283D02*
X016679Y013283D01*
X016679Y013441D02*
X016860Y013441D01*
X016702Y013600D02*
X016679Y013600D01*
X015574Y013600D02*
X014687Y013600D01*
X014687Y013755D02*
X014771Y013839D01*
X014876Y014094D01*
X014876Y014357D01*
X015574Y013660D01*
X015574Y012576D01*
X015552Y012597D01*
X015312Y012697D01*
X015051Y012697D01*
X014810Y012597D01*
X014687Y012474D01*
X014687Y013755D01*
X014690Y013758D02*
X015475Y013758D01*
X015317Y013917D02*
X014803Y013917D01*
X014869Y014075D02*
X015158Y014075D01*
X014999Y014234D02*
X014876Y014234D01*
X013739Y013692D02*
X013739Y012526D01*
X013681Y012468D01*
X013624Y012526D01*
X013624Y013692D01*
X013681Y013749D01*
X013739Y013692D01*
X013739Y013600D02*
X013624Y013600D01*
X013624Y013441D02*
X013739Y013441D01*
X013739Y013283D02*
X013624Y013283D01*
X013624Y013124D02*
X013739Y013124D01*
X013739Y012966D02*
X013624Y012966D01*
X013624Y012807D02*
X013739Y012807D01*
X013739Y012649D02*
X013624Y012649D01*
X013660Y012490D02*
X013703Y012490D01*
X014687Y012490D02*
X014703Y012490D01*
X014687Y012649D02*
X014934Y012649D01*
X014687Y012807D02*
X015574Y012807D01*
X015574Y012649D02*
X015429Y012649D01*
X015574Y012966D02*
X014687Y012966D01*
X014687Y013124D02*
X015574Y013124D01*
X015574Y013283D02*
X014687Y013283D01*
X014687Y013441D02*
X015574Y013441D01*
X012676Y013441D02*
X012667Y013441D01*
X012667Y013283D02*
X012676Y013283D01*
X012667Y013124D02*
X012676Y013124D01*
X012667Y012966D02*
X012676Y012966D01*
X012667Y012807D02*
X012676Y012807D01*
X012667Y012649D02*
X012676Y012649D01*
X012667Y012490D02*
X012676Y012490D01*
X012667Y012483D02*
X012676Y012474D01*
X012676Y013744D01*
X012667Y013735D01*
X012667Y012483D01*
X011720Y012507D02*
X011710Y012497D01*
X011710Y013721D01*
X011720Y013711D01*
X011720Y012507D01*
X011710Y012649D02*
X011720Y012649D01*
X011710Y012807D02*
X011720Y012807D01*
X011710Y012966D02*
X011720Y012966D01*
X011710Y013124D02*
X011720Y013124D01*
X011710Y013283D02*
X011720Y013283D01*
X011710Y013441D02*
X011720Y013441D01*
X011710Y013600D02*
X011720Y013600D01*
X012667Y013600D02*
X012676Y013600D01*
X010763Y013600D02*
X010647Y013600D01*
X010647Y013715D02*
X010681Y013749D01*
X010763Y013668D01*
X010763Y012550D01*
X010681Y012468D01*
X010647Y012503D01*
X010647Y013715D01*
X010647Y013441D02*
X010763Y013441D01*
X010763Y013283D02*
X010647Y013283D01*
X010647Y013124D02*
X010763Y013124D01*
X010763Y012966D02*
X010647Y012966D01*
X010647Y012807D02*
X010763Y012807D01*
X010763Y012649D02*
X010647Y012649D01*
X010660Y012490D02*
X010703Y012490D01*
X009700Y012490D02*
X009691Y012490D01*
X009700Y012487D02*
X009691Y012477D01*
X009691Y013740D01*
X009700Y013731D01*
X009700Y012487D01*
X009691Y012649D02*
X009700Y012649D01*
X009691Y012807D02*
X009700Y012807D01*
X009691Y012966D02*
X009700Y012966D01*
X009691Y013124D02*
X009700Y013124D01*
X009691Y013283D02*
X009700Y013283D01*
X009691Y013441D02*
X009700Y013441D01*
X009691Y013600D02*
X009700Y013600D01*
X008743Y013600D02*
X008628Y013600D01*
X008628Y013696D02*
X008681Y013749D01*
X008743Y013688D01*
X008743Y012530D01*
X008681Y012468D01*
X008628Y012522D01*
X008628Y013696D01*
X008628Y013441D02*
X008743Y013441D01*
X008743Y013283D02*
X008628Y013283D01*
X008628Y013124D02*
X008743Y013124D01*
X008743Y012966D02*
X008628Y012966D01*
X008628Y012807D02*
X008743Y012807D01*
X008743Y012649D02*
X008628Y012649D01*
X008660Y012490D02*
X008703Y012490D01*
X007680Y012490D02*
X007671Y012490D01*
X007671Y012479D02*
X007680Y012470D01*
X007680Y013748D01*
X007671Y013739D01*
X007671Y012479D01*
X007671Y012649D02*
X007680Y012649D01*
X007671Y012807D02*
X007680Y012807D01*
X007671Y012966D02*
X007680Y012966D01*
X007671Y013124D02*
X007680Y013124D01*
X007671Y013283D02*
X007680Y013283D01*
X007671Y013441D02*
X007680Y013441D01*
X007671Y013600D02*
X007680Y013600D01*
X006086Y013600D02*
X005651Y013600D01*
X005651Y013758D02*
X006086Y013758D01*
X006086Y013917D02*
X005651Y013917D01*
X005651Y014075D02*
X006086Y014075D01*
X006086Y014234D02*
X005651Y014234D01*
X005651Y014250D02*
X005827Y014250D01*
X006046Y014341D01*
X006086Y014381D01*
X006086Y011630D01*
X005651Y012065D01*
X005651Y014250D01*
X005651Y013441D02*
X006086Y013441D01*
X006086Y013283D02*
X005651Y013283D01*
X005651Y013124D02*
X006086Y013124D01*
X006086Y012966D02*
X005651Y012966D01*
X005651Y012807D02*
X006086Y012807D01*
X006086Y012649D02*
X005651Y012649D01*
X005651Y012490D02*
X006086Y012490D01*
X006086Y012331D02*
X005651Y012331D01*
X005651Y012173D02*
X006086Y012173D01*
X006086Y012014D02*
X005702Y012014D01*
X005860Y011856D02*
X006086Y011856D01*
X006086Y011697D02*
X006019Y011697D01*
X007649Y011063D02*
X007714Y011063D01*
X007806Y010905D02*
X007961Y010905D01*
X007992Y010746D02*
X015999Y010746D01*
X015999Y010588D02*
X008074Y010588D01*
X008111Y010429D02*
X015999Y010429D01*
X015999Y010270D02*
X008111Y010270D01*
X008049Y010112D02*
X015999Y010112D01*
X015999Y009953D02*
X007930Y009953D01*
X007792Y009795D02*
X015999Y009795D01*
X015999Y009636D02*
X007753Y009636D01*
X007667Y009478D02*
X015999Y009478D01*
X015999Y009319D02*
X007473Y009319D01*
X007457Y009161D02*
X015999Y009161D01*
X015999Y009002D02*
X007391Y009002D01*
X007246Y008844D02*
X015999Y008844D01*
X015961Y010905D02*
X015402Y010905D01*
X015649Y011063D02*
X015714Y011063D01*
X014961Y010905D02*
X014402Y010905D01*
X014649Y011063D02*
X014714Y011063D01*
X013961Y010905D02*
X013402Y010905D01*
X013649Y011063D02*
X013714Y011063D01*
X012961Y010905D02*
X012402Y010905D01*
X012649Y011063D02*
X012714Y011063D01*
X011961Y010905D02*
X011402Y010905D01*
X011649Y011063D02*
X011714Y011063D01*
X010961Y010905D02*
X010402Y010905D01*
X010649Y011063D02*
X010714Y011063D01*
X009961Y010905D02*
X009402Y010905D01*
X009649Y011063D02*
X009714Y011063D01*
X008961Y010905D02*
X008402Y010905D01*
X008649Y011063D02*
X008714Y011063D01*
X011605Y008209D02*
X003816Y008209D01*
X003816Y008051D02*
X005306Y008051D01*
X005102Y007892D02*
X003816Y007892D01*
X003816Y007734D02*
X005032Y007734D01*
X005023Y007575D02*
X003816Y007575D01*
X003816Y007417D02*
X005023Y007417D01*
X005023Y007258D02*
X003816Y007258D01*
X003816Y007100D02*
X005023Y007100D01*
X005023Y006941D02*
X003816Y006941D01*
X003816Y006782D02*
X005023Y006782D01*
X005023Y006624D02*
X003816Y006624D01*
X003816Y006465D02*
X005023Y006465D01*
X005023Y006307D02*
X003816Y006307D01*
X003816Y006148D02*
X005023Y006148D01*
X004622Y005990D02*
X003816Y005990D01*
X003816Y005831D02*
X004464Y005831D01*
X004396Y005673D02*
X003816Y005673D01*
X004188Y005514D02*
X004337Y005514D01*
X005970Y006941D02*
X011471Y006941D01*
X011471Y007100D02*
X005970Y007100D01*
X007488Y006624D02*
X007874Y006624D01*
X008488Y006624D02*
X008874Y006624D01*
X009488Y006624D02*
X009874Y006624D01*
X010488Y006624D02*
X010874Y006624D01*
X010681Y005096D02*
X010647Y005062D01*
X010647Y003349D01*
X010681Y003315D01*
X010763Y003396D01*
X010763Y005015D01*
X010681Y005096D01*
X010647Y005039D02*
X010739Y005039D01*
X010763Y004880D02*
X010647Y004880D01*
X010647Y004721D02*
X010763Y004721D01*
X010763Y004563D02*
X010647Y004563D01*
X010647Y004404D02*
X010763Y004404D01*
X010763Y004246D02*
X010647Y004246D01*
X010647Y004087D02*
X010763Y004087D01*
X010763Y003929D02*
X010647Y003929D01*
X010647Y003770D02*
X010763Y003770D01*
X010763Y003612D02*
X010647Y003612D01*
X010647Y003453D02*
X010763Y003453D01*
X009700Y003453D02*
X009691Y003453D01*
X009700Y003333D02*
X009691Y003324D01*
X009691Y005087D01*
X009700Y005078D01*
X009700Y003333D01*
X009691Y003612D02*
X009700Y003612D01*
X009691Y003770D02*
X009700Y003770D01*
X009691Y003929D02*
X009700Y003929D01*
X009691Y004087D02*
X009700Y004087D01*
X009691Y004246D02*
X009700Y004246D01*
X009691Y004404D02*
X009700Y004404D01*
X009691Y004563D02*
X009700Y004563D01*
X009691Y004721D02*
X009700Y004721D01*
X009691Y004880D02*
X009700Y004880D01*
X009691Y005039D02*
X009700Y005039D01*
X008743Y005034D02*
X008743Y003377D01*
X008681Y003315D01*
X008628Y003369D01*
X008628Y005042D01*
X008681Y005096D01*
X008743Y005034D01*
X008739Y005039D02*
X008628Y005039D01*
X008628Y004880D02*
X008743Y004880D01*
X008743Y004721D02*
X008628Y004721D01*
X008628Y004563D02*
X008743Y004563D01*
X008743Y004404D02*
X008628Y004404D01*
X008628Y004246D02*
X008743Y004246D01*
X008743Y004087D02*
X008628Y004087D01*
X008628Y003929D02*
X008743Y003929D01*
X008743Y003770D02*
X008628Y003770D01*
X008628Y003612D02*
X008743Y003612D01*
X008743Y003453D02*
X008628Y003453D01*
X007680Y003453D02*
X007671Y003453D01*
X007671Y003326D02*
X007680Y003316D01*
X007680Y005095D01*
X007671Y005085D01*
X007671Y003326D01*
X007671Y003612D02*
X007680Y003612D01*
X007671Y003770D02*
X007680Y003770D01*
X007671Y003929D02*
X007680Y003929D01*
X007671Y004087D02*
X007680Y004087D01*
X007671Y004246D02*
X007680Y004246D01*
X007671Y004404D02*
X007680Y004404D01*
X007671Y004563D02*
X007680Y004563D01*
X007671Y004721D02*
X007680Y004721D01*
X007671Y004880D02*
X007680Y004880D01*
X007671Y005039D02*
X007680Y005039D01*
X003199Y002032D02*
X003181Y002015D01*
X003164Y002032D01*
X003181Y002049D01*
X003199Y002032D01*
X003193Y002026D02*
X003170Y002026D01*
X014891Y004880D02*
X015020Y004880D01*
X019638Y006624D02*
X019874Y006624D01*
X020488Y006624D02*
X020874Y006624D01*
X021488Y006624D02*
X021874Y006624D01*
X022488Y006624D02*
X022874Y006624D01*
X023488Y006624D02*
X023874Y006624D01*
X024488Y006624D02*
X024874Y006624D01*
X025488Y006624D02*
X025771Y006624D01*
X026720Y006941D02*
X027479Y006941D01*
X027479Y006782D02*
X026879Y006782D01*
X027037Y006624D02*
X027479Y006624D01*
X027479Y006465D02*
X027196Y006465D01*
X027354Y006307D02*
X027479Y006307D01*
X028584Y006307D02*
X031194Y006307D01*
X031194Y006465D02*
X028584Y006465D01*
X028605Y006503D02*
X028584Y006512D01*
X028584Y006039D01*
X029731Y004892D01*
X029871Y005230D01*
X030145Y005504D01*
X030502Y005652D01*
X030889Y005652D01*
X031194Y005526D01*
X031194Y016039D01*
X030889Y015912D01*
X030502Y015912D01*
X030145Y016060D01*
X029891Y016314D01*
X029891Y016238D01*
X029754Y016100D01*
X029754Y015243D01*
X029771Y015226D01*
X029876Y014970D01*
X029876Y014094D01*
X029771Y013839D01*
X029754Y013822D01*
X029754Y012395D01*
X029965Y012395D01*
X030197Y012299D01*
X030375Y012121D01*
X030471Y011888D01*
X030471Y011830D01*
X030498Y011766D01*
X030498Y011678D01*
X030535Y011662D01*
X030646Y011551D01*
X030706Y011406D01*
X030706Y011251D01*
X030732Y011225D01*
X030816Y011022D01*
X030816Y010517D01*
X030856Y010501D01*
X030967Y010390D01*
X031027Y010245D01*
X031027Y009300D01*
X030967Y009155D01*
X030856Y009044D01*
X030711Y008984D01*
X030072Y008984D01*
X030072Y008258D01*
X030072Y008081D01*
X030258Y008081D01*
X030403Y008021D01*
X030514Y007909D01*
X030574Y007764D01*
X030574Y006820D01*
X030514Y006675D01*
X030403Y006564D01*
X030258Y006503D01*
X028605Y006503D01*
X028584Y006148D02*
X031194Y006148D01*
X031194Y005990D02*
X028633Y005990D01*
X028792Y005831D02*
X031194Y005831D01*
X031194Y005673D02*
X028950Y005673D01*
X029109Y005514D02*
X030169Y005514D01*
X029996Y005356D02*
X029267Y005356D01*
X029426Y005197D02*
X029857Y005197D01*
X029792Y005039D02*
X029584Y005039D01*
X030889Y003708D02*
X031194Y003834D01*
X031194Y000762D01*
X030735Y000762D01*
X030768Y000796D01*
X030859Y001014D01*
X030859Y001251D01*
X030768Y001470D01*
X030601Y001637D01*
X030391Y001724D01*
X030391Y003754D01*
X030502Y003708D01*
X030889Y003708D01*
X031039Y003770D02*
X031194Y003770D01*
X031194Y003612D02*
X030391Y003612D01*
X030391Y003453D02*
X031194Y003453D01*
X031194Y003295D02*
X030391Y003295D01*
X030391Y003136D02*
X031194Y003136D01*
X031194Y002977D02*
X030391Y002977D01*
X030391Y002819D02*
X031194Y002819D01*
X031194Y002660D02*
X030391Y002660D01*
X030391Y002502D02*
X031194Y002502D01*
X031194Y002343D02*
X030391Y002343D01*
X030391Y002185D02*
X031194Y002185D01*
X031194Y002026D02*
X030391Y002026D01*
X030391Y001868D02*
X031194Y001868D01*
X031194Y001709D02*
X030427Y001709D01*
X030687Y001551D02*
X031194Y001551D01*
X031194Y001392D02*
X030801Y001392D01*
X030859Y001233D02*
X031194Y001233D01*
X031194Y001075D02*
X030859Y001075D01*
X030818Y000916D02*
X031194Y000916D01*
X028994Y001551D02*
X028352Y001551D01*
X028641Y001709D02*
X028722Y001709D01*
X028011Y001551D02*
X027352Y001551D01*
X027641Y001709D02*
X027722Y001709D01*
X027011Y001551D02*
X026352Y001551D01*
X026641Y001709D02*
X026722Y001709D01*
X026011Y001551D02*
X025352Y001551D01*
X025641Y001709D02*
X025722Y001709D01*
X025011Y001551D02*
X024352Y001551D01*
X024641Y001709D02*
X024722Y001709D01*
X024011Y001551D02*
X023352Y001551D01*
X023641Y001709D02*
X023722Y001709D01*
X023011Y001551D02*
X022352Y001551D01*
X022641Y001709D02*
X022722Y001709D01*
X022668Y003328D02*
X022575Y003421D01*
X022320Y003527D01*
X022043Y003527D01*
X021901Y003468D01*
X021065Y004305D01*
X021065Y004867D01*
X021312Y004867D01*
X021371Y004892D01*
X022668Y003594D01*
X022668Y003328D01*
X022668Y003453D02*
X022498Y003453D01*
X022651Y003612D02*
X021758Y003612D01*
X021600Y003770D02*
X022492Y003770D01*
X022334Y003929D02*
X021441Y003929D01*
X021282Y004087D02*
X022175Y004087D01*
X022016Y004246D02*
X021124Y004246D01*
X021065Y004404D02*
X021858Y004404D01*
X021699Y004563D02*
X021065Y004563D01*
X021065Y004721D02*
X021541Y004721D01*
X021382Y004880D02*
X021342Y004880D01*
X023572Y004987D02*
X023681Y005096D01*
X023810Y004967D01*
X024051Y004867D01*
X024312Y004867D01*
X024354Y004885D01*
X024688Y004551D01*
X024688Y003778D01*
X024688Y003590D01*
X024760Y003415D01*
X024771Y003405D01*
X024681Y003315D01*
X024575Y003421D01*
X024572Y003422D01*
X024572Y003884D01*
X024500Y004058D01*
X024367Y004192D01*
X023572Y004987D01*
X023624Y005039D02*
X023739Y005039D01*
X023679Y004880D02*
X024020Y004880D01*
X023837Y004721D02*
X024517Y004721D01*
X024676Y004563D02*
X023996Y004563D01*
X024154Y004404D02*
X024688Y004404D01*
X024688Y004246D02*
X024313Y004246D01*
X024471Y004087D02*
X024688Y004087D01*
X024688Y003929D02*
X024554Y003929D01*
X024572Y003770D02*
X024688Y003770D01*
X024688Y003612D02*
X024572Y003612D01*
X024572Y003453D02*
X024745Y003453D01*
X023625Y003453D02*
X023616Y003453D01*
X023616Y003381D02*
X023625Y003371D01*
X023625Y003594D01*
X023616Y003603D01*
X023616Y003381D01*
X026061Y004518D02*
X026061Y004867D01*
X026312Y004867D01*
X026368Y004891D01*
X027664Y003594D01*
X027664Y003332D01*
X027575Y003421D01*
X027320Y003527D01*
X027051Y003527D01*
X026061Y004518D01*
X026061Y004563D02*
X026695Y004563D01*
X026537Y004721D02*
X026061Y004721D01*
X026342Y004880D02*
X026378Y004880D01*
X026174Y004404D02*
X026854Y004404D01*
X027012Y004246D02*
X026333Y004246D01*
X026491Y004087D02*
X027171Y004087D01*
X027330Y003929D02*
X026650Y003929D01*
X026808Y003770D02*
X027488Y003770D01*
X027647Y003612D02*
X026967Y003612D01*
X027498Y003453D02*
X027664Y003453D01*
X028612Y003453D02*
X028621Y003453D01*
X028612Y003385D02*
X028621Y003375D01*
X028621Y003700D01*
X028612Y003710D01*
X028612Y003385D01*
X028612Y003612D02*
X028621Y003612D01*
X024359Y004880D02*
X024342Y004880D01*
X026698Y007100D02*
X027479Y007100D01*
X027479Y007258D02*
X026698Y007258D01*
X026698Y007417D02*
X027479Y007417D01*
X027479Y007575D02*
X026698Y007575D01*
X026698Y007734D02*
X027479Y007734D01*
X027479Y007892D02*
X026698Y007892D01*
X026698Y008051D02*
X027479Y008051D01*
X027479Y008209D02*
X026698Y008209D01*
X026698Y008368D02*
X027479Y008368D01*
X027479Y008526D02*
X026698Y008526D01*
X026698Y008685D02*
X027479Y008685D01*
X027479Y008844D02*
X026698Y008844D01*
X026698Y009002D02*
X027479Y009002D01*
X027479Y009161D02*
X026698Y009161D01*
X026698Y009319D02*
X027479Y009319D01*
X027544Y009478D02*
X026698Y009478D01*
X026698Y009636D02*
X027675Y009636D01*
X027757Y009795D02*
X026698Y009795D01*
X026698Y009953D02*
X027692Y009953D01*
X027692Y010112D02*
X026698Y010112D01*
X026698Y010270D02*
X027692Y010270D01*
X028585Y008984D02*
X028900Y008984D01*
X028968Y009012D01*
X028968Y008709D01*
X028795Y008781D01*
X028584Y008781D01*
X028584Y008982D01*
X028585Y008984D01*
X028584Y008844D02*
X028968Y008844D01*
X028968Y009002D02*
X028944Y009002D01*
X030072Y008844D02*
X031194Y008844D01*
X031194Y009002D02*
X030755Y009002D01*
X030969Y009161D02*
X031194Y009161D01*
X031194Y009319D02*
X031027Y009319D01*
X031027Y009478D02*
X031194Y009478D01*
X031194Y009636D02*
X031027Y009636D01*
X031027Y009795D02*
X031194Y009795D01*
X031194Y009953D02*
X031027Y009953D01*
X031027Y010112D02*
X031194Y010112D01*
X031194Y010270D02*
X031016Y010270D01*
X030928Y010429D02*
X031194Y010429D01*
X031194Y010588D02*
X030816Y010588D01*
X030816Y010746D02*
X031194Y010746D01*
X031194Y010905D02*
X030816Y010905D01*
X030799Y011063D02*
X031194Y011063D01*
X031194Y011222D02*
X030734Y011222D01*
X030706Y011380D02*
X031194Y011380D01*
X031194Y011539D02*
X030651Y011539D01*
X030498Y011697D02*
X031194Y011697D01*
X031194Y011856D02*
X030471Y011856D01*
X030419Y012014D02*
X031194Y012014D01*
X031194Y012173D02*
X030323Y012173D01*
X030118Y012331D02*
X031194Y012331D01*
X031194Y012490D02*
X029754Y012490D01*
X029754Y012649D02*
X031194Y012649D01*
X031194Y012807D02*
X029754Y012807D01*
X029754Y012966D02*
X031194Y012966D01*
X031194Y013124D02*
X029754Y013124D01*
X029754Y013283D02*
X031194Y013283D01*
X031194Y013441D02*
X029754Y013441D01*
X029754Y013600D02*
X031194Y013600D01*
X031194Y013758D02*
X029754Y013758D01*
X029803Y013917D02*
X031194Y013917D01*
X031194Y014075D02*
X029869Y014075D01*
X029876Y014234D02*
X031194Y014234D01*
X031194Y014393D02*
X029876Y014393D01*
X029876Y014551D02*
X031194Y014551D01*
X031194Y014710D02*
X029876Y014710D01*
X029876Y014868D02*
X031194Y014868D01*
X031194Y015027D02*
X029853Y015027D01*
X029787Y015185D02*
X031194Y015185D01*
X031194Y015344D02*
X029754Y015344D01*
X029754Y015502D02*
X031194Y015502D01*
X031194Y015661D02*
X029754Y015661D01*
X029754Y015819D02*
X031194Y015819D01*
X031194Y015978D02*
X031047Y015978D01*
X030344Y015978D02*
X029754Y015978D01*
X029790Y016137D02*
X030068Y016137D01*
X029910Y016295D02*
X029891Y016295D01*
X027692Y013600D02*
X027471Y013600D01*
X024769Y013758D02*
X024594Y013758D01*
X023716Y013283D02*
X019257Y013283D01*
X019257Y013441D02*
X023557Y013441D01*
X023399Y013600D02*
X019257Y013600D01*
X019257Y013758D02*
X022769Y013758D01*
X022620Y013917D02*
X019257Y013917D01*
X019257Y014075D02*
X022554Y014075D01*
X022526Y014234D02*
X019257Y014234D01*
X019257Y014393D02*
X022526Y014393D01*
X022526Y014551D02*
X019257Y014551D01*
X019257Y014710D02*
X022526Y014710D01*
X022526Y014868D02*
X019257Y014868D01*
X019257Y015027D02*
X022570Y015027D01*
X022648Y015185D02*
X019257Y015185D01*
X017190Y015344D02*
X016297Y015344D01*
X016139Y015502D02*
X017031Y015502D01*
X016873Y015661D02*
X015980Y015661D01*
X015822Y015819D02*
X016714Y015819D01*
X016556Y015978D02*
X015663Y015978D01*
X015505Y016137D02*
X016397Y016137D01*
X015897Y016295D02*
X015769Y016295D01*
X014160Y016142D02*
X013804Y016142D01*
X013696Y016250D01*
X013744Y016270D01*
X013833Y016359D01*
X013922Y016270D01*
X014109Y016193D01*
X014157Y016144D01*
X014160Y016142D01*
X013897Y016295D02*
X013769Y016295D01*
X012911Y015472D02*
X012788Y015421D01*
X012681Y015315D01*
X012575Y015421D01*
X012320Y015527D01*
X012043Y015527D01*
X011788Y015421D01*
X011681Y015315D01*
X011575Y015421D01*
X011320Y015527D01*
X011043Y015527D01*
X010788Y015421D01*
X010681Y015315D01*
X010575Y015421D01*
X010320Y015527D01*
X010043Y015527D01*
X009788Y015421D01*
X009681Y015315D01*
X009575Y015421D01*
X009320Y015527D01*
X009043Y015527D01*
X008788Y015421D01*
X008681Y015315D01*
X008575Y015421D01*
X008320Y015527D01*
X008043Y015527D01*
X007788Y015421D01*
X007681Y015315D01*
X007584Y015412D01*
X008331Y016160D01*
X008477Y016160D01*
X008744Y016270D01*
X008833Y016359D01*
X008922Y016270D01*
X009189Y016160D01*
X009477Y016160D01*
X009744Y016270D01*
X009786Y016312D01*
X009880Y016312D01*
X009922Y016270D01*
X010189Y016160D01*
X010477Y016160D01*
X010744Y016270D01*
X010786Y016312D01*
X010880Y016312D01*
X010922Y016270D01*
X011189Y016160D01*
X011477Y016160D01*
X011744Y016270D01*
X011786Y016312D01*
X011880Y016312D01*
X011922Y016270D01*
X012189Y016160D01*
X012224Y016160D01*
X012911Y015472D01*
X012881Y015502D02*
X012379Y015502D01*
X012653Y015344D02*
X012710Y015344D01*
X012722Y015661D02*
X007832Y015661D01*
X007983Y015502D02*
X007674Y015502D01*
X007653Y015344D02*
X007710Y015344D01*
X008379Y015502D02*
X008983Y015502D01*
X008710Y015344D02*
X008653Y015344D01*
X009379Y015502D02*
X009983Y015502D01*
X009710Y015344D02*
X009653Y015344D01*
X010379Y015502D02*
X010983Y015502D01*
X010710Y015344D02*
X010653Y015344D01*
X011379Y015502D02*
X011983Y015502D01*
X011710Y015344D02*
X011653Y015344D01*
X012405Y015978D02*
X008149Y015978D01*
X007991Y015819D02*
X012564Y015819D01*
X012247Y016137D02*
X008308Y016137D01*
X008769Y016295D02*
X008897Y016295D01*
X009769Y016295D02*
X009897Y016295D01*
X010769Y016295D02*
X010897Y016295D01*
X011769Y016295D02*
X011897Y016295D01*
X007049Y016217D02*
X006714Y015882D01*
X006714Y016258D01*
X006744Y016270D01*
X006833Y016359D01*
X006922Y016270D01*
X007049Y016217D01*
X006968Y016137D02*
X006714Y016137D01*
X006714Y015978D02*
X006810Y015978D01*
X006769Y016295D02*
X006897Y016295D01*
X005235Y016160D02*
X005235Y015759D01*
X005059Y015759D01*
X004840Y015668D01*
X004801Y015629D01*
X004801Y016327D01*
X004833Y016359D01*
X004922Y016270D01*
X005189Y016160D01*
X005235Y016160D01*
X005235Y016137D02*
X004801Y016137D01*
X004801Y016295D02*
X004897Y016295D01*
X004801Y015978D02*
X005235Y015978D01*
X005235Y015819D02*
X004801Y015819D01*
X004801Y015661D02*
X004833Y015661D01*
X019257Y013124D02*
X023874Y013124D01*
X024033Y012966D02*
X019257Y012966D01*
X019257Y012807D02*
X024191Y012807D01*
X023934Y012649D02*
X023429Y012649D01*
X023660Y012490D02*
X023703Y012490D01*
X022934Y012649D02*
X022429Y012649D01*
X022660Y012490D02*
X022703Y012490D01*
X021934Y012649D02*
X021429Y012649D01*
X021660Y012490D02*
X021703Y012490D01*
X020934Y012649D02*
X020429Y012649D01*
X020660Y012490D02*
X020703Y012490D01*
X019934Y012649D02*
X019429Y012649D01*
X019660Y012490D02*
X019703Y012490D01*
X030072Y008685D02*
X031194Y008685D01*
X031194Y008526D02*
X030072Y008526D01*
X030072Y008368D02*
X031194Y008368D01*
X031194Y008209D02*
X030072Y008209D01*
X030330Y008051D02*
X031194Y008051D01*
X031194Y007892D02*
X030521Y007892D01*
X030574Y007734D02*
X031194Y007734D01*
X031194Y007575D02*
X030574Y007575D01*
X030574Y007417D02*
X031194Y007417D01*
X031194Y007258D02*
X030574Y007258D01*
X030574Y007100D02*
X031194Y007100D01*
X031194Y006941D02*
X030574Y006941D01*
X030559Y006782D02*
X031194Y006782D01*
X031194Y006624D02*
X030464Y006624D01*
M02*
