%
M48
M72
T01C0.0236
T02C0.0240
T03C0.0400
%
T01
X3127Y1151
X3127Y7151
X4877Y7151
X6377Y7401
X6377Y8401
X6377Y10401
X6377Y11401
X8377Y12651
X10127Y12651
X10127Y5901
X8377Y5901
X10127Y1151
T02
X5677Y8851
X5477Y10651
X7527Y18851
X6177Y19401
X4677Y20901
X4127Y19451
X3627Y21451
X3427Y22951
X3527Y24301
X4177Y25901
X6527Y25601
X7727Y25951
X9477Y21251
X9827Y23851
T03
X9127Y26901
X8127Y26901
X7127Y26901
X6127Y26901
X5127Y26901
X4127Y26901
X4127Y1901
X5127Y1901
X6127Y1901
X7127Y1901
X8127Y1901
X9127Y1901
M30
