G75*
G70*
%OFA0B0*%
%FSLAX24Y24*%
%IPPOS*%
%LPD*%
%AMOC8*
5,1,8,0,0,1.08239X$1,22.5*
%
%ADD10R,0.0512X0.0630*%
%ADD11R,0.0512X0.0591*%
%ADD12C,0.0600*%
%ADD13R,0.0591X0.0512*%
%ADD14C,0.0276*%
%ADD15C,0.0400*%
%ADD16C,0.0100*%
%ADD17R,0.0396X0.0396*%
%ADD18C,0.0197*%
D10*
X006503Y013651D03*
X007251Y013651D03*
X007253Y015651D03*
X008001Y015651D03*
D11*
X008001Y016651D03*
X007253Y016651D03*
X007253Y014651D03*
X008001Y014651D03*
X008001Y007401D03*
X007253Y007401D03*
X007253Y005151D03*
X008001Y005151D03*
X008001Y003151D03*
X007253Y003151D03*
X006001Y003151D03*
X005253Y003151D03*
X005001Y021901D03*
X004253Y021901D03*
X004253Y024901D03*
X005001Y024901D03*
X006253Y024901D03*
X007001Y024901D03*
X007001Y021901D03*
X006253Y021901D03*
X008253Y021901D03*
X009001Y021901D03*
X009001Y024901D03*
X008253Y024901D03*
X008253Y027901D03*
X009001Y027901D03*
X007001Y027901D03*
X006253Y027901D03*
X005001Y027901D03*
X004253Y027901D03*
D12*
X004127Y027201D02*
X004127Y026601D01*
X005127Y026601D02*
X005127Y027201D01*
X006127Y027201D02*
X006127Y026601D01*
X007127Y026601D02*
X007127Y027201D01*
X008127Y027201D02*
X008127Y026601D01*
X009127Y026601D02*
X009127Y027201D01*
X009127Y002201D02*
X009127Y001601D01*
X008127Y001601D02*
X008127Y002201D01*
X007127Y002201D02*
X007127Y001601D01*
X006127Y001601D02*
X006127Y002201D01*
X005127Y002201D02*
X005127Y001601D01*
X004127Y001601D02*
X004127Y002201D01*
D13*
X004127Y023027D03*
X004127Y023775D03*
X005127Y023775D03*
X005127Y023027D03*
X006127Y023027D03*
X006127Y023775D03*
X007127Y023775D03*
X007127Y023027D03*
X008127Y023027D03*
X008127Y023775D03*
X009127Y023775D03*
X009127Y023027D03*
D14*
X009127Y022001D01*
X009027Y021901D01*
X009001Y021901D01*
X009077Y021801D01*
X009077Y021651D01*
X009477Y021251D01*
X009127Y023775D02*
X009127Y023801D01*
X009027Y023901D01*
X009027Y024901D01*
X009001Y024901D01*
X009077Y025001D01*
X009077Y026801D01*
X009127Y026901D01*
X009127Y027801D01*
X009027Y027901D01*
X009001Y027901D01*
X009377Y028551D02*
X008327Y028551D01*
X008327Y028001D01*
X008253Y027901D01*
X008227Y027901D01*
X008127Y027801D01*
X008127Y026901D01*
X007727Y025951D02*
X008177Y025501D01*
X008177Y025001D01*
X008253Y024901D01*
X008227Y024901D01*
X008227Y023901D01*
X008127Y023801D01*
X008127Y023775D01*
X008127Y023027D02*
X008127Y022001D01*
X008227Y021901D01*
X008253Y021901D01*
X008227Y021801D01*
X008227Y017151D01*
X007527Y018851D02*
X006977Y019401D01*
X006877Y019401D01*
X006877Y021751D01*
X006927Y021801D01*
X007001Y021901D01*
X007027Y021901D01*
X007127Y022001D01*
X007127Y023027D01*
X007127Y023775D02*
X007127Y023801D01*
X007027Y023901D01*
X007027Y024901D01*
X007001Y024901D01*
X007077Y025001D01*
X007077Y026801D01*
X007127Y026901D01*
X007127Y027801D01*
X007027Y027901D01*
X007001Y027901D01*
X006927Y028001D01*
X006927Y028551D01*
X003877Y028551D01*
X002877Y027551D01*
X002877Y022201D01*
X003627Y021451D01*
X004127Y021101D02*
X004127Y019451D01*
X004727Y018851D02*
X004727Y020801D01*
X004677Y020901D01*
X004977Y021201D01*
X004977Y021901D01*
X005001Y021901D01*
X005077Y022001D01*
X005077Y022951D01*
X005127Y023001D01*
X005127Y023027D01*
X005127Y023775D02*
X005127Y023801D01*
X005027Y023901D01*
X005027Y024901D01*
X005001Y024901D01*
X005077Y025001D01*
X005077Y026801D01*
X005127Y026901D01*
X005127Y027801D01*
X005027Y027901D01*
X005001Y027901D01*
X004253Y027901D02*
X004227Y027901D01*
X004127Y027801D01*
X004127Y026901D01*
X004077Y026801D01*
X003627Y026351D01*
X003627Y024401D01*
X003527Y024301D01*
X003477Y024201D01*
X003477Y023001D01*
X003427Y022951D01*
X004127Y023001D02*
X004127Y023027D01*
X004127Y023001D02*
X004227Y022901D01*
X004227Y021901D01*
X004253Y021901D01*
X004177Y021801D01*
X004177Y021151D01*
X004127Y021101D01*
X004727Y018851D02*
X006427Y018851D01*
X006477Y018751D01*
X006477Y013151D01*
X005477Y010651D02*
X005127Y010301D01*
X005127Y001901D01*
X004127Y001901D01*
X005127Y001901D02*
X005127Y001001D01*
X005227Y000901D01*
X005253Y003151D01*
X006001Y003151D02*
X006027Y000901D01*
X006127Y001001D01*
X006127Y001901D01*
X007127Y001901D01*
X006427Y018851D02*
X006877Y019301D01*
X006877Y019401D01*
X006177Y019401D02*
X006177Y021801D01*
X006253Y021901D01*
X006227Y021901D01*
X006127Y022001D01*
X006127Y023027D01*
X006127Y023775D02*
X006127Y023801D01*
X006227Y023901D01*
X006227Y024901D01*
X006253Y024901D01*
X006327Y025001D01*
X006327Y025401D01*
X006527Y025601D01*
X006127Y026901D02*
X006127Y027801D01*
X006227Y027901D01*
X006253Y027901D01*
X004177Y025901D02*
X004177Y025001D01*
X004253Y024901D01*
X004227Y024901D01*
X004227Y023901D01*
X004127Y023801D01*
X004127Y023775D01*
X009377Y028551D02*
X009777Y028151D01*
X009777Y023901D01*
X009827Y023851D01*
D15*
X009827Y023851D03*
X009477Y021251D03*
X007727Y025951D03*
X006527Y025601D03*
X004677Y020901D03*
X004127Y019451D03*
X003627Y021451D03*
X003427Y022951D03*
X003527Y024301D03*
X004177Y025901D03*
X006177Y019401D03*
X007527Y018851D03*
X005477Y010651D03*
X005677Y008851D03*
D16*
X002577Y009401D02*
X002577Y000601D01*
X005377Y000601D01*
X005377Y001218D01*
X005216Y001151D01*
X005177Y001151D01*
X005177Y001851D01*
X005077Y001851D01*
X005077Y001151D01*
X005037Y001151D01*
X004872Y001220D01*
X004745Y001346D01*
X004677Y001512D01*
X004677Y001851D01*
X005076Y001851D01*
X005076Y001951D01*
X004677Y001951D01*
X004677Y002291D01*
X004745Y002456D01*
X004872Y002583D01*
X005037Y002651D01*
X005077Y002651D01*
X005077Y001951D01*
X005177Y001951D01*
X005177Y002651D01*
X005216Y002651D01*
X005377Y002585D01*
X005377Y002706D01*
X005302Y002706D01*
X005302Y003101D01*
X005203Y003101D01*
X005203Y002706D01*
X004935Y002706D01*
X004847Y002794D01*
X004847Y003101D01*
X005202Y003101D01*
X005202Y003201D01*
X004847Y003201D01*
X004847Y003509D01*
X004935Y003596D01*
X005203Y003596D01*
X005203Y003201D01*
X005302Y003201D01*
X005302Y003596D01*
X005377Y003596D01*
X005377Y008519D01*
X005298Y008598D01*
X005230Y008762D01*
X005230Y008940D01*
X005298Y009104D01*
X005377Y009183D01*
X005377Y009401D01*
X002577Y009401D01*
X002577Y009316D02*
X005377Y009316D01*
X005377Y009217D02*
X002577Y009217D01*
X002577Y009119D02*
X005312Y009119D01*
X005263Y009020D02*
X002577Y009020D01*
X002577Y008922D02*
X005230Y008922D01*
X005230Y008823D02*
X002577Y008823D01*
X002577Y008724D02*
X005245Y008724D01*
X005286Y008626D02*
X002577Y008626D01*
X002577Y008527D02*
X005368Y008527D01*
X005377Y008429D02*
X002577Y008429D01*
X002577Y008330D02*
X005377Y008330D01*
X005377Y008232D02*
X002577Y008232D01*
X002577Y008133D02*
X005377Y008133D01*
X005377Y008035D02*
X002577Y008035D01*
X002577Y007936D02*
X005377Y007936D01*
X005377Y007838D02*
X002577Y007838D01*
X002577Y007739D02*
X005377Y007739D01*
X005377Y007640D02*
X002577Y007640D01*
X002577Y007542D02*
X005377Y007542D01*
X005377Y007443D02*
X002577Y007443D01*
X002577Y007345D02*
X005377Y007345D01*
X005377Y007246D02*
X002577Y007246D01*
X002577Y007148D02*
X005377Y007148D01*
X005377Y007049D02*
X002577Y007049D01*
X002577Y006951D02*
X005377Y006951D01*
X005377Y006852D02*
X002577Y006852D01*
X002577Y006754D02*
X005377Y006754D01*
X005377Y006655D02*
X002577Y006655D01*
X002577Y006556D02*
X005377Y006556D01*
X005377Y006458D02*
X002577Y006458D01*
X002577Y006359D02*
X005377Y006359D01*
X005377Y006261D02*
X002577Y006261D01*
X002577Y006162D02*
X005377Y006162D01*
X005377Y006064D02*
X002577Y006064D01*
X002577Y005965D02*
X005377Y005965D01*
X005377Y005867D02*
X002577Y005867D01*
X002577Y005768D02*
X005377Y005768D01*
X005377Y005670D02*
X002577Y005670D01*
X002577Y005571D02*
X005377Y005571D01*
X005377Y005473D02*
X002577Y005473D01*
X002577Y005374D02*
X005377Y005374D01*
X005377Y005275D02*
X002577Y005275D01*
X002577Y005177D02*
X005377Y005177D01*
X005377Y005078D02*
X002577Y005078D01*
X002577Y004980D02*
X005377Y004980D01*
X005377Y004881D02*
X002577Y004881D01*
X002577Y004783D02*
X005377Y004783D01*
X005377Y004684D02*
X002577Y004684D01*
X002577Y004586D02*
X005377Y004586D01*
X005377Y004487D02*
X002577Y004487D01*
X002577Y004389D02*
X005377Y004389D01*
X005377Y004290D02*
X002577Y004290D01*
X002577Y004191D02*
X005377Y004191D01*
X005377Y004093D02*
X002577Y004093D01*
X002577Y003994D02*
X005377Y003994D01*
X005377Y003896D02*
X002577Y003896D01*
X002577Y003797D02*
X005377Y003797D01*
X005377Y003699D02*
X002577Y003699D01*
X002577Y003600D02*
X005377Y003600D01*
X005302Y003502D02*
X005203Y003502D01*
X005203Y003403D02*
X005302Y003403D01*
X005302Y003305D02*
X005203Y003305D01*
X005203Y003206D02*
X005302Y003206D01*
X005202Y003107D02*
X002577Y003107D01*
X002577Y003009D02*
X004847Y003009D01*
X004847Y002910D02*
X002577Y002910D01*
X002577Y002812D02*
X004847Y002812D01*
X004927Y002713D02*
X002577Y002713D01*
X002577Y002615D02*
X003949Y002615D01*
X003872Y002583D02*
X004037Y002651D01*
X004077Y002651D01*
X004077Y001951D01*
X004177Y001951D01*
X004577Y001951D01*
X004577Y002291D01*
X004508Y002456D01*
X004381Y002583D01*
X004216Y002651D01*
X004177Y002651D01*
X004177Y001951D01*
X004177Y001851D01*
X004577Y001851D01*
X004577Y001512D01*
X004508Y001346D01*
X004381Y001220D01*
X004216Y001151D01*
X004177Y001151D01*
X004177Y001851D01*
X004077Y001851D01*
X004077Y001151D01*
X004037Y001151D01*
X003872Y001220D01*
X003745Y001346D01*
X003677Y001512D01*
X003677Y001851D01*
X004076Y001851D01*
X004076Y001951D01*
X003677Y001951D01*
X003677Y002291D01*
X003745Y002456D01*
X003872Y002583D01*
X003805Y002516D02*
X002577Y002516D01*
X002577Y002418D02*
X003729Y002418D01*
X003688Y002319D02*
X002577Y002319D01*
X002577Y002221D02*
X003677Y002221D01*
X003677Y002122D02*
X002577Y002122D01*
X002577Y002024D02*
X003677Y002024D01*
X003677Y001826D02*
X002577Y001826D01*
X002577Y001728D02*
X003677Y001728D01*
X003677Y001629D02*
X002577Y001629D01*
X002577Y001531D02*
X003677Y001531D01*
X003709Y001432D02*
X002577Y001432D01*
X002577Y001334D02*
X003758Y001334D01*
X003856Y001235D02*
X002577Y001235D01*
X002577Y001137D02*
X005377Y001137D01*
X005377Y001038D02*
X002577Y001038D01*
X002577Y000940D02*
X005377Y000940D01*
X005377Y000841D02*
X002577Y000841D01*
X002577Y000742D02*
X005377Y000742D01*
X005377Y000644D02*
X002577Y000644D01*
X002577Y001925D02*
X004076Y001925D01*
X004077Y002024D02*
X004177Y002024D01*
X004177Y002122D02*
X004077Y002122D01*
X004077Y002221D02*
X004177Y002221D01*
X004177Y002319D02*
X004077Y002319D01*
X004077Y002418D02*
X004177Y002418D01*
X004177Y002516D02*
X004077Y002516D01*
X004077Y002615D02*
X004177Y002615D01*
X004304Y002615D02*
X004949Y002615D01*
X004805Y002516D02*
X004448Y002516D01*
X004524Y002418D02*
X004729Y002418D01*
X004688Y002319D02*
X004565Y002319D01*
X004577Y002221D02*
X004677Y002221D01*
X004677Y002122D02*
X004577Y002122D01*
X004577Y002024D02*
X004677Y002024D01*
X004677Y001826D02*
X004577Y001826D01*
X004577Y001728D02*
X004677Y001728D01*
X004677Y001629D02*
X004577Y001629D01*
X004577Y001531D02*
X004677Y001531D01*
X004709Y001432D02*
X004544Y001432D01*
X004496Y001334D02*
X004758Y001334D01*
X004856Y001235D02*
X004397Y001235D01*
X004177Y001235D02*
X004077Y001235D01*
X004077Y001334D02*
X004177Y001334D01*
X004177Y001432D02*
X004077Y001432D01*
X004077Y001531D02*
X004177Y001531D01*
X004177Y001629D02*
X004077Y001629D01*
X004077Y001728D02*
X004177Y001728D01*
X004177Y001826D02*
X004077Y001826D01*
X004177Y001925D02*
X005076Y001925D01*
X005077Y002024D02*
X005177Y002024D01*
X005177Y002122D02*
X005077Y002122D01*
X005077Y002221D02*
X005177Y002221D01*
X005177Y002319D02*
X005077Y002319D01*
X005077Y002418D02*
X005177Y002418D01*
X005177Y002516D02*
X005077Y002516D01*
X005077Y002615D02*
X005177Y002615D01*
X005203Y002713D02*
X005302Y002713D01*
X005304Y002615D02*
X005377Y002615D01*
X005302Y002812D02*
X005203Y002812D01*
X005203Y002910D02*
X005302Y002910D01*
X005302Y003009D02*
X005203Y003009D01*
X005631Y002640D02*
X005629Y002418D01*
X005673Y002310D01*
X005673Y001492D01*
X005627Y001379D01*
X005627Y000601D01*
X007377Y000601D01*
X007377Y001218D01*
X007216Y001151D01*
X007177Y001151D01*
X007177Y001851D01*
X007077Y001851D01*
X007077Y001151D01*
X007037Y001151D01*
X006872Y001220D01*
X006745Y001346D01*
X006677Y001512D01*
X006677Y001851D01*
X007076Y001851D01*
X007076Y001951D01*
X006677Y001951D01*
X006677Y002291D01*
X006745Y002456D01*
X006872Y002583D01*
X007037Y002651D01*
X007077Y002651D01*
X007077Y001951D01*
X007177Y001951D01*
X007177Y002651D01*
X007216Y002651D01*
X007377Y002585D01*
X007377Y002706D01*
X007302Y002706D01*
X007302Y003101D01*
X007203Y003101D01*
X007203Y002706D01*
X006935Y002706D01*
X006847Y002794D01*
X006847Y003101D01*
X007202Y003101D01*
X007202Y003201D01*
X006847Y003201D01*
X006847Y003509D01*
X006935Y003596D01*
X007203Y003596D01*
X007203Y003201D01*
X007302Y003201D01*
X007302Y003596D01*
X007377Y003596D01*
X007377Y004706D01*
X007302Y004706D01*
X007302Y005101D01*
X007203Y005101D01*
X007203Y004706D01*
X006935Y004706D01*
X006847Y004794D01*
X006847Y005101D01*
X007202Y005101D01*
X007202Y005201D01*
X006847Y005201D01*
X006847Y005509D01*
X006935Y005596D01*
X007203Y005596D01*
X007203Y005201D01*
X007302Y005201D01*
X007302Y005596D01*
X007377Y005596D01*
X007377Y006956D01*
X007302Y006956D01*
X007302Y007351D01*
X007203Y007351D01*
X007203Y006956D01*
X006935Y006956D01*
X006847Y007044D01*
X006847Y007351D01*
X007202Y007351D01*
X007202Y007451D01*
X006847Y007451D01*
X006847Y007759D01*
X006935Y007846D01*
X007203Y007846D01*
X007203Y007451D01*
X007302Y007451D01*
X007302Y007846D01*
X007377Y007846D01*
X007377Y010063D01*
X007322Y010008D01*
X006123Y008810D01*
X006123Y008762D01*
X006055Y008598D01*
X005930Y008472D01*
X005765Y008404D01*
X005627Y008404D01*
X005627Y003665D01*
X005648Y003656D01*
X005708Y003596D01*
X005951Y003596D01*
X005951Y003201D01*
X006051Y003201D01*
X006406Y003201D01*
X006406Y003509D01*
X006319Y003596D01*
X006051Y003596D01*
X006051Y003201D01*
X006051Y003101D01*
X006406Y003101D01*
X006406Y002794D01*
X006319Y002706D01*
X006051Y002706D01*
X006051Y003101D01*
X005951Y003101D01*
X005951Y002706D01*
X005708Y002706D01*
X005648Y002647D01*
X005631Y002640D01*
X005631Y002615D02*
X005949Y002615D01*
X005872Y002583D02*
X005745Y002456D01*
X005677Y002291D01*
X005677Y001951D01*
X006076Y001951D01*
X006076Y001851D01*
X005677Y001851D01*
X005677Y001512D01*
X005745Y001346D01*
X005872Y001220D01*
X006037Y001151D01*
X006077Y001151D01*
X006077Y001851D01*
X006177Y001851D01*
X006177Y001951D01*
X006577Y001951D01*
X006577Y002291D01*
X006508Y002456D01*
X006381Y002583D01*
X006216Y002651D01*
X006177Y002651D01*
X006177Y001951D01*
X006077Y001951D01*
X006077Y002651D01*
X006037Y002651D01*
X005872Y002583D01*
X005805Y002516D02*
X005630Y002516D01*
X005629Y002418D02*
X005729Y002418D01*
X005688Y002319D02*
X005670Y002319D01*
X005673Y002221D02*
X005677Y002221D01*
X005673Y002122D02*
X005677Y002122D01*
X005673Y002024D02*
X005677Y002024D01*
X005673Y001925D02*
X006076Y001925D01*
X006077Y002024D02*
X006177Y002024D01*
X006177Y002122D02*
X006077Y002122D01*
X006077Y002221D02*
X006177Y002221D01*
X006177Y002319D02*
X006077Y002319D01*
X006077Y002418D02*
X006177Y002418D01*
X006177Y002516D02*
X006077Y002516D01*
X006077Y002615D02*
X006177Y002615D01*
X006304Y002615D02*
X006949Y002615D01*
X006927Y002713D02*
X006326Y002713D01*
X006406Y002812D02*
X006847Y002812D01*
X006847Y002910D02*
X006406Y002910D01*
X006406Y003009D02*
X006847Y003009D01*
X006847Y003206D02*
X006406Y003206D01*
X006406Y003305D02*
X006847Y003305D01*
X006847Y003403D02*
X006406Y003403D01*
X006406Y003502D02*
X006847Y003502D01*
X007203Y003502D02*
X007302Y003502D01*
X007302Y003403D02*
X007203Y003403D01*
X007203Y003305D02*
X007302Y003305D01*
X007302Y003206D02*
X007203Y003206D01*
X007202Y003107D02*
X006051Y003107D01*
X006051Y003009D02*
X005951Y003009D01*
X005951Y002910D02*
X006051Y002910D01*
X006051Y002812D02*
X005951Y002812D01*
X005951Y002713D02*
X006051Y002713D01*
X006051Y003206D02*
X005951Y003206D01*
X005951Y003305D02*
X006051Y003305D01*
X006051Y003403D02*
X005951Y003403D01*
X005951Y003502D02*
X006051Y003502D01*
X005704Y003600D02*
X007377Y003600D01*
X007377Y003699D02*
X005627Y003699D01*
X005627Y003797D02*
X007377Y003797D01*
X007377Y003896D02*
X005627Y003896D01*
X005627Y003994D02*
X007377Y003994D01*
X007377Y004093D02*
X005627Y004093D01*
X005627Y004191D02*
X007377Y004191D01*
X007377Y004290D02*
X005627Y004290D01*
X005627Y004389D02*
X007377Y004389D01*
X007377Y004487D02*
X005627Y004487D01*
X005627Y004586D02*
X007377Y004586D01*
X007377Y004684D02*
X005627Y004684D01*
X005627Y004783D02*
X006858Y004783D01*
X006847Y004881D02*
X005627Y004881D01*
X005627Y004980D02*
X006847Y004980D01*
X006847Y005078D02*
X005627Y005078D01*
X005627Y005177D02*
X007202Y005177D01*
X007203Y005275D02*
X007302Y005275D01*
X007302Y005374D02*
X007203Y005374D01*
X007203Y005473D02*
X007302Y005473D01*
X007302Y005571D02*
X007203Y005571D01*
X007377Y005670D02*
X005627Y005670D01*
X005627Y005768D02*
X007377Y005768D01*
X007377Y005867D02*
X005627Y005867D01*
X005627Y005965D02*
X007377Y005965D01*
X007377Y006064D02*
X005627Y006064D01*
X005627Y006162D02*
X007377Y006162D01*
X007377Y006261D02*
X005627Y006261D01*
X005627Y006359D02*
X007377Y006359D01*
X007377Y006458D02*
X005627Y006458D01*
X005627Y006556D02*
X007377Y006556D01*
X007377Y006655D02*
X005627Y006655D01*
X005627Y006754D02*
X007377Y006754D01*
X007377Y006852D02*
X005627Y006852D01*
X005627Y006951D02*
X007377Y006951D01*
X007302Y007049D02*
X007203Y007049D01*
X007203Y007148D02*
X007302Y007148D01*
X007302Y007246D02*
X007203Y007246D01*
X007203Y007345D02*
X007302Y007345D01*
X007202Y007443D02*
X005627Y007443D01*
X005627Y007345D02*
X006847Y007345D01*
X006847Y007246D02*
X005627Y007246D01*
X005627Y007148D02*
X006847Y007148D01*
X006847Y007049D02*
X005627Y007049D01*
X005627Y007542D02*
X006847Y007542D01*
X006847Y007640D02*
X005627Y007640D01*
X005627Y007739D02*
X006847Y007739D01*
X006926Y007838D02*
X005627Y007838D01*
X005627Y007936D02*
X007377Y007936D01*
X007377Y008035D02*
X005627Y008035D01*
X005627Y008133D02*
X007377Y008133D01*
X007377Y008232D02*
X005627Y008232D01*
X005627Y008330D02*
X007377Y008330D01*
X007377Y008429D02*
X005825Y008429D01*
X005985Y008527D02*
X007377Y008527D01*
X007377Y008626D02*
X006067Y008626D01*
X006108Y008724D02*
X007377Y008724D01*
X007377Y008823D02*
X006137Y008823D01*
X006235Y008922D02*
X007377Y008922D01*
X007377Y009020D02*
X006334Y009020D01*
X006432Y009119D02*
X007377Y009119D01*
X007377Y009217D02*
X006531Y009217D01*
X006629Y009316D02*
X007377Y009316D01*
X007377Y009414D02*
X006728Y009414D01*
X006826Y009513D02*
X007377Y009513D01*
X007377Y009611D02*
X006925Y009611D01*
X007024Y009710D02*
X007377Y009710D01*
X007377Y009808D02*
X007122Y009808D01*
X007221Y009907D02*
X007377Y009907D01*
X007377Y010006D02*
X007319Y010006D01*
X007627Y010006D02*
X010669Y010006D01*
X010669Y010104D02*
X007627Y010104D01*
X007627Y010203D02*
X010669Y010203D01*
X010669Y010301D02*
X007627Y010301D01*
X007627Y010400D02*
X010669Y010400D01*
X010669Y010498D02*
X007627Y010498D01*
X007627Y010597D02*
X010669Y010597D01*
X010669Y010695D02*
X007627Y010695D01*
X007627Y010794D02*
X010669Y010794D01*
X010669Y010892D02*
X007627Y010892D01*
X007627Y010991D02*
X010669Y010991D01*
X010669Y011089D02*
X007627Y011089D01*
X007627Y011188D02*
X010669Y011188D01*
X010669Y011287D02*
X007627Y011287D01*
X007627Y011385D02*
X010669Y011385D01*
X010669Y011484D02*
X007627Y011484D01*
X007627Y011582D02*
X010669Y011582D01*
X010669Y011681D02*
X007627Y011681D01*
X007627Y011779D02*
X010669Y011779D01*
X010669Y011878D02*
X007627Y011878D01*
X007627Y011976D02*
X010669Y011976D01*
X010669Y012075D02*
X007627Y012075D01*
X007627Y012173D02*
X010669Y012173D01*
X010669Y012272D02*
X007627Y012272D01*
X007627Y012371D02*
X010669Y012371D01*
X010669Y012469D02*
X007627Y012469D01*
X007627Y012568D02*
X010669Y012568D01*
X010669Y012666D02*
X007627Y012666D01*
X007627Y012765D02*
X010669Y012765D01*
X010669Y012863D02*
X007627Y012863D01*
X007627Y012962D02*
X010669Y012962D01*
X010669Y013060D02*
X007627Y013060D01*
X007627Y013119D02*
X007646Y013127D01*
X007716Y013196D01*
X007753Y013287D01*
X007753Y014015D01*
X007716Y014106D01*
X007662Y014160D01*
X007708Y014206D01*
X007951Y014206D01*
X007951Y014601D01*
X008051Y014601D01*
X008051Y014701D01*
X008406Y014701D01*
X008406Y015009D01*
X008319Y015096D01*
X008051Y015096D01*
X008051Y014701D01*
X007951Y014701D01*
X007951Y015096D01*
X007708Y015096D01*
X007663Y015141D01*
X007708Y015186D01*
X007951Y015186D01*
X007951Y015601D01*
X008051Y015601D01*
X008051Y015701D01*
X008406Y015701D01*
X008406Y016028D01*
X008319Y016116D01*
X008051Y016116D01*
X008051Y015701D01*
X007951Y015701D01*
X007951Y016116D01*
X007708Y016116D01*
X007663Y016161D01*
X007708Y016206D01*
X007951Y016206D01*
X007951Y016601D01*
X008051Y016601D01*
X008051Y016701D01*
X008406Y016701D01*
X008406Y017009D01*
X008319Y017096D01*
X008051Y017096D01*
X008051Y016701D01*
X007951Y016701D01*
X007951Y017096D01*
X007708Y017096D01*
X007653Y017151D01*
X010669Y017151D01*
X010669Y000601D01*
X007627Y000601D01*
X007627Y001379D01*
X007673Y001492D01*
X007673Y002310D01*
X007627Y002423D01*
X007627Y002638D01*
X007648Y002647D01*
X007708Y002706D01*
X007951Y002706D01*
X007951Y003101D01*
X008051Y003101D01*
X008051Y003201D01*
X008406Y003201D01*
X008406Y003509D01*
X008319Y003596D01*
X008051Y003596D01*
X008051Y003201D01*
X007951Y003201D01*
X007951Y003596D01*
X007708Y003596D01*
X007648Y003656D01*
X007627Y003665D01*
X007627Y004638D01*
X007648Y004647D01*
X007708Y004706D01*
X007951Y004706D01*
X007951Y005101D01*
X008051Y005101D01*
X008051Y005201D01*
X008406Y005201D01*
X008406Y005509D01*
X008319Y005596D01*
X008051Y005596D01*
X008051Y005201D01*
X007951Y005201D01*
X007951Y005596D01*
X007708Y005596D01*
X007648Y005656D01*
X007627Y005665D01*
X007627Y006888D01*
X007648Y006897D01*
X007708Y006956D01*
X007951Y006956D01*
X007951Y007351D01*
X008051Y007351D01*
X008051Y007451D01*
X008406Y007451D01*
X008406Y007759D01*
X008319Y007846D01*
X008051Y007846D01*
X008051Y007451D01*
X007951Y007451D01*
X007951Y007846D01*
X007708Y007846D01*
X007648Y007906D01*
X007627Y007915D01*
X007627Y013119D01*
X007678Y013159D02*
X010669Y013159D01*
X010669Y013257D02*
X007741Y013257D01*
X007753Y013356D02*
X010669Y013356D01*
X010669Y013455D02*
X007753Y013455D01*
X007753Y013553D02*
X010669Y013553D01*
X010669Y013652D02*
X007753Y013652D01*
X007753Y013750D02*
X010669Y013750D01*
X010669Y013849D02*
X007753Y013849D01*
X007753Y013947D02*
X010669Y013947D01*
X010669Y014046D02*
X007741Y014046D01*
X007677Y014144D02*
X010669Y014144D01*
X010669Y014243D02*
X008356Y014243D01*
X008319Y014206D02*
X008406Y014294D01*
X008406Y014601D01*
X008051Y014601D01*
X008051Y014206D01*
X008319Y014206D01*
X008406Y014341D02*
X010669Y014341D01*
X010669Y014440D02*
X008406Y014440D01*
X008406Y014539D02*
X010669Y014539D01*
X010669Y014637D02*
X008051Y014637D01*
X008051Y014539D02*
X007951Y014539D01*
X007951Y014440D02*
X008051Y014440D01*
X008051Y014341D02*
X007951Y014341D01*
X007951Y014243D02*
X008051Y014243D01*
X008051Y014736D02*
X007951Y014736D01*
X007951Y014834D02*
X008051Y014834D01*
X008051Y014933D02*
X007951Y014933D01*
X007951Y015031D02*
X008051Y015031D01*
X008051Y015186D02*
X008319Y015186D01*
X008406Y015274D01*
X008406Y015601D01*
X008051Y015601D01*
X008051Y015186D01*
X008051Y015228D02*
X007951Y015228D01*
X007951Y015327D02*
X008051Y015327D01*
X008051Y015425D02*
X007951Y015425D01*
X007951Y015524D02*
X008051Y015524D01*
X008051Y015622D02*
X010669Y015622D01*
X010669Y015524D02*
X008406Y015524D01*
X008406Y015425D02*
X010669Y015425D01*
X010669Y015327D02*
X008406Y015327D01*
X008361Y015228D02*
X010669Y015228D01*
X010669Y015130D02*
X007674Y015130D01*
X007951Y015721D02*
X008051Y015721D01*
X008051Y015820D02*
X007951Y015820D01*
X007951Y015918D02*
X008051Y015918D01*
X008051Y016017D02*
X007951Y016017D01*
X007951Y016115D02*
X008051Y016115D01*
X008051Y016206D02*
X008319Y016206D01*
X008406Y016294D01*
X008406Y016601D01*
X008051Y016601D01*
X008051Y016206D01*
X008051Y016214D02*
X007951Y016214D01*
X007951Y016312D02*
X008051Y016312D01*
X008051Y016411D02*
X007951Y016411D01*
X007951Y016509D02*
X008051Y016509D01*
X008051Y016608D02*
X010669Y016608D01*
X010669Y016706D02*
X008406Y016706D01*
X008406Y016805D02*
X010669Y016805D01*
X010669Y016904D02*
X008406Y016904D01*
X008406Y017002D02*
X010669Y017002D01*
X010669Y017101D02*
X007703Y017101D01*
X007842Y017401D02*
X006861Y017401D01*
X006861Y018689D01*
X006866Y018702D01*
X006863Y018743D01*
X006977Y018857D01*
X007086Y018748D01*
X007148Y018598D01*
X007273Y018472D01*
X007438Y018404D01*
X007615Y018404D01*
X007780Y018472D01*
X007842Y018535D01*
X007842Y017401D01*
X007842Y017495D02*
X006861Y017495D01*
X006861Y017593D02*
X007842Y017593D01*
X007842Y017692D02*
X006861Y017692D01*
X006861Y017790D02*
X007842Y017790D01*
X007842Y017889D02*
X006861Y017889D01*
X006861Y017988D02*
X007842Y017988D01*
X007842Y018086D02*
X006861Y018086D01*
X006861Y018185D02*
X007842Y018185D01*
X007842Y018283D02*
X006861Y018283D01*
X006861Y018382D02*
X007842Y018382D01*
X007842Y018480D02*
X007788Y018480D01*
X007842Y019168D02*
X007780Y019230D01*
X007630Y019292D01*
X007303Y019619D01*
X007261Y019661D01*
X007261Y021359D01*
X007306Y021359D01*
X007396Y021397D01*
X007466Y021466D01*
X007503Y021557D01*
X007503Y021906D01*
X007511Y021925D01*
X007511Y022541D01*
X007562Y022562D01*
X007627Y022627D01*
X007691Y022562D01*
X007742Y022541D01*
X007742Y021925D01*
X007750Y021906D01*
X007750Y021557D01*
X007787Y021466D01*
X007842Y021412D01*
X007842Y019168D01*
X007840Y019170D02*
X007842Y019170D01*
X007842Y019269D02*
X007686Y019269D01*
X007555Y019367D02*
X007842Y019367D01*
X007842Y019466D02*
X007456Y019466D01*
X007358Y019564D02*
X007842Y019564D01*
X007842Y019663D02*
X007261Y019663D01*
X007261Y019761D02*
X007842Y019761D01*
X007842Y019860D02*
X007261Y019860D01*
X007261Y019958D02*
X007842Y019958D01*
X007842Y020057D02*
X007261Y020057D01*
X007261Y020155D02*
X007842Y020155D01*
X007842Y020254D02*
X007261Y020254D01*
X007261Y020353D02*
X007842Y020353D01*
X007842Y020451D02*
X007261Y020451D01*
X007261Y020550D02*
X007842Y020550D01*
X007842Y020648D02*
X007261Y020648D01*
X007261Y020747D02*
X007842Y020747D01*
X007842Y020845D02*
X007261Y020845D01*
X007261Y020944D02*
X007842Y020944D01*
X007842Y021042D02*
X007261Y021042D01*
X007261Y021141D02*
X007842Y021141D01*
X007842Y021239D02*
X007261Y021239D01*
X007261Y021338D02*
X007842Y021338D01*
X007817Y021437D02*
X007436Y021437D01*
X007494Y021535D02*
X007759Y021535D01*
X007750Y021634D02*
X007503Y021634D01*
X007503Y021732D02*
X007750Y021732D01*
X007750Y021831D02*
X007503Y021831D01*
X007511Y021929D02*
X007742Y021929D01*
X007742Y022028D02*
X007511Y022028D01*
X007511Y022126D02*
X007742Y022126D01*
X007742Y022225D02*
X007511Y022225D01*
X007511Y022323D02*
X007742Y022323D01*
X007742Y022422D02*
X007511Y022422D01*
X007511Y022521D02*
X007742Y022521D01*
X007634Y022619D02*
X007619Y022619D01*
X007627Y024175D02*
X007562Y024240D01*
X007471Y024278D01*
X007411Y024278D01*
X007411Y024411D01*
X007466Y024466D01*
X007503Y024557D01*
X007503Y025246D01*
X007466Y025336D01*
X007461Y025341D01*
X007461Y025585D01*
X007473Y025572D01*
X007624Y025510D01*
X007792Y025342D01*
X007792Y025341D01*
X007787Y025336D01*
X007750Y025246D01*
X007750Y024557D01*
X007787Y024466D01*
X007842Y024412D01*
X007842Y024278D01*
X007782Y024278D01*
X007691Y024240D01*
X007627Y024175D01*
X007606Y024196D02*
X007647Y024196D01*
X007777Y024491D02*
X007476Y024491D01*
X007503Y024590D02*
X007750Y024590D01*
X007750Y024688D02*
X007503Y024688D01*
X007503Y024787D02*
X007750Y024787D01*
X007750Y024886D02*
X007503Y024886D01*
X007503Y024984D02*
X007750Y024984D01*
X007750Y025083D02*
X007503Y025083D01*
X007503Y025181D02*
X007750Y025181D01*
X007764Y025280D02*
X007489Y025280D01*
X007461Y025378D02*
X007756Y025378D01*
X007657Y025477D02*
X007461Y025477D01*
X007461Y025575D02*
X007470Y025575D01*
X007411Y024393D02*
X007842Y024393D01*
X007842Y024294D02*
X007411Y024294D01*
X006627Y022627D02*
X006691Y022562D01*
X006742Y022541D01*
X006742Y022443D01*
X006696Y022443D01*
X006627Y022415D01*
X006558Y022443D01*
X006511Y022443D01*
X006511Y022541D01*
X006562Y022562D01*
X006627Y022627D01*
X006634Y022619D02*
X006619Y022619D01*
X006511Y022521D02*
X006742Y022521D01*
X006644Y022422D02*
X006609Y022422D01*
X006627Y024175D02*
X006642Y024191D01*
X006642Y024381D01*
X006627Y024388D01*
X006611Y024381D01*
X006611Y024191D01*
X006627Y024175D01*
X006642Y024196D02*
X006611Y024196D01*
X006611Y024294D02*
X006642Y024294D01*
X005942Y025478D02*
X006001Y025619D01*
X006086Y025704D01*
X006148Y025854D01*
X006273Y025980D01*
X006438Y026048D01*
X006615Y026048D01*
X006692Y026016D01*
X006692Y026262D01*
X006663Y026291D01*
X006627Y026379D01*
X006590Y026291D01*
X006436Y026138D01*
X006235Y026054D01*
X006018Y026054D01*
X005817Y026138D01*
X005663Y026291D01*
X005627Y026379D01*
X005590Y026291D01*
X005461Y026162D01*
X005461Y025341D01*
X005466Y025336D01*
X005503Y025246D01*
X005503Y024557D01*
X005466Y024466D01*
X005411Y024411D01*
X005411Y024278D01*
X005471Y024278D01*
X005562Y024240D01*
X005627Y024175D01*
X005691Y024240D01*
X005782Y024278D01*
X005842Y024278D01*
X005842Y024411D01*
X005787Y024466D01*
X005750Y024557D01*
X005750Y025246D01*
X005787Y025336D01*
X005857Y025406D01*
X005942Y025441D01*
X005942Y025478D01*
X005942Y025477D02*
X005461Y025477D01*
X005461Y025575D02*
X005982Y025575D01*
X006055Y025674D02*
X005461Y025674D01*
X005461Y025772D02*
X006114Y025772D01*
X006164Y025871D02*
X005461Y025871D01*
X005461Y025970D02*
X006263Y025970D01*
X006269Y026068D02*
X006692Y026068D01*
X006692Y026167D02*
X006465Y026167D01*
X006564Y026265D02*
X006689Y026265D01*
X006633Y026364D02*
X006620Y026364D01*
X005985Y026068D02*
X005461Y026068D01*
X005465Y026167D02*
X005788Y026167D01*
X005689Y026265D02*
X005564Y026265D01*
X005620Y026364D02*
X005633Y026364D01*
X005461Y025378D02*
X005829Y025378D01*
X005764Y025280D02*
X005489Y025280D01*
X005503Y025181D02*
X005750Y025181D01*
X005750Y025083D02*
X005503Y025083D01*
X005503Y024984D02*
X005750Y024984D01*
X005750Y024886D02*
X005503Y024886D01*
X005503Y024787D02*
X005750Y024787D01*
X005750Y024688D02*
X005503Y024688D01*
X005503Y024590D02*
X005750Y024590D01*
X005777Y024491D02*
X005476Y024491D01*
X005411Y024393D02*
X005842Y024393D01*
X005842Y024294D02*
X005411Y024294D01*
X005606Y024196D02*
X005647Y024196D01*
X005627Y022627D02*
X005691Y022562D01*
X005742Y022541D01*
X005742Y021925D01*
X005750Y021906D01*
X005750Y021557D01*
X005787Y021466D01*
X005792Y021461D01*
X005792Y019640D01*
X005730Y019490D01*
X005730Y019312D01*
X005761Y019236D01*
X005111Y019236D01*
X005111Y020739D01*
X005116Y020752D01*
X005113Y020788D01*
X005118Y020798D01*
X005194Y020875D01*
X005303Y020983D01*
X005361Y021125D01*
X005361Y021382D01*
X005396Y021397D01*
X005466Y021466D01*
X005503Y021557D01*
X005503Y022246D01*
X005466Y022336D01*
X005461Y022341D01*
X005461Y022524D01*
X005471Y022524D01*
X005562Y022562D01*
X005627Y022627D01*
X005634Y022619D02*
X005619Y022619D01*
X005742Y022521D02*
X005461Y022521D01*
X005461Y022422D02*
X005742Y022422D01*
X005742Y022323D02*
X005471Y022323D01*
X005503Y022225D02*
X005742Y022225D01*
X005742Y022126D02*
X005503Y022126D01*
X005503Y022028D02*
X005742Y022028D01*
X005742Y021929D02*
X005503Y021929D01*
X005503Y021831D02*
X005750Y021831D01*
X005750Y021732D02*
X005503Y021732D01*
X005503Y021634D02*
X005750Y021634D01*
X005759Y021535D02*
X005494Y021535D01*
X005436Y021437D02*
X005792Y021437D01*
X005792Y021338D02*
X005361Y021338D01*
X005361Y021239D02*
X005792Y021239D01*
X005792Y021141D02*
X005361Y021141D01*
X005327Y021042D02*
X005792Y021042D01*
X005792Y020944D02*
X005263Y020944D01*
X005165Y020845D02*
X005792Y020845D01*
X005792Y020747D02*
X005114Y020747D01*
X005111Y020648D02*
X005792Y020648D01*
X005792Y020550D02*
X005111Y020550D01*
X005111Y020451D02*
X005792Y020451D01*
X005792Y020353D02*
X005111Y020353D01*
X005111Y020254D02*
X005792Y020254D01*
X005792Y020155D02*
X005111Y020155D01*
X005111Y020057D02*
X005792Y020057D01*
X005792Y019958D02*
X005111Y019958D01*
X005111Y019860D02*
X005792Y019860D01*
X005792Y019761D02*
X005111Y019761D01*
X005111Y019663D02*
X005792Y019663D01*
X005761Y019564D02*
X005111Y019564D01*
X005111Y019466D02*
X005730Y019466D01*
X005730Y019367D02*
X005111Y019367D01*
X005111Y019269D02*
X005748Y019269D01*
X006092Y018467D02*
X006092Y017401D01*
X002577Y017401D01*
X002577Y021957D01*
X002659Y021875D01*
X003186Y021348D01*
X003248Y021198D01*
X003373Y021072D01*
X003538Y021004D01*
X003715Y021004D01*
X003742Y021015D01*
X003742Y019690D01*
X003680Y019540D01*
X003680Y019362D01*
X003748Y019198D01*
X003873Y019072D01*
X004038Y019004D01*
X004215Y019004D01*
X004342Y019057D01*
X004342Y018775D01*
X004401Y018633D01*
X004509Y018525D01*
X004650Y018467D01*
X004803Y018467D01*
X006092Y018467D01*
X006092Y018382D02*
X002577Y018382D01*
X002577Y018480D02*
X004617Y018480D01*
X004455Y018579D02*
X002577Y018579D01*
X002577Y018677D02*
X004382Y018677D01*
X004342Y018776D02*
X002577Y018776D01*
X002577Y018874D02*
X004342Y018874D01*
X004342Y018973D02*
X002577Y018973D01*
X002577Y019071D02*
X003876Y019071D01*
X003776Y019170D02*
X002577Y019170D01*
X002577Y019269D02*
X003719Y019269D01*
X003680Y019367D02*
X002577Y019367D01*
X002577Y019466D02*
X003680Y019466D01*
X003690Y019564D02*
X002577Y019564D01*
X002577Y019663D02*
X003731Y019663D01*
X003742Y019761D02*
X002577Y019761D01*
X002577Y019860D02*
X003742Y019860D01*
X003742Y019958D02*
X002577Y019958D01*
X002577Y020057D02*
X003742Y020057D01*
X003742Y020155D02*
X002577Y020155D01*
X002577Y020254D02*
X003742Y020254D01*
X003742Y020353D02*
X002577Y020353D01*
X002577Y020451D02*
X003742Y020451D01*
X003742Y020550D02*
X002577Y020550D01*
X002577Y020648D02*
X003742Y020648D01*
X003742Y020747D02*
X002577Y020747D01*
X002577Y020845D02*
X003742Y020845D01*
X003742Y020944D02*
X002577Y020944D01*
X002577Y021042D02*
X003446Y021042D01*
X003305Y021141D02*
X002577Y021141D01*
X002577Y021239D02*
X003231Y021239D01*
X003190Y021338D02*
X002577Y021338D01*
X002577Y021437D02*
X003097Y021437D01*
X002999Y021535D02*
X002577Y021535D01*
X002577Y021634D02*
X002900Y021634D01*
X002802Y021732D02*
X002577Y021732D01*
X002577Y021831D02*
X002703Y021831D01*
X002605Y021929D02*
X002577Y021929D01*
X003261Y022361D02*
X003261Y022536D01*
X003338Y022504D01*
X003515Y022504D01*
X003680Y022572D01*
X003680Y022573D01*
X003691Y022562D01*
X003782Y022524D01*
X003842Y022524D01*
X003842Y022391D01*
X003787Y022336D01*
X003750Y022246D01*
X003750Y021884D01*
X003730Y021892D01*
X003261Y022361D01*
X003298Y022323D02*
X003782Y022323D01*
X003750Y022225D02*
X003397Y022225D01*
X003495Y022126D02*
X003750Y022126D01*
X003750Y022028D02*
X003594Y022028D01*
X003692Y021929D02*
X003750Y021929D01*
X003842Y022422D02*
X003261Y022422D01*
X003261Y022521D02*
X003299Y022521D01*
X003555Y022521D02*
X003842Y022521D01*
X004611Y022521D02*
X004692Y022521D01*
X004692Y022562D02*
X004692Y022442D01*
X004627Y022415D01*
X004611Y022421D01*
X004611Y022611D01*
X004627Y022627D01*
X004691Y022562D01*
X004692Y022562D01*
X004634Y022619D02*
X004619Y022619D01*
X004611Y022422D02*
X004644Y022422D01*
X004592Y021373D02*
X004561Y021361D01*
X004561Y021337D01*
X004574Y021342D01*
X004592Y021361D01*
X004592Y021373D01*
X004564Y021338D02*
X004561Y021338D01*
X004627Y024175D02*
X004611Y024191D01*
X004611Y024381D01*
X004627Y024388D01*
X004642Y024381D01*
X004642Y024191D01*
X004627Y024175D01*
X004642Y024196D02*
X004611Y024196D01*
X004611Y024294D02*
X004642Y024294D01*
X004627Y025415D02*
X004561Y025442D01*
X004561Y025662D01*
X004623Y025812D01*
X004623Y025990D01*
X004555Y026154D01*
X004504Y026205D01*
X004590Y026291D01*
X004627Y026379D01*
X004663Y026291D01*
X004692Y026262D01*
X004692Y025442D01*
X004627Y025415D01*
X004692Y025477D02*
X004561Y025477D01*
X004561Y025575D02*
X004692Y025575D01*
X004692Y025674D02*
X004566Y025674D01*
X004607Y025772D02*
X004692Y025772D01*
X004692Y025871D02*
X004623Y025871D01*
X004623Y025970D02*
X004692Y025970D01*
X004692Y026068D02*
X004591Y026068D01*
X004543Y026167D02*
X004692Y026167D01*
X004689Y026265D02*
X004564Y026265D01*
X004620Y026364D02*
X004633Y026364D01*
X005590Y027511D02*
X005511Y027590D01*
X005511Y027878D01*
X005503Y027897D01*
X005503Y028167D01*
X005750Y028167D01*
X005750Y027897D01*
X005742Y027878D01*
X005742Y027590D01*
X005663Y027511D01*
X005627Y027423D01*
X005590Y027511D01*
X005555Y027546D02*
X005698Y027546D01*
X005742Y027645D02*
X005511Y027645D01*
X005511Y027743D02*
X005742Y027743D01*
X005742Y027842D02*
X005511Y027842D01*
X005503Y027940D02*
X005750Y027940D01*
X005750Y028039D02*
X005503Y028039D01*
X005503Y028137D02*
X005750Y028137D01*
X005637Y027448D02*
X005616Y027448D01*
X007311Y028441D02*
X007311Y028628D01*
X007281Y028701D01*
X007972Y028701D01*
X007942Y028628D01*
X007942Y028441D01*
X007857Y028406D01*
X007787Y028336D01*
X007750Y028246D01*
X007750Y027897D01*
X007742Y027878D01*
X007742Y027590D01*
X007663Y027511D01*
X007627Y027423D01*
X007590Y027511D01*
X007511Y027590D01*
X007511Y027878D01*
X007503Y027897D01*
X007503Y028246D01*
X007466Y028336D01*
X007396Y028406D01*
X007311Y028441D01*
X007330Y028433D02*
X007923Y028433D01*
X007942Y028532D02*
X007311Y028532D01*
X007310Y028630D02*
X007943Y028630D01*
X007787Y028335D02*
X007466Y028335D01*
X007503Y028236D02*
X007750Y028236D01*
X007750Y028137D02*
X007503Y028137D01*
X007503Y028039D02*
X007750Y028039D01*
X007750Y027940D02*
X007503Y027940D01*
X007511Y027842D02*
X007742Y027842D01*
X007742Y027743D02*
X007511Y027743D01*
X007511Y027645D02*
X007742Y027645D01*
X007698Y027546D02*
X007555Y027546D01*
X007616Y027448D02*
X007637Y027448D01*
X008167Y026054D02*
X008235Y026054D01*
X008436Y026138D01*
X008590Y026291D01*
X008627Y026379D01*
X008663Y026291D01*
X008692Y026262D01*
X008692Y025442D01*
X008627Y025415D01*
X008561Y025442D01*
X008561Y025578D01*
X008503Y025719D01*
X008394Y025827D01*
X008168Y026054D01*
X008167Y026054D01*
X008269Y026068D02*
X008692Y026068D01*
X008692Y025970D02*
X008252Y025970D01*
X008351Y025871D02*
X008692Y025871D01*
X008692Y025772D02*
X008449Y025772D01*
X008521Y025674D02*
X008692Y025674D01*
X008692Y025575D02*
X008561Y025575D01*
X008561Y025477D02*
X008692Y025477D01*
X008692Y026167D02*
X008465Y026167D01*
X008564Y026265D02*
X008689Y026265D01*
X008633Y026364D02*
X008620Y026364D01*
X008627Y024388D02*
X008642Y024381D01*
X008642Y024191D01*
X008627Y024175D01*
X008611Y024191D01*
X008611Y024381D01*
X008627Y024388D01*
X008611Y024294D02*
X008642Y024294D01*
X008642Y024196D02*
X008611Y024196D01*
X008627Y022627D02*
X008691Y022562D01*
X008742Y022541D01*
X008742Y022443D01*
X008696Y022443D01*
X008627Y022415D01*
X008558Y022443D01*
X008511Y022443D01*
X008511Y022541D01*
X008562Y022562D01*
X008627Y022627D01*
X008634Y022619D02*
X008619Y022619D01*
X008511Y022521D02*
X008742Y022521D01*
X008644Y022422D02*
X008609Y022422D01*
X008627Y021388D02*
X008696Y021359D01*
X008825Y021359D01*
X008859Y021325D01*
X009036Y021148D01*
X009098Y020998D01*
X009223Y020872D01*
X009388Y020804D01*
X009565Y020804D01*
X009730Y020872D01*
X009855Y020998D01*
X009923Y021162D01*
X009923Y021340D01*
X009855Y021504D01*
X009730Y021630D01*
X009580Y021692D01*
X009503Y021768D01*
X009503Y021906D01*
X009511Y021925D01*
X009511Y022078D01*
X009511Y022541D01*
X009562Y022562D01*
X009631Y022631D01*
X009669Y022722D01*
X009669Y023332D01*
X009640Y023401D01*
X009656Y023438D01*
X009738Y023404D01*
X009915Y023404D01*
X010080Y023472D01*
X010205Y023598D01*
X010273Y023762D01*
X010273Y023940D01*
X010205Y024104D01*
X010161Y024148D01*
X010161Y028075D01*
X010161Y028228D01*
X010103Y028369D01*
X009771Y028701D01*
X010669Y028701D01*
X010669Y017401D01*
X008611Y017401D01*
X008611Y021381D01*
X008627Y021388D01*
X008611Y021338D02*
X008846Y021338D01*
X008859Y021325D02*
X008859Y021325D01*
X008944Y021239D02*
X008611Y021239D01*
X008611Y021141D02*
X009039Y021141D01*
X009079Y021042D02*
X008611Y021042D01*
X008611Y020944D02*
X009152Y020944D01*
X009289Y020845D02*
X008611Y020845D01*
X008611Y020747D02*
X010669Y020747D01*
X010669Y020845D02*
X009664Y020845D01*
X009801Y020944D02*
X010669Y020944D01*
X010669Y021042D02*
X009874Y021042D01*
X009915Y021141D02*
X010669Y021141D01*
X010669Y021239D02*
X009923Y021239D01*
X009923Y021338D02*
X010669Y021338D01*
X010669Y021437D02*
X009883Y021437D01*
X009825Y021535D02*
X010669Y021535D01*
X010669Y021634D02*
X009721Y021634D01*
X009540Y021732D02*
X010669Y021732D01*
X010669Y021831D02*
X009503Y021831D01*
X009511Y021929D02*
X010669Y021929D01*
X010669Y022028D02*
X009511Y022028D01*
X009511Y022126D02*
X010669Y022126D01*
X010669Y022225D02*
X009511Y022225D01*
X009511Y022323D02*
X010669Y022323D01*
X010669Y022422D02*
X009511Y022422D01*
X009511Y022521D02*
X010669Y022521D01*
X010669Y022619D02*
X009619Y022619D01*
X009667Y022718D02*
X010669Y022718D01*
X010669Y022816D02*
X009669Y022816D01*
X009669Y022915D02*
X010669Y022915D01*
X010669Y023013D02*
X009669Y023013D01*
X009669Y023112D02*
X010669Y023112D01*
X010669Y023210D02*
X009669Y023210D01*
X009669Y023309D02*
X010669Y023309D01*
X010669Y023407D02*
X009923Y023407D01*
X010113Y023506D02*
X010669Y023506D01*
X010669Y023604D02*
X010208Y023604D01*
X010249Y023703D02*
X010669Y023703D01*
X010669Y023802D02*
X010273Y023802D01*
X010273Y023900D02*
X010669Y023900D01*
X010669Y023999D02*
X010249Y023999D01*
X010208Y024097D02*
X010669Y024097D01*
X010669Y024196D02*
X010161Y024196D01*
X010161Y024294D02*
X010669Y024294D01*
X010669Y024393D02*
X010161Y024393D01*
X010161Y024491D02*
X010669Y024491D01*
X010669Y024590D02*
X010161Y024590D01*
X010161Y024688D02*
X010669Y024688D01*
X010669Y024787D02*
X010161Y024787D01*
X010161Y024886D02*
X010669Y024886D01*
X010669Y024984D02*
X010161Y024984D01*
X010161Y025083D02*
X010669Y025083D01*
X010669Y025181D02*
X010161Y025181D01*
X010161Y025280D02*
X010669Y025280D01*
X010669Y025378D02*
X010161Y025378D01*
X010161Y025477D02*
X010669Y025477D01*
X010669Y025575D02*
X010161Y025575D01*
X010161Y025674D02*
X010669Y025674D01*
X010669Y025772D02*
X010161Y025772D01*
X010161Y025871D02*
X010669Y025871D01*
X010669Y025970D02*
X010161Y025970D01*
X010161Y026068D02*
X010669Y026068D01*
X010669Y026167D02*
X010161Y026167D01*
X010161Y026265D02*
X010669Y026265D01*
X010669Y026364D02*
X010161Y026364D01*
X010161Y026462D02*
X010669Y026462D01*
X010669Y026561D02*
X010161Y026561D01*
X010161Y026659D02*
X010669Y026659D01*
X010669Y026758D02*
X010161Y026758D01*
X010161Y026856D02*
X010669Y026856D01*
X010669Y026955D02*
X010161Y026955D01*
X010161Y027054D02*
X010669Y027054D01*
X010669Y027152D02*
X010161Y027152D01*
X010161Y027251D02*
X010669Y027251D01*
X010669Y027349D02*
X010161Y027349D01*
X010161Y027448D02*
X010669Y027448D01*
X010669Y027546D02*
X010161Y027546D01*
X010161Y027645D02*
X010669Y027645D01*
X010669Y027743D02*
X010161Y027743D01*
X010161Y027842D02*
X010669Y027842D01*
X010669Y027940D02*
X010161Y027940D01*
X010161Y028039D02*
X010669Y028039D01*
X010669Y028137D02*
X010161Y028137D01*
X010158Y028236D02*
X010669Y028236D01*
X010669Y028335D02*
X010117Y028335D01*
X010039Y028433D02*
X010669Y028433D01*
X010669Y028532D02*
X009940Y028532D01*
X009842Y028630D02*
X010669Y028630D01*
X009730Y023407D02*
X009643Y023407D01*
X010669Y020648D02*
X008611Y020648D01*
X008611Y020550D02*
X010669Y020550D01*
X010669Y020451D02*
X008611Y020451D01*
X008611Y020353D02*
X010669Y020353D01*
X010669Y020254D02*
X008611Y020254D01*
X008611Y020155D02*
X010669Y020155D01*
X010669Y020057D02*
X008611Y020057D01*
X008611Y019958D02*
X010669Y019958D01*
X010669Y019860D02*
X008611Y019860D01*
X008611Y019761D02*
X010669Y019761D01*
X010669Y019663D02*
X008611Y019663D01*
X008611Y019564D02*
X010669Y019564D01*
X010669Y019466D02*
X008611Y019466D01*
X008611Y019367D02*
X010669Y019367D01*
X010669Y019269D02*
X008611Y019269D01*
X008611Y019170D02*
X010669Y019170D01*
X010669Y019071D02*
X008611Y019071D01*
X008611Y018973D02*
X010669Y018973D01*
X010669Y018874D02*
X008611Y018874D01*
X008611Y018776D02*
X010669Y018776D01*
X010669Y018677D02*
X008611Y018677D01*
X008611Y018579D02*
X010669Y018579D01*
X010669Y018480D02*
X008611Y018480D01*
X008611Y018382D02*
X010669Y018382D01*
X010669Y018283D02*
X008611Y018283D01*
X008611Y018185D02*
X010669Y018185D01*
X010669Y018086D02*
X008611Y018086D01*
X008611Y017988D02*
X010669Y017988D01*
X010669Y017889D02*
X008611Y017889D01*
X008611Y017790D02*
X010669Y017790D01*
X010669Y017692D02*
X008611Y017692D01*
X008611Y017593D02*
X010669Y017593D01*
X010669Y017495D02*
X008611Y017495D01*
X008406Y016509D02*
X010669Y016509D01*
X010669Y016411D02*
X008406Y016411D01*
X008406Y016312D02*
X010669Y016312D01*
X010669Y016214D02*
X008326Y016214D01*
X008320Y016115D02*
X010669Y016115D01*
X010669Y016017D02*
X008406Y016017D01*
X008406Y015918D02*
X010669Y015918D01*
X010669Y015820D02*
X008406Y015820D01*
X008406Y015721D02*
X010669Y015721D01*
X010669Y015031D02*
X008384Y015031D01*
X008406Y014933D02*
X010669Y014933D01*
X010669Y014834D02*
X008406Y014834D01*
X008406Y014736D02*
X010669Y014736D01*
X010669Y009907D02*
X007627Y009907D01*
X007627Y009808D02*
X010669Y009808D01*
X010669Y009710D02*
X007627Y009710D01*
X007627Y009611D02*
X010669Y009611D01*
X010669Y009513D02*
X007627Y009513D01*
X007627Y009414D02*
X010669Y009414D01*
X010669Y009316D02*
X007627Y009316D01*
X007627Y009217D02*
X010669Y009217D01*
X010669Y009119D02*
X007627Y009119D01*
X007627Y009020D02*
X010669Y009020D01*
X010669Y008922D02*
X007627Y008922D01*
X007627Y008823D02*
X010669Y008823D01*
X010669Y008724D02*
X007627Y008724D01*
X007627Y008626D02*
X010669Y008626D01*
X010669Y008527D02*
X007627Y008527D01*
X007627Y008429D02*
X010669Y008429D01*
X010669Y008330D02*
X007627Y008330D01*
X007627Y008232D02*
X010669Y008232D01*
X010669Y008133D02*
X007627Y008133D01*
X007627Y008035D02*
X010669Y008035D01*
X010669Y007936D02*
X007627Y007936D01*
X007951Y007838D02*
X008051Y007838D01*
X008051Y007739D02*
X007951Y007739D01*
X007951Y007640D02*
X008051Y007640D01*
X008051Y007542D02*
X007951Y007542D01*
X008051Y007443D02*
X010669Y007443D01*
X010669Y007345D02*
X008406Y007345D01*
X008406Y007351D02*
X008051Y007351D01*
X008051Y006956D01*
X008319Y006956D01*
X008406Y007044D01*
X008406Y007351D01*
X008406Y007246D02*
X010669Y007246D01*
X010669Y007148D02*
X008406Y007148D01*
X008406Y007049D02*
X010669Y007049D01*
X010669Y006951D02*
X007702Y006951D01*
X007627Y006852D02*
X010669Y006852D01*
X010669Y006754D02*
X007627Y006754D01*
X007627Y006655D02*
X010669Y006655D01*
X010669Y006556D02*
X007627Y006556D01*
X007627Y006458D02*
X010669Y006458D01*
X010669Y006359D02*
X007627Y006359D01*
X007627Y006261D02*
X010669Y006261D01*
X010669Y006162D02*
X007627Y006162D01*
X007627Y006064D02*
X010669Y006064D01*
X010669Y005965D02*
X007627Y005965D01*
X007627Y005867D02*
X010669Y005867D01*
X010669Y005768D02*
X007627Y005768D01*
X007627Y005670D02*
X010669Y005670D01*
X010669Y005571D02*
X008344Y005571D01*
X008406Y005473D02*
X010669Y005473D01*
X010669Y005374D02*
X008406Y005374D01*
X008406Y005275D02*
X010669Y005275D01*
X010669Y005177D02*
X008051Y005177D01*
X008051Y005101D02*
X008406Y005101D01*
X008406Y004794D01*
X008319Y004706D01*
X008051Y004706D01*
X008051Y005101D01*
X008051Y005078D02*
X007951Y005078D01*
X007951Y004980D02*
X008051Y004980D01*
X008051Y004881D02*
X007951Y004881D01*
X007951Y004783D02*
X008051Y004783D01*
X008051Y005275D02*
X007951Y005275D01*
X007951Y005374D02*
X008051Y005374D01*
X008051Y005473D02*
X007951Y005473D01*
X007951Y005571D02*
X008051Y005571D01*
X008406Y005078D02*
X010669Y005078D01*
X010669Y004980D02*
X008406Y004980D01*
X008406Y004881D02*
X010669Y004881D01*
X010669Y004783D02*
X008395Y004783D01*
X008406Y003502D02*
X010669Y003502D01*
X010669Y003600D02*
X007704Y003600D01*
X007627Y003699D02*
X010669Y003699D01*
X010669Y003797D02*
X007627Y003797D01*
X007627Y003896D02*
X010669Y003896D01*
X010669Y003994D02*
X007627Y003994D01*
X007627Y004093D02*
X010669Y004093D01*
X010669Y004191D02*
X007627Y004191D01*
X007627Y004290D02*
X010669Y004290D01*
X010669Y004389D02*
X007627Y004389D01*
X007627Y004487D02*
X010669Y004487D01*
X010669Y004586D02*
X007627Y004586D01*
X007686Y004684D02*
X010669Y004684D01*
X010669Y003403D02*
X008406Y003403D01*
X008406Y003305D02*
X010669Y003305D01*
X010669Y003206D02*
X008406Y003206D01*
X008406Y003101D02*
X008051Y003101D01*
X008051Y002706D01*
X008319Y002706D01*
X008406Y002794D01*
X008406Y003101D01*
X008406Y003009D02*
X010669Y003009D01*
X010669Y003107D02*
X008051Y003107D01*
X008051Y003009D02*
X007951Y003009D01*
X007951Y002910D02*
X008051Y002910D01*
X008051Y002812D02*
X007951Y002812D01*
X007951Y002713D02*
X008051Y002713D01*
X008037Y002651D02*
X007872Y002583D01*
X007745Y002456D01*
X007677Y002291D01*
X007677Y001951D01*
X008076Y001951D01*
X008076Y001851D01*
X007677Y001851D01*
X007677Y001512D01*
X007745Y001346D01*
X007872Y001220D01*
X008037Y001151D01*
X008077Y001151D01*
X008077Y001851D01*
X008177Y001851D01*
X008177Y001951D01*
X008577Y001951D01*
X008577Y002291D01*
X008508Y002456D01*
X008381Y002583D01*
X008216Y002651D01*
X008177Y002651D01*
X008177Y001951D01*
X008077Y001951D01*
X008077Y002651D01*
X008037Y002651D01*
X008077Y002615D02*
X008177Y002615D01*
X008177Y002516D02*
X008077Y002516D01*
X008077Y002418D02*
X008177Y002418D01*
X008177Y002319D02*
X008077Y002319D01*
X008077Y002221D02*
X008177Y002221D01*
X008177Y002122D02*
X008077Y002122D01*
X008077Y002024D02*
X008177Y002024D01*
X008177Y001925D02*
X009076Y001925D01*
X009076Y001951D02*
X009076Y001851D01*
X008677Y001851D01*
X008677Y001512D01*
X008745Y001346D01*
X008872Y001220D01*
X009037Y001151D01*
X009077Y001151D01*
X009077Y001851D01*
X009177Y001851D01*
X009177Y001951D01*
X009577Y001951D01*
X009577Y002291D01*
X009508Y002456D01*
X009381Y002583D01*
X009216Y002651D01*
X009177Y002651D01*
X009177Y001951D01*
X009077Y001951D01*
X009077Y002651D01*
X009037Y002651D01*
X008872Y002583D01*
X008745Y002456D01*
X008677Y002291D01*
X008677Y001951D01*
X009076Y001951D01*
X009077Y002024D02*
X009177Y002024D01*
X009177Y002122D02*
X009077Y002122D01*
X009077Y002221D02*
X009177Y002221D01*
X009177Y002319D02*
X009077Y002319D01*
X009077Y002418D02*
X009177Y002418D01*
X009177Y002516D02*
X009077Y002516D01*
X009077Y002615D02*
X009177Y002615D01*
X009304Y002615D02*
X010669Y002615D01*
X010669Y002713D02*
X008326Y002713D01*
X008304Y002615D02*
X008949Y002615D01*
X008805Y002516D02*
X008448Y002516D01*
X008524Y002418D02*
X008729Y002418D01*
X008688Y002319D02*
X008565Y002319D01*
X008577Y002221D02*
X008677Y002221D01*
X008677Y002122D02*
X008577Y002122D01*
X008577Y002024D02*
X008677Y002024D01*
X008677Y001826D02*
X008577Y001826D01*
X008577Y001851D02*
X008177Y001851D01*
X008177Y001151D01*
X008216Y001151D01*
X008381Y001220D01*
X008508Y001346D01*
X008577Y001512D01*
X008577Y001851D01*
X008577Y001728D02*
X008677Y001728D01*
X008677Y001629D02*
X008577Y001629D01*
X008577Y001531D02*
X008677Y001531D01*
X008709Y001432D02*
X008544Y001432D01*
X008496Y001334D02*
X008758Y001334D01*
X008856Y001235D02*
X008397Y001235D01*
X008177Y001235D02*
X008077Y001235D01*
X008077Y001334D02*
X008177Y001334D01*
X008177Y001432D02*
X008077Y001432D01*
X008077Y001531D02*
X008177Y001531D01*
X008177Y001629D02*
X008077Y001629D01*
X008077Y001728D02*
X008177Y001728D01*
X008177Y001826D02*
X008077Y001826D01*
X008076Y001925D02*
X007673Y001925D01*
X007673Y002024D02*
X007677Y002024D01*
X007673Y002122D02*
X007677Y002122D01*
X007673Y002221D02*
X007677Y002221D01*
X007670Y002319D02*
X007688Y002319D01*
X007729Y002418D02*
X007629Y002418D01*
X007627Y002516D02*
X007805Y002516D01*
X007949Y002615D02*
X007627Y002615D01*
X007377Y002615D02*
X007304Y002615D01*
X007302Y002713D02*
X007203Y002713D01*
X007203Y002812D02*
X007302Y002812D01*
X007302Y002910D02*
X007203Y002910D01*
X007203Y003009D02*
X007302Y003009D01*
X007177Y002615D02*
X007077Y002615D01*
X007077Y002516D02*
X007177Y002516D01*
X007177Y002418D02*
X007077Y002418D01*
X007077Y002319D02*
X007177Y002319D01*
X007177Y002221D02*
X007077Y002221D01*
X007077Y002122D02*
X007177Y002122D01*
X007177Y002024D02*
X007077Y002024D01*
X007076Y001925D02*
X006177Y001925D01*
X006177Y001851D02*
X006577Y001851D01*
X006577Y001512D01*
X006508Y001346D01*
X006381Y001220D01*
X006216Y001151D01*
X006177Y001151D01*
X006177Y001851D01*
X006177Y001826D02*
X006077Y001826D01*
X006077Y001728D02*
X006177Y001728D01*
X006177Y001629D02*
X006077Y001629D01*
X006077Y001531D02*
X006177Y001531D01*
X006177Y001432D02*
X006077Y001432D01*
X006077Y001334D02*
X006177Y001334D01*
X006177Y001235D02*
X006077Y001235D01*
X005856Y001235D02*
X005627Y001235D01*
X005627Y001137D02*
X007377Y001137D01*
X007377Y001038D02*
X005627Y001038D01*
X005627Y000940D02*
X007377Y000940D01*
X007377Y000841D02*
X005627Y000841D01*
X005627Y000742D02*
X007377Y000742D01*
X007377Y000644D02*
X005627Y000644D01*
X005627Y001334D02*
X005758Y001334D01*
X005709Y001432D02*
X005649Y001432D01*
X005673Y001531D02*
X005677Y001531D01*
X005673Y001629D02*
X005677Y001629D01*
X005673Y001728D02*
X005677Y001728D01*
X005673Y001826D02*
X005677Y001826D01*
X005177Y001826D02*
X005077Y001826D01*
X005077Y001728D02*
X005177Y001728D01*
X005177Y001629D02*
X005077Y001629D01*
X005077Y001531D02*
X005177Y001531D01*
X005177Y001432D02*
X005077Y001432D01*
X005077Y001334D02*
X005177Y001334D01*
X005177Y001235D02*
X005077Y001235D01*
X004847Y003206D02*
X002577Y003206D01*
X002577Y003305D02*
X004847Y003305D01*
X004847Y003403D02*
X002577Y003403D01*
X002577Y003502D02*
X004847Y003502D01*
X005627Y005275D02*
X006847Y005275D01*
X006847Y005374D02*
X005627Y005374D01*
X005627Y005473D02*
X006847Y005473D01*
X006909Y005571D02*
X005627Y005571D01*
X006448Y002516D02*
X006805Y002516D01*
X006729Y002418D02*
X006524Y002418D01*
X006565Y002319D02*
X006688Y002319D01*
X006677Y002221D02*
X006577Y002221D01*
X006577Y002122D02*
X006677Y002122D01*
X006677Y002024D02*
X006577Y002024D01*
X006577Y001826D02*
X006677Y001826D01*
X006677Y001728D02*
X006577Y001728D01*
X006577Y001629D02*
X006677Y001629D01*
X006677Y001531D02*
X006577Y001531D01*
X006544Y001432D02*
X006709Y001432D01*
X006758Y001334D02*
X006496Y001334D01*
X006397Y001235D02*
X006856Y001235D01*
X007077Y001235D02*
X007177Y001235D01*
X007177Y001334D02*
X007077Y001334D01*
X007077Y001432D02*
X007177Y001432D01*
X007177Y001531D02*
X007077Y001531D01*
X007077Y001629D02*
X007177Y001629D01*
X007177Y001728D02*
X007077Y001728D01*
X007077Y001826D02*
X007177Y001826D01*
X007649Y001432D02*
X007709Y001432D01*
X007677Y001531D02*
X007673Y001531D01*
X007673Y001629D02*
X007677Y001629D01*
X007673Y001728D02*
X007677Y001728D01*
X007673Y001826D02*
X007677Y001826D01*
X007627Y001334D02*
X007758Y001334D01*
X007856Y001235D02*
X007627Y001235D01*
X007627Y001137D02*
X010669Y001137D01*
X010669Y001235D02*
X009397Y001235D01*
X009381Y001220D02*
X009508Y001346D01*
X009577Y001512D01*
X009577Y001851D01*
X009177Y001851D01*
X009177Y001151D01*
X009216Y001151D01*
X009381Y001220D01*
X009496Y001334D02*
X010669Y001334D01*
X010669Y001432D02*
X009544Y001432D01*
X009577Y001531D02*
X010669Y001531D01*
X010669Y001629D02*
X009577Y001629D01*
X009577Y001728D02*
X010669Y001728D01*
X010669Y001826D02*
X009577Y001826D01*
X009577Y002024D02*
X010669Y002024D01*
X010669Y002122D02*
X009577Y002122D01*
X009577Y002221D02*
X010669Y002221D01*
X010669Y002319D02*
X009565Y002319D01*
X009524Y002418D02*
X010669Y002418D01*
X010669Y002516D02*
X009448Y002516D01*
X009177Y001925D02*
X010669Y001925D01*
X010669Y002812D02*
X008406Y002812D01*
X008406Y002910D02*
X010669Y002910D01*
X010669Y001038D02*
X007627Y001038D01*
X007627Y000940D02*
X010669Y000940D01*
X010669Y000841D02*
X007627Y000841D01*
X007627Y000742D02*
X010669Y000742D01*
X010669Y000644D02*
X007627Y000644D01*
X007951Y003206D02*
X008051Y003206D01*
X008051Y003305D02*
X007951Y003305D01*
X007951Y003403D02*
X008051Y003403D01*
X008051Y003502D02*
X007951Y003502D01*
X007302Y004783D02*
X007203Y004783D01*
X007203Y004881D02*
X007302Y004881D01*
X007302Y004980D02*
X007203Y004980D01*
X007203Y005078D02*
X007302Y005078D01*
X007951Y007049D02*
X008051Y007049D01*
X008051Y007148D02*
X007951Y007148D01*
X007951Y007246D02*
X008051Y007246D01*
X008051Y007345D02*
X007951Y007345D01*
X008328Y007838D02*
X010669Y007838D01*
X010669Y007739D02*
X008406Y007739D01*
X008406Y007640D02*
X010669Y007640D01*
X010669Y007542D02*
X008406Y007542D01*
X007302Y007542D02*
X007203Y007542D01*
X007203Y007640D02*
X007302Y007640D01*
X007302Y007739D02*
X007203Y007739D01*
X007203Y007838D02*
X007302Y007838D01*
X006343Y010006D02*
X005511Y010006D01*
X005511Y010104D02*
X006441Y010104D01*
X006540Y010203D02*
X005572Y010203D01*
X005580Y010210D02*
X005730Y010272D01*
X005855Y010398D01*
X005923Y010562D01*
X005923Y010740D01*
X005855Y010904D01*
X005730Y011030D01*
X005565Y011098D01*
X005388Y011098D01*
X005223Y011030D01*
X005098Y010904D01*
X005036Y010754D01*
X004909Y010627D01*
X004801Y010519D01*
X004742Y010378D01*
X004742Y009651D01*
X002577Y009651D01*
X002577Y017151D01*
X007377Y017151D01*
X007377Y017096D01*
X007302Y017096D01*
X007302Y016701D01*
X007203Y016701D01*
X007203Y017096D01*
X006935Y017096D01*
X006847Y017009D01*
X006847Y016701D01*
X007202Y016701D01*
X007202Y016601D01*
X006847Y016601D01*
X006847Y016294D01*
X006933Y016207D01*
X006857Y016175D01*
X006787Y016106D01*
X006750Y016015D01*
X006750Y015287D01*
X006787Y015196D01*
X006842Y015141D01*
X006787Y015086D01*
X006750Y014996D01*
X006750Y014307D01*
X006787Y014216D01*
X006841Y014162D01*
X006796Y014116D01*
X006552Y014116D01*
X006552Y013701D01*
X006453Y013701D01*
X006453Y014116D01*
X006185Y014116D01*
X006097Y014028D01*
X006097Y013701D01*
X006452Y013701D01*
X006452Y013601D01*
X006097Y013601D01*
X006097Y013274D01*
X006185Y013186D01*
X006453Y013186D01*
X006453Y013601D01*
X006552Y013601D01*
X006552Y013186D01*
X006796Y013186D01*
X006855Y013127D01*
X006905Y013106D01*
X006905Y012432D01*
X006842Y012305D01*
X006834Y012297D01*
X006812Y012244D01*
X006787Y012193D01*
X006786Y012181D01*
X006781Y012170D01*
X006781Y012113D01*
X006777Y012056D01*
X006781Y012045D01*
X006781Y010444D01*
X005635Y009298D01*
X005627Y009298D01*
X005627Y009651D01*
X005511Y009651D01*
X005511Y010142D01*
X005580Y010210D01*
X005511Y009907D02*
X006244Y009907D01*
X006146Y009808D02*
X005511Y009808D01*
X005511Y009710D02*
X006047Y009710D01*
X005949Y009611D02*
X005627Y009611D01*
X005627Y009513D02*
X005850Y009513D01*
X005751Y009414D02*
X005627Y009414D01*
X005627Y009316D02*
X005653Y009316D01*
X005759Y010301D02*
X006638Y010301D01*
X006737Y010400D02*
X005856Y010400D01*
X005897Y010498D02*
X006781Y010498D01*
X006781Y010597D02*
X005923Y010597D01*
X005923Y010695D02*
X006781Y010695D01*
X006781Y010794D02*
X005901Y010794D01*
X005860Y010892D02*
X006781Y010892D01*
X006781Y010991D02*
X005769Y010991D01*
X005586Y011089D02*
X006781Y011089D01*
X006781Y011188D02*
X002577Y011188D01*
X002577Y011089D02*
X005367Y011089D01*
X005184Y010991D02*
X002577Y010991D01*
X002577Y010892D02*
X005093Y010892D01*
X005052Y010794D02*
X002577Y010794D01*
X002577Y010695D02*
X004977Y010695D01*
X004878Y010597D02*
X002577Y010597D01*
X002577Y010498D02*
X004792Y010498D01*
X004751Y010400D02*
X002577Y010400D01*
X002577Y010301D02*
X004742Y010301D01*
X004742Y010203D02*
X002577Y010203D01*
X002577Y010104D02*
X004742Y010104D01*
X004742Y010006D02*
X002577Y010006D01*
X002577Y009907D02*
X004742Y009907D01*
X004742Y009808D02*
X002577Y009808D01*
X002577Y009710D02*
X004742Y009710D01*
X006113Y013257D02*
X002577Y013257D01*
X002577Y013159D02*
X006823Y013159D01*
X006905Y013060D02*
X002577Y013060D01*
X002577Y012962D02*
X006905Y012962D01*
X006905Y012863D02*
X002577Y012863D01*
X002577Y012765D02*
X006905Y012765D01*
X006905Y012666D02*
X002577Y012666D01*
X002577Y012568D02*
X006905Y012568D01*
X006905Y012469D02*
X002577Y012469D01*
X002577Y012371D02*
X006875Y012371D01*
X006824Y012272D02*
X002577Y012272D01*
X002577Y012173D02*
X006783Y012173D01*
X006779Y012075D02*
X002577Y012075D01*
X002577Y011976D02*
X006781Y011976D01*
X006781Y011878D02*
X002577Y011878D01*
X002577Y011779D02*
X006781Y011779D01*
X006781Y011681D02*
X002577Y011681D01*
X002577Y011582D02*
X006781Y011582D01*
X006781Y011484D02*
X002577Y011484D01*
X002577Y011385D02*
X006781Y011385D01*
X006781Y011287D02*
X002577Y011287D01*
X002577Y013356D02*
X006097Y013356D01*
X006097Y013455D02*
X002577Y013455D01*
X002577Y013553D02*
X006097Y013553D01*
X006097Y013750D02*
X002577Y013750D01*
X002577Y013652D02*
X006452Y013652D01*
X006453Y013750D02*
X006552Y013750D01*
X006552Y013849D02*
X006453Y013849D01*
X006453Y013947D02*
X006552Y013947D01*
X006552Y014046D02*
X006453Y014046D01*
X006453Y013553D02*
X006552Y013553D01*
X006552Y013455D02*
X006453Y013455D01*
X006453Y013356D02*
X006552Y013356D01*
X006552Y013257D02*
X006453Y013257D01*
X006097Y013849D02*
X002577Y013849D01*
X002577Y013947D02*
X006097Y013947D01*
X006114Y014046D02*
X002577Y014046D01*
X002577Y014144D02*
X006824Y014144D01*
X006776Y014243D02*
X002577Y014243D01*
X002577Y014341D02*
X006750Y014341D01*
X006750Y014440D02*
X002577Y014440D01*
X002577Y014539D02*
X006750Y014539D01*
X006750Y014637D02*
X002577Y014637D01*
X002577Y014736D02*
X006750Y014736D01*
X006750Y014834D02*
X002577Y014834D01*
X002577Y014933D02*
X006750Y014933D01*
X006765Y015031D02*
X002577Y015031D01*
X002577Y015130D02*
X006831Y015130D01*
X006774Y015228D02*
X002577Y015228D01*
X002577Y015327D02*
X006750Y015327D01*
X006750Y015425D02*
X002577Y015425D01*
X002577Y015524D02*
X006750Y015524D01*
X006750Y015622D02*
X002577Y015622D01*
X002577Y015721D02*
X006750Y015721D01*
X006750Y015820D02*
X002577Y015820D01*
X002577Y015918D02*
X006750Y015918D01*
X006750Y016017D02*
X002577Y016017D01*
X002577Y016115D02*
X006797Y016115D01*
X006927Y016214D02*
X002577Y016214D01*
X002577Y016312D02*
X006847Y016312D01*
X006847Y016411D02*
X002577Y016411D01*
X002577Y016509D02*
X006847Y016509D01*
X006847Y016706D02*
X002577Y016706D01*
X002577Y016608D02*
X007202Y016608D01*
X007203Y016706D02*
X007302Y016706D01*
X007302Y016805D02*
X007203Y016805D01*
X007203Y016904D02*
X007302Y016904D01*
X007302Y017002D02*
X007203Y017002D01*
X007377Y017101D02*
X002577Y017101D01*
X002577Y017002D02*
X006847Y017002D01*
X006847Y016904D02*
X002577Y016904D01*
X002577Y016805D02*
X006847Y016805D01*
X006092Y017495D02*
X002577Y017495D01*
X002577Y017593D02*
X006092Y017593D01*
X006092Y017692D02*
X002577Y017692D01*
X002577Y017790D02*
X006092Y017790D01*
X006092Y017889D02*
X002577Y017889D01*
X002577Y017988D02*
X006092Y017988D01*
X006092Y018086D02*
X002577Y018086D01*
X002577Y018185D02*
X006092Y018185D01*
X006092Y018283D02*
X002577Y018283D01*
X003261Y026474D02*
X003261Y027392D01*
X003742Y027873D01*
X003742Y027590D01*
X003663Y027511D01*
X003580Y027310D01*
X003580Y026848D01*
X003301Y026569D01*
X003261Y026474D01*
X003261Y026561D02*
X003297Y026561D01*
X003261Y026659D02*
X003391Y026659D01*
X003489Y026758D02*
X003261Y026758D01*
X003261Y026856D02*
X003580Y026856D01*
X003580Y026955D02*
X003261Y026955D01*
X003261Y027054D02*
X003580Y027054D01*
X003580Y027152D02*
X003261Y027152D01*
X003261Y027251D02*
X003580Y027251D01*
X003596Y027349D02*
X003261Y027349D01*
X003317Y027448D02*
X003637Y027448D01*
X003698Y027546D02*
X003416Y027546D01*
X003514Y027645D02*
X003742Y027645D01*
X003742Y027743D02*
X003613Y027743D01*
X003711Y027842D02*
X003742Y027842D01*
X003412Y028630D02*
X002577Y028630D01*
X002577Y028701D02*
X002577Y027795D01*
X003483Y028701D01*
X002577Y028701D01*
X002577Y028532D02*
X003313Y028532D01*
X003215Y028433D02*
X002577Y028433D01*
X002577Y028335D02*
X003116Y028335D01*
X003018Y028236D02*
X002577Y028236D01*
X002577Y028137D02*
X002919Y028137D01*
X002820Y028039D02*
X002577Y028039D01*
X002577Y027940D02*
X002722Y027940D01*
X002623Y027842D02*
X002577Y027842D01*
X006861Y018677D02*
X007115Y018677D01*
X007167Y018579D02*
X006861Y018579D01*
X006861Y018480D02*
X007266Y018480D01*
X007058Y018776D02*
X006895Y018776D01*
X007951Y017002D02*
X008051Y017002D01*
X008051Y016904D02*
X007951Y016904D01*
X007951Y016805D02*
X008051Y016805D01*
X008051Y016706D02*
X007951Y016706D01*
X009077Y001826D02*
X009177Y001826D01*
X009177Y001728D02*
X009077Y001728D01*
X009077Y001629D02*
X009177Y001629D01*
X009177Y001531D02*
X009077Y001531D01*
X009077Y001432D02*
X009177Y001432D01*
X009177Y001334D02*
X009077Y001334D01*
X009077Y001235D02*
X009177Y001235D01*
D17*
X010127Y001151D03*
X010127Y005901D03*
X008377Y005901D03*
X006377Y007401D03*
X006377Y008401D03*
X006377Y010401D03*
X006377Y011401D03*
X004877Y007151D03*
X003127Y007151D03*
X003127Y001151D03*
X008377Y012651D03*
X010127Y012651D03*
D18*
X007251Y012351D02*
X007251Y013651D01*
X007253Y013651D01*
X007253Y014651D01*
X007253Y015651D01*
X007251Y012351D02*
X007127Y012101D01*
X007127Y010301D01*
X005677Y008851D01*
M02*
