G75*
G70*
%OFA0B0*%
%FSLAX24Y24*%
%IPPOS*%
%LPD*%
%AMOC8*
5,1,8,0,0,1.08239X$1,22.5*
%
%ADD10R,0.1261X0.0474*%
%ADD11R,0.3230X0.4411*%
%ADD12R,0.0749X0.0789*%
%ADD13R,0.1615X0.0710*%
%ADD14R,0.2442X0.2442*%
%ADD15R,0.0671X0.0867*%
%ADD16R,0.1576X0.0867*%
%ADD17C,0.0680*%
%ADD18R,0.0592X0.0671*%
%ADD19R,0.0552X0.0552*%
%ADD20R,0.0592X0.0710*%
D10*
X004477Y008063D03*
X004477Y008732D03*
X004477Y009401D03*
X004477Y010070D03*
X004477Y010740D03*
D11*
X008877Y009401D03*
D12*
X003127Y008594D03*
X003127Y010208D03*
D13*
X003203Y004651D03*
X006550Y004651D03*
D14*
X004009Y015401D03*
X009245Y015401D03*
D15*
X007532Y020161D03*
X006627Y020161D03*
X005721Y020161D03*
X005532Y025141D03*
X004627Y025141D03*
X003721Y025141D03*
X007721Y025141D03*
X008627Y025141D03*
X009532Y025141D03*
D16*
X008627Y022661D03*
X006627Y022641D03*
X004627Y022661D03*
D17*
X005127Y026601D02*
X005127Y027201D01*
X006127Y027201D02*
X006127Y026601D01*
X007127Y026601D02*
X007127Y027201D01*
X008127Y027201D02*
X008127Y026601D01*
X009127Y026601D02*
X009127Y027201D01*
X004127Y027201D02*
X004127Y026601D01*
X004127Y002201D02*
X004127Y001601D01*
X005127Y001601D02*
X005127Y002201D01*
X006127Y002201D02*
X006127Y001601D01*
X007127Y001601D02*
X007127Y002201D01*
X008127Y002201D02*
X008127Y001601D01*
X009127Y001601D02*
X009127Y002201D01*
D18*
X009501Y020151D03*
X008753Y020151D03*
X004501Y020151D03*
X003753Y020151D03*
D19*
X008127Y004815D03*
X008127Y003988D03*
D20*
X008251Y003151D03*
X007503Y003151D03*
M02*
