G75*
G70*
%OFA0B0*%
%FSLAX24Y24*%
%IPPOS*%
%LPD*%
%AMOC8*
5,1,8,0,0,1.08239X$1,22.5*
%
%ADD10C,0.0000*%
%ADD11C,0.0100*%
D10*
X002127Y000151D02*
X002127Y029151D01*
X011119Y029151D01*
X011119Y000151D01*
X002127Y000151D01*
D11*
X003127Y001401D02*
X003127Y002401D01*
X003627Y001901D01*
X003127Y001401D01*
X003927Y001101D02*
X004060Y001101D01*
X003993Y001101D02*
X003993Y000701D01*
X003927Y000701D02*
X004060Y000701D01*
X004234Y000701D02*
X004234Y001101D01*
X004500Y000701D01*
X004500Y001101D01*
X004694Y000901D02*
X004961Y000901D01*
X004827Y000768D02*
X004827Y001035D01*
X003877Y002651D02*
X006877Y002651D01*
X006877Y006651D01*
X003877Y006651D01*
X002877Y005651D01*
X002877Y003651D01*
X003877Y002651D01*
X004743Y004451D02*
X004677Y004518D01*
X004677Y004785D01*
X004743Y004851D01*
X004877Y004851D01*
X004944Y004785D01*
X004944Y004518D02*
X004877Y004451D01*
X004743Y004451D01*
X005877Y006901D02*
X005877Y011901D01*
X010627Y011901D01*
X010627Y006901D01*
X005877Y006901D01*
X006176Y007951D02*
X006176Y008218D01*
X006176Y008085D02*
X006577Y008085D01*
X006510Y008412D02*
X006577Y008478D01*
X006577Y008612D01*
X006510Y008678D01*
X006443Y008678D01*
X006376Y008612D01*
X006376Y008478D01*
X006310Y008412D01*
X006243Y008412D01*
X006176Y008478D01*
X006176Y008612D01*
X006243Y008678D01*
X006243Y008872D02*
X006176Y008939D01*
X006176Y009072D01*
X006243Y009139D01*
X006310Y009139D01*
X006577Y008872D01*
X006577Y009139D01*
X006510Y009332D02*
X006577Y009399D01*
X006577Y009532D01*
X006510Y009599D01*
X006376Y009599D01*
X006310Y009532D01*
X006310Y009466D01*
X006376Y009332D01*
X006176Y009332D01*
X006176Y009599D01*
X006176Y009793D02*
X006176Y010059D01*
X006243Y010059D01*
X006510Y009793D01*
X006577Y009793D01*
X006510Y010253D02*
X006577Y010320D01*
X006577Y010453D01*
X006510Y010520D01*
X006443Y010520D01*
X006376Y010453D01*
X006376Y010253D01*
X006510Y010253D01*
X006376Y010253D02*
X006243Y010386D01*
X006176Y010520D01*
X005877Y011901D02*
X003127Y011901D01*
X003127Y018901D01*
X010127Y018901D01*
X010127Y011901D01*
X005877Y011901D01*
X005892Y012451D02*
X005825Y012451D01*
X005825Y012518D01*
X005892Y012518D01*
X005892Y012451D01*
X006055Y012518D02*
X006055Y012585D01*
X006122Y012651D01*
X006255Y012651D01*
X006322Y012585D01*
X006322Y012518D01*
X006255Y012451D01*
X006122Y012451D01*
X006055Y012518D01*
X006122Y012651D02*
X006055Y012718D01*
X006055Y012785D01*
X006122Y012851D01*
X006255Y012851D01*
X006322Y012785D01*
X006322Y012718D01*
X006255Y012651D01*
X005631Y012585D02*
X005565Y012651D01*
X005365Y012651D01*
X005365Y012518D01*
X005431Y012451D01*
X005565Y012451D01*
X005631Y012518D01*
X005631Y012585D01*
X005498Y012785D02*
X005365Y012651D01*
X005498Y012785D02*
X005631Y012851D01*
X005191Y012851D02*
X005058Y012851D01*
X005124Y012851D02*
X005124Y012451D01*
X005058Y012451D02*
X005191Y012451D01*
X004864Y012785D02*
X004597Y012518D01*
X004597Y012451D01*
X004404Y012651D02*
X004137Y012651D01*
X004337Y012851D01*
X004337Y012451D01*
X004597Y012851D02*
X004864Y012851D01*
X004864Y012785D01*
X003944Y012451D02*
X003677Y012451D01*
X003677Y012851D01*
X003127Y011151D02*
X003627Y010901D01*
X003627Y007901D01*
X002627Y007901D01*
X002627Y010901D01*
X003127Y011151D01*
X003377Y019651D02*
X004877Y019651D01*
X004877Y020651D01*
X003377Y020651D01*
X003377Y019651D01*
X003627Y023151D02*
X003627Y024651D01*
X005627Y024651D01*
X005627Y023151D01*
X003627Y023151D01*
X003927Y023701D02*
X004194Y023701D01*
X004387Y023701D02*
X004587Y023701D01*
X004654Y023768D01*
X004654Y024035D01*
X004587Y024101D01*
X004387Y024101D01*
X004387Y023701D01*
X003927Y023701D02*
X003927Y024101D01*
X004847Y024035D02*
X004847Y023768D01*
X004914Y023701D01*
X005047Y023701D01*
X005114Y023768D01*
X005114Y024035D01*
X005047Y024101D01*
X004914Y024101D01*
X004847Y024035D01*
X005627Y022151D02*
X005627Y020651D01*
X007627Y020651D01*
X007627Y022151D01*
X005627Y022151D01*
X005927Y021601D02*
X005927Y021201D01*
X006194Y021201D01*
X006387Y021201D02*
X006587Y021201D01*
X006654Y021268D01*
X006654Y021535D01*
X006587Y021601D01*
X006387Y021601D01*
X006387Y021201D01*
X006847Y021268D02*
X006914Y021201D01*
X007047Y021201D01*
X007114Y021268D01*
X007114Y021535D01*
X007047Y021601D01*
X006914Y021601D01*
X006847Y021535D01*
X006847Y021268D01*
X007627Y023151D02*
X009627Y023151D01*
X009627Y024651D01*
X007627Y024651D01*
X007627Y023151D01*
X007927Y023701D02*
X008194Y023701D01*
X008387Y023701D02*
X008387Y024101D01*
X008587Y024101D01*
X008654Y024035D01*
X008654Y023768D01*
X008587Y023701D01*
X008387Y023701D01*
X007927Y023701D02*
X007927Y024101D01*
X008847Y024035D02*
X008847Y023768D01*
X008914Y023701D01*
X009047Y023701D01*
X009114Y023768D01*
X009114Y024035D01*
X009047Y024101D01*
X008914Y024101D01*
X008847Y024035D01*
X010176Y023980D02*
X010510Y023980D01*
X010577Y023913D01*
X010577Y023780D01*
X010510Y023713D01*
X010176Y023713D01*
X010243Y023520D02*
X010176Y023453D01*
X010176Y023320D01*
X010243Y023253D01*
X010510Y023253D01*
X010577Y023320D01*
X010577Y023453D01*
X010510Y023520D01*
X010376Y023520D01*
X010376Y023386D01*
X010577Y023059D02*
X010577Y022793D01*
X010176Y022793D01*
X010176Y023059D01*
X010243Y022599D02*
X010376Y022599D01*
X010443Y022532D01*
X010443Y022332D01*
X010577Y022332D02*
X010176Y022332D01*
X010176Y022532D01*
X010243Y022599D01*
X010376Y022793D02*
X010376Y022926D01*
X010577Y022599D02*
X010443Y022466D01*
X010577Y022139D02*
X010577Y021872D01*
X010176Y021872D01*
X010176Y022139D01*
X010376Y022005D02*
X010376Y021872D01*
X010376Y021678D02*
X010443Y021612D01*
X010443Y021412D01*
X010443Y021545D02*
X010577Y021678D01*
X010376Y021678D02*
X010243Y021678D01*
X010176Y021612D01*
X010176Y021412D01*
X010577Y021412D01*
X010376Y021218D02*
X010443Y021151D01*
X010443Y020951D01*
X010577Y020951D02*
X010176Y020951D01*
X010176Y021151D01*
X010243Y021218D01*
X010376Y021218D01*
X009877Y020651D02*
X009877Y019651D01*
X008377Y019651D01*
X008377Y020651D01*
X009877Y020651D01*
X010176Y024174D02*
X010577Y024174D01*
X010577Y024441D01*
X010577Y024634D02*
X010310Y024634D01*
X010176Y024767D01*
X010310Y024901D01*
X010577Y024901D01*
X010376Y024901D02*
X010376Y024634D01*
X010176Y025094D02*
X010176Y025361D01*
X010176Y025228D02*
X010577Y025228D01*
X010510Y025555D02*
X010577Y025621D01*
X010577Y025755D01*
X010510Y025822D01*
X010243Y025822D01*
X010176Y025755D01*
X010176Y025621D01*
X010243Y025555D01*
X010510Y025555D01*
X010577Y026015D02*
X010176Y026015D01*
X010176Y026215D01*
X010243Y026282D01*
X010376Y026282D01*
X010443Y026215D01*
X010443Y026015D01*
X010443Y026149D02*
X010577Y026282D01*
X010443Y026936D02*
X010577Y027069D01*
X010443Y027203D01*
X010176Y027203D01*
X010243Y027396D02*
X010176Y027463D01*
X010176Y027596D01*
X010243Y027663D01*
X010310Y027663D01*
X010577Y027396D01*
X010577Y027663D01*
X010443Y026936D02*
X010176Y026936D01*
X009260Y027951D02*
X009327Y028018D01*
X009327Y028151D01*
X009260Y028218D01*
X009193Y028218D01*
X009126Y028151D01*
X009126Y028085D01*
X009126Y028151D02*
X009060Y028218D01*
X008993Y028218D01*
X008926Y028151D01*
X008926Y028018D01*
X008993Y027951D01*
X009126Y028412D02*
X009126Y028678D01*
X008260Y028545D02*
X007993Y028545D01*
X007993Y028218D02*
X008060Y028218D01*
X008126Y028151D01*
X008193Y028218D01*
X008260Y028218D01*
X008327Y028151D01*
X008327Y028018D01*
X008260Y027951D01*
X008126Y028085D02*
X008126Y028151D01*
X008126Y028412D02*
X008126Y028678D01*
X007993Y028218D02*
X007926Y028151D01*
X007926Y028018D01*
X007993Y027951D01*
X007327Y027951D02*
X007060Y028218D01*
X006993Y028218D01*
X006926Y028151D01*
X006926Y028018D01*
X006993Y027951D01*
X007126Y028412D02*
X007126Y028678D01*
X007327Y028218D02*
X007327Y027951D01*
X006327Y027951D02*
X006060Y028218D01*
X005993Y028218D01*
X005926Y028151D01*
X005926Y028018D01*
X005993Y027951D01*
X006126Y028412D02*
X006126Y028678D01*
X005993Y028545D02*
X006260Y028545D01*
X006327Y028218D02*
X006327Y027951D01*
X005327Y027951D02*
X005327Y028218D01*
X005327Y028085D02*
X004926Y028085D01*
X005060Y027951D01*
X005126Y028412D02*
X005126Y028678D01*
X004327Y028218D02*
X004327Y027951D01*
X004327Y028085D02*
X003926Y028085D01*
X004060Y027951D01*
X004126Y028412D02*
X004126Y028678D01*
X003993Y028545D02*
X004260Y028545D01*
X007627Y005151D02*
X007627Y003651D01*
X007127Y003651D01*
X007127Y002651D01*
X008627Y002651D01*
X008627Y003651D01*
X007627Y003651D01*
X007627Y005151D02*
X008627Y005151D01*
X008627Y003651D01*
X009176Y003612D02*
X009176Y003478D01*
X009243Y003412D01*
X009510Y003412D01*
X009577Y003478D01*
X009577Y003612D01*
X009510Y003678D01*
X009443Y003612D02*
X009443Y003478D01*
X009310Y003478D01*
X009310Y003612D01*
X009443Y003612D01*
X009376Y003678D01*
X009243Y003678D01*
X009176Y003612D01*
X009176Y003872D02*
X009176Y004072D01*
X009243Y004139D01*
X009376Y004139D01*
X009443Y004072D01*
X009443Y003872D01*
X009577Y003872D02*
X009176Y003872D01*
X009310Y004332D02*
X009176Y004466D01*
X009577Y004466D01*
X009577Y004599D02*
X009577Y004332D01*
X009577Y004793D02*
X009310Y005059D01*
X009243Y005059D01*
X009176Y004993D01*
X009176Y004859D01*
X009243Y004793D01*
X009577Y004793D02*
X009577Y005059D01*
X009926Y005047D02*
X009993Y004981D01*
X010260Y004981D01*
X010327Y005047D01*
X010327Y005181D01*
X010260Y005247D01*
X010327Y004807D02*
X010327Y004674D01*
X010327Y004740D02*
X009926Y004740D01*
X009926Y004674D02*
X009926Y004807D01*
X009926Y005047D02*
X009926Y005181D01*
X009993Y005247D01*
X009993Y004480D02*
X010126Y004480D01*
X010193Y004413D01*
X010193Y004213D01*
X010327Y004213D02*
X009926Y004213D01*
X009926Y004413D01*
X009993Y004480D01*
X010193Y004347D02*
X010327Y004480D01*
X010327Y004020D02*
X010327Y003753D01*
X009926Y003753D01*
X009926Y004020D01*
X010126Y003886D02*
X010126Y003753D01*
X009993Y003099D02*
X009926Y003032D01*
X009926Y002899D01*
X009993Y002832D01*
X010260Y002832D01*
X010327Y002899D01*
X010327Y003032D01*
X010260Y003099D01*
X009993Y003099D01*
X009993Y002639D02*
X009926Y002572D01*
X009926Y002439D01*
X009993Y002372D01*
X010060Y002372D01*
X010126Y002439D01*
X010126Y002572D01*
X010193Y002639D01*
X010260Y002639D01*
X010327Y002572D01*
X010327Y002439D01*
X010260Y002372D01*
X010327Y002178D02*
X010193Y002045D01*
X010193Y002112D02*
X010193Y001912D01*
X010327Y001912D02*
X009926Y001912D01*
X009926Y002112D01*
X009993Y002178D01*
X010126Y002178D01*
X010193Y002112D01*
X010260Y001718D02*
X009993Y001718D01*
X009926Y001651D01*
X009926Y001518D01*
X009993Y001451D01*
X010260Y001451D01*
X010327Y001518D01*
X010327Y001651D01*
X010260Y001718D01*
X009575Y000901D02*
X009308Y000901D01*
X009441Y001035D02*
X009441Y000768D01*
X009114Y001101D02*
X008847Y001101D01*
X008981Y001101D02*
X008981Y000701D01*
X008654Y000768D02*
X008654Y001101D01*
X008654Y000768D02*
X008587Y000701D01*
X008454Y000701D01*
X008387Y000768D01*
X008387Y001101D01*
X008194Y001035D02*
X008194Y000768D01*
X008127Y000701D01*
X007993Y000701D01*
X007927Y000768D01*
X007927Y001035D01*
X007993Y001101D01*
X008127Y001101D01*
X008194Y001035D01*
X007114Y001101D02*
X007114Y000701D01*
X006981Y000968D02*
X007114Y001101D01*
X006981Y000968D02*
X006847Y001101D01*
X006847Y000701D01*
X006654Y000768D02*
X006654Y001035D01*
X006587Y001101D01*
X006454Y001101D01*
X006387Y001035D01*
X006387Y000768D01*
X006454Y000701D01*
X006587Y000701D01*
X006654Y000768D01*
X006194Y000768D02*
X006127Y000701D01*
X005993Y000701D01*
X005927Y000768D01*
X005927Y001035D01*
X005993Y001101D01*
X006127Y001101D01*
X006194Y001035D01*
X009176Y002951D02*
X009176Y003151D01*
X009243Y003218D01*
X009376Y003218D01*
X009443Y003151D01*
X009443Y002951D01*
X009443Y003085D02*
X009577Y003218D01*
X009577Y002951D02*
X009176Y002951D01*
M02*
